<?xml version="1.0" encoding="utf-8"?><svg width="1028" height="438" viewBox="0 0 1028 438" xmlns="http://www.w3.org/2000/svg" xmlns:xlink="http://www.w3.org/1999/xlink"><svg width="17" height="29" fill="none" viewBox="0 0 17 29" id="arrow" x="515" y="257" xmlns="http://www.w3.org/2000/svg"><path d="M1.432 2L14.16 14.728 1.432 27.456" stroke="#D9D9D9" stroke-width="4"/></svg><svg width="1028" height="189" fill="none" viewBox="0 0 1028 189" id="bg_motivator" xmlns="http://www.w3.org/2000/svg"><rect width="1028" height="189" rx="10" fill="#F0F0F0"/><mask id="ba" style="mask-type:alpha" maskUnits="userSpaceOnUse" x="0" y="-1" width="1028" height="190"><rect width="1028" height="189" rx="10" fill="#F0F0F0"/></mask><g mask="url(#ba)"><path opacity=".3" fill-rule="evenodd" clip-rule="evenodd" d="M431.091-97.005c22.362-111.822 83.473-209.346 219.168-212.733 168.452-43.885 177.415-22.648 111.911 3.937 175.406-44.48 163.492-13.194 74.603 16.285 138.172 24.626 49.628 44.31-102.277 24.327-5.588.713-11.133 1.307-16.587 1.891-78.33 8.39-137.872 14.767-36.344 342.067 92.543 298.334 18.947 191.383-29.418 100.616C599.14 57.189 540.124-185.997 678.204-274.46c-4.528-.968-9.018-1.974-13.465-2.983-4.387.91-8.845 1.793-13.368 2.645-11.262 2.122-22.545 3.331-33.462 4.5-63.624 6.815-114.853 12.302-77.437 189.522 35.191-1.547 31.488 5.107 3.007 13.764 8.635 38.293 21.108 84.05 38.086 138.78 92.543 298.335 18.947 191.384-29.418 100.617-21.415-49.366-43.81-118.48-53.794-189.16h-.006c.434 22.208 1.297 46.15 2.615 71.954 17.42 341.269-39.248 202.669-69.76 90.711-8.099-45.481-13.062-103.187-9.953-162.122-30.227-1.783-65.767-5.526-104.33-11.716l-.807-.13c-33.274 17.985-37.065 65.369 30.699 201.773 92.8 186.8 19 119.834-29.5 63-48.117-69.261-101.172-200.603-8.083-265.962-7.679-1.396-15.273-3-22.754-4.662-76.607 8.277-132.947 19.2-32.909 341.698 92.543 298.334 18.947 191.383-29.418 100.616-52.485-120.993-110.862-360.606 22.036-451.188-86.416-16.805-147.545.615-130.221 339.982 17.42 341.269-39.248 202.669-69.76 90.711C17.53 226.882 28.165-87.332 297.077-66.877c2.57-.793 5.185-1.548 7.845-2.265 58.232-15.694 99.315-24.297 126.169-27.863zm77.202-93.027c14.61-41.806 40.765-76.852 82.976-99.017-38.296.961-68.153 22.07-82.976 99.017zm324.018 76.727c-206.8 34.8-140.167 213.834-81 299 48.5 56.834 122.3 123.8 29.5-63-101.81-204.936-42.102-208.93 36.445-214.182 10.948-.733 22.262-1.49 33.555-2.818 161.499-19 239.999-62.5-18.5-19z" fill="#fff"/></g></svg><svg width="181" height="181" fill="none" viewBox="0 0 181 181" id="chart" y="257" xmlns="http://www.w3.org/2000/svg"><path d="M52.792 67.875l40.983 40.984c1.494 1.493 2.24 2.24 3.101 2.52a3.772 3.772 0 002.33 0c.862-.28 1.609-1.027 3.102-2.52L116.4 94.766c1.494-1.493 2.24-2.24 3.101-2.52a3.772 3.772 0 012.331 0c.861.28 1.608 1.027 3.101 2.52l33.442 33.442M52.792 67.875h30.166m-30.166 0v30.167m69.383-75.417h-63.35c-12.671 0-19.007 0-23.847 2.466a22.624 22.624 0 00-9.887 9.887c-2.466 4.84-2.466 11.176-2.466 23.847v63.35c0 12.671 0 19.007 2.466 23.847a22.624 22.624 0 009.887 9.887c4.84 2.466 11.176 2.466 23.847 2.466h63.35c12.671 0 19.007 0 23.847-2.466a22.623 22.623 0 009.887-9.887c2.466-4.84 2.466-11.176 2.466-23.847v-63.35c0-12.671 0-19.007-2.466-23.847a22.624 22.624 0 00-9.887-9.887c-4.84-2.466-11.176-2.466-23.847-2.466z" stroke="#fff" stroke-width="8" stroke-linecap="round" stroke-linejoin="round"/></svg><svg width="24" height="24" fill="none" viewBox="0 0 24 24" id="close" x="532" y="257" xmlns="http://www.w3.org/2000/svg"><path d="M18 6L6 18M6 6l12 12" stroke="#222931" stroke-width="2" stroke-linecap="round" stroke-linejoin="round"/></svg><svg width="217" height="47" fill="none" viewBox="0 0 217 47" id="logo" x="642" y="189" xmlns="http://www.w3.org/2000/svg"><path d="M0 23.5c0 6.417 2.605 12.204 6.801 16.427A23.172 23.172 0 0023.23 46.73c2.495 0 4.881-.384 7.103-1.125L1.124 16.397C.384 18.618 0 21.004 0 23.5z" fill="url(#epaint0_linear_37_490)"/><path d="M43.88 34.086H2.577C6.418 41.573 14.233 46.7 23.228 46.7c8.996 0 16.784-5.1 20.651-12.615z" fill="url(#epaint1_linear_37_490)"/><path d="M46.43 23.5c0-2.496-.384-4.882-1.125-7.103L16.098 45.604a23.478 23.478 0 007.103 1.125c6.418 0 12.204-2.606 16.428-6.802 4.195-4.223 6.8-10.01 6.8-16.427z" fill="url(#epaint2_linear_37_490)"/><path d="M33.815 2.85v41.3C41.3 40.312 46.43 32.496 46.43 23.5S41.3 6.689 33.815 2.85z" fill="url(#epaint3_linear_37_490)"/><path d="M39.629 7.073A23.172 23.172 0 0023.2.27c-2.495 0-4.881.384-7.103 1.125l29.207 29.207A23.478 23.478 0 0046.43 23.5c0-6.417-2.606-12.204-6.801-16.427z" fill="url(#epaint4_linear_37_490)"/><path d="M23.229.271C14.233.271 6.417 5.4 2.578 12.887h41.301C40.012 5.4 32.224.27 23.23.27z" fill="url(#epaint5_linear_37_490)"/><path d="M30.331 1.396A23.476 23.476 0 0023.23.27C12.889.271 4.14 7.045 1.124 16.37l7.103 7.103L30.331 1.396z" fill="url(#epaint6_linear_37_490)"/><path d="M12.615 2.85a23.251 23.251 0 00-11.49 13.547l11.49 11.49V2.85z" fill="url(#epaint7_linear_37_490)"/><path d="M64.816 13.93l-.842 5.76h-1.772l.797-5.76h-5.095l-2.17 15.285h5.094l.842-6.158h1.86l-.841 6.158h5.095l2.126-15.284h-5.094zm12.094 3.988l-1.683 4.962c-.089.266-.177.487-.222.664-.044.177-.088.355-.133.488-.044.177-.088.31-.132.487-.045.177-.09.354-.133.576v-1.063-.798-.31l-.222-5.272-4.563.31 1.063 11.297h2.082l-.088.266a1.048 1.048 0 01-.532.62 2.31 2.31 0 01-1.019.222c-.266 0-.532-.044-.753-.089a5.103 5.103 0 01-.93-.265l-1.24 2.88c.708.176 1.328.31 1.86.398.531.089 1.107.133 1.683.133.62 0 1.152-.044 1.595-.177.443-.133.886-.31 1.24-.576.355-.266.665-.62.975-1.063.266-.444.576-1.02.842-1.684l4.74-11.962h-4.43v-.044zm11.564-3.943l-.577 4.253c-.354-.177-.708-.355-1.019-.443a3.776 3.776 0 00-1.018-.133 3.85 3.85 0 00-2.038.576c-.62.399-1.152.93-1.64 1.595a8.856 8.856 0 00-1.107 2.348c-.266.886-.399 1.86-.399 2.88 0 1.417.31 2.48.886 3.278.576.797 1.418 1.196 2.437 1.196.399 0 .797-.088 1.152-.221a5.482 5.482 0 001.285-.71l-.09.577H90.6l2.215-15.595-4.341.399zm-1.64 11.917h-.221c-.488 0-.842-.088-1.02-.31-.177-.221-.265-.576-.265-1.107 0-.266 0-.532.044-.798a5.15 5.15 0 01.177-.797c.09-.266.133-.488.266-.665.089-.177.178-.354.31-.487.178-.177.31-.266.488-.31.177-.044.443-.089.753-.089h.133l-.665 4.563zm13.823-8.24h-.266c-.399 0-.797.089-1.152.221-.354.133-.753.4-1.196.754l.088-.975-4.341.31-1.595 11.297h4.297l1.108-7.841c.31-.044.576-.089.797-.089h1.197c.177 0 .354.044.575.089l.842-3.633c-.177-.133-.266-.133-.354-.133zm5.848-.044c-2.171 0-3.722.62-4.696 1.86-.798.975-1.285 2.349-1.462 4.076-.045.443-.089.842-.133 1.152 0 .31-.045.62-.045.842v.266c0 1.285.399 2.215 1.197 2.835.797.62 1.949.93 3.455.93 1.108 0 2.038-.132 2.791-.442.754-.31 1.418-.754 1.95-1.418.354-.443.664-1.02.886-1.64.221-.664.399-1.461.531-2.48.045-.355.089-.665.133-1.02.045-.354.045-.664.045-.974.044-2.658-1.507-3.987-4.652-3.987zm.266 5.006c0 .133-.045.266-.045.443s-.044.354-.088.532c-.045.221-.045.398-.089.576-.044.177-.044.31-.088.398-.133.753-.266 1.285-.443 1.595a.824.824 0 01-.754.443c-.487 0-.709-.354-.709-1.063v-.443c0-.177.045-.354.045-.532 0-.133.044-.31.044-.443 0-.177.044-.354.044-.531.045-.222.045-.443.089-.576.044-.178.044-.266.089-.4.133-.752.265-1.284.487-1.638.177-.31.443-.488.753-.488.222 0 .399.089.487.266.133.177.178.443.178.798.044.31.044.664 0 1.063z" fill="#005686"/><path d="M112.353 21.905l-.443 3.057h6.468l.399-3.057h-6.424zm11.917-7.975l-5.892 15.285h5.139l1.064-3.367h2.481l.088 3.367h5.051l-1.551-15.284h-6.38zm2.703 3.988c0 .266-.044.576-.044.93v.532l.088 3.101h-1.506l.975-3.101c.044-.177.088-.355.132-.488.045-.132.089-.265.133-.443.089-.265.133-.487.178-.708.044-.222.088-.532.177-.93-.044.442-.089.797-.133 1.107zm17.81 2.835l.487-3.145h-.177c-.355 0-.709.088-1.019.221-.31.133-.62.399-.975.71a3.763 3.763 0 00-1.285-.754c-.487-.133-1.107-.222-1.905-.222-2.436 0-4.075.754-5.006 2.26-.221.399-.443.797-.576 1.24-.133.443-.221.886-.221 1.285 0 .709.133 1.24.443 1.684.31.398.753.709 1.329.841-.133.089-.266.178-.355.266a1.367 1.367 0 00-.31.222c-.088.088-.221.177-.31.266-.133.088-.266.221-.443.354l-.088.089-.709.575c-.355.266-.488.532-.488.71 0 .177.089.354.222.531.133.177.31.354.532.487.221.133.487.266.841.355.355.088.665.177 1.019.221.266.045.576.045.798.045.266 0 .62 0 1.152.044.443 0 .708.044.886.044.177 0 .265.044.354.044.177.09.266.222.266.4 0 .575-.532.841-1.551.841-.487 0-.841-.044-1.019-.177-.221-.089-.31-.266-.31-.532v-.088-.09h-3.544c-.044.178-.044.267-.044.355v.31c0 .576.088 1.064.265 1.463.178.398.443.753.798.974.354.266.842.443 1.418.576.576.133 1.284.177 2.082.177 1.994 0 3.5-.398 4.519-1.152 1.019-.753 1.506-1.905 1.506-3.41 0-.887-.221-1.507-.664-1.862-.443-.354-1.197-.576-2.26-.576h-.797c-.532 0-.931-.044-1.152-.044-.222-.044-.399-.044-.532-.088l-.133-.133c-.044-.045-.044-.089-.044-.133 0-.045 0-.089.044-.178.044-.088.089-.132.133-.221.177.044.355.044.443.044h.31c1.684 0 2.969-.399 3.855-1.152.886-.753 1.329-1.86 1.329-3.322v-.266h.886v-.089zm-5.051 1.728c-.177.399-.443.576-.797.576-.443 0-.665-.266-.665-.842v-.044c0-.665.089-1.196.31-1.55.222-.355.488-.532.798-.532.399 0 .62.31.62.886 0 .62-.089 1.152-.266 1.506zm16.924-4.873h-.177c-.355 0-.709.088-1.019.221-.31.133-.62.399-.975.71a3.773 3.773 0 00-1.285-.754c-.487-.133-1.107-.222-1.905-.222-2.436 0-4.076.754-5.006 2.26-.221.399-.443.797-.576 1.24-.133.443-.221.886-.221 1.285 0 .709.133 1.24.443 1.684.31.398.753.709 1.329.841-.133.089-.266.178-.355.266-.088.089-.221.133-.31.222-.088.088-.221.177-.31.266-.133.088-.266.221-.443.354l-.089.089-.708.575c-.355.266-.532.532-.532.71 0 .177.089.354.221.531.133.177.311.354.532.487.222.133.487.266.842.355.354.088.664.177 1.019.221.266.045.576.045.797.045.266 0 .621 0 1.152.044.443 0 .709.044.886.044.177 0 .266.044.355.044.177.09.266.222.266.4 0 .575-.532.841-1.551.841-.487 0-.842-.044-1.019-.177-.222-.089-.31-.266-.31-.532v-.088-.09h-3.412c-.044.178-.044.267-.044.355v.31c0 .576.089 1.064.266 1.463.177.398.443.753.797.974.355.266.842.443 1.418.576.576.133 1.285.177 2.082.177 1.994 0 3.5-.398 4.519-1.152 1.019-.753 1.507-1.905 1.507-3.41 0-.887-.222-1.507-.665-1.862-.443-.354-1.196-.576-2.259-.576h-.798c-.532 0-.93-.044-1.152-.044-.221-.044-.398-.044-.487-.088l-.133-.133c-.044-.045-.044-.089-.044-.133 0-.045 0-.089.044-.178.044-.088.089-.132.133-.221.177.044.354.044.443.044h.31c1.684 0 2.968-.399 3.854-1.152.887-.753 1.33-1.86 1.33-3.322v-.266h.797l.443-3.234zm-5.494 4.873c-.177.399-.443.576-.797.576-.443 0-.665-.266-.665-.842v-.044c0-.665.089-1.196.311-1.55.221-.355.487-.532.797-.532.399 0 .62.31.62.886 0 .62-.088 1.152-.266 1.506zm13.336-4.829h-.266c-.399 0-.798.089-1.152.221-.354.133-.753.4-1.196.754l.088-.975-4.341.266-1.595 11.297h4.297l1.108-7.842c.31-.044.576-.088.797-.088h1.196c.178 0 .355.044.576.088l.842-3.632c-.177-.089-.266-.089-.354-.089zm9.879 4.475c0-1.551-.31-2.659-.974-3.412-.665-.709-1.684-1.063-3.102-1.063-.93 0-1.772.177-2.525.487-.753.355-1.418.798-1.949 1.418-.532.62-.931 1.33-1.241 2.17-.31.843-.443 1.817-.443 2.836 0 3.279 1.772 4.918 5.361 4.918.709 0 1.329-.044 1.949-.133.576-.089 1.196-.266 1.905-.487l-.266-2.836a7.41 7.41 0 01-2.082.31c-1.373 0-2.126-.443-2.259-1.373h5.272c.088-.31.133-.576.221-.842.045-.266.089-.487.133-.709.045-.221.045-.443.045-.664-.045-.133-.045-.355-.045-.62zm-3.81-.045c0 .133-.044.31-.044.488h-1.994c.089-.665.266-1.197.443-1.507a.935.935 0 01.798-.487c.221 0 .443.089.576.31.133.177.221.443.221.798.045.088 0 .265 0 .398zm16.215-4.474h-.177a2.63 2.63 0 00-1.019.221c-.31.133-.62.399-.975.71a3.768 3.768 0 00-1.284-.754c-.488-.133-1.108-.222-1.906-.222-2.436 0-4.075.754-5.006 2.26-.221.399-.443.797-.576 1.24-.133.443-.221.886-.221 1.285 0 .709.133 1.24.443 1.684.31.398.753.709 1.329.841-.133.089-.266.178-.355.266-.088.089-.221.133-.31.222-.088.088-.221.177-.31.266-.133.088-.266.221-.443.354l-.088.089-.709.575c-.355.266-.532.532-.532.71 0 .177.089.354.222.531.133.177.31.354.531.487.222.133.488.266.842.355.354.088.665.177 1.019.221.266.045.576.045.797.045.266 0 .621 0 1.152.044.443 0 .709.044.886.044.178 0 .266.044.355.044.177.09.266.222.266.4 0 .575-.532.841-1.551.841-.487 0-.842-.044-1.019-.177-.221-.089-.31-.266-.31-.532v-.088-.09h-3.411c-.045.178-.045.267-.045.355v.31c0 .576.089 1.064.266 1.463.177.398.443.753.798.974.354.266.841.443 1.417.576.576.133 1.285.177 2.083.177 1.993 0 3.499-.398 4.518-1.152 1.019-.753 1.507-1.905 1.507-3.41 0-.887-.222-1.507-.665-1.862-.443-.354-1.196-.576-2.259-.576h-.798c-.531 0-.93-.044-1.152-.044-.221-.044-.398-.044-.487-.088l-.133-.133c-.044-.045-.044-.089-.044-.133 0-.045 0-.089.044-.178.044-.088.089-.132.133-.221.177.044.354.044.443.044h.31c1.684 0 2.969-.399 3.855-1.152.886-.753 1.329-1.86 1.329-3.322v-.266h.797l.443-3.234zm-5.493 4.873c-.178.399-.443.576-.798.576-.443 0-.664-.266-.664-.842v-.044c0-.665.088-1.196.31-1.55.221-.355.487-.532.797-.532.399 0 .62.31.62.886 0 .62-.088 1.152-.265 1.506zm14.974-4.165c-.753-.442-1.861-.664-3.278-.664-.709 0-1.418.044-2.127.133-.709.088-1.506.266-2.392.532l.487 2.968c.532-.177.975-.266 1.373-.355a5.507 5.507 0 011.197-.133c.487 0 .841.09 1.063.222.266.133.399.31.399.576v.354l-.045.488a5.698 5.698 0 00-1.107-.266c-.355-.044-.709-.089-1.108-.089-.664 0-1.24.089-1.816.31a4.377 4.377 0 00-1.418.93 3.94 3.94 0 00-.93 1.419 4.674 4.674 0 00-.355 1.772c0 .974.266 1.727.798 2.26.531.53 1.24.797 2.171.797.531 0 1.019-.09 1.462-.266.443-.177.886-.488 1.373-.886l.133.886h4.031l1.064-7.576c.044-.266.088-.576.088-.798 0-.221.045-.443.045-.575.044-.975-.355-1.595-1.108-2.038zm-3.899 8.24h-.398c-.399 0-.709-.088-.931-.265a.798.798 0 01-.31-.664c0-.4.133-.71.443-.975a1.62 1.62 0 011.108-.399h.31l-.222 2.304zm11.874-10.588l-4.342.488-.222 1.462h-1.019l-.398 2.79 1.019.09-.842 5.892c-.044.221-.044.443-.044.664 0 .754.265 1.33.797 1.684.532.354 1.329.532 2.437.532.398 0 .709 0 1.019-.045.266-.044.62-.088 1.019-.177l.221-.044h.089l.399-2.791c-.178.088-.444.132-.754.132-.221 0-.398-.044-.531-.177s-.222-.265-.222-.487v-.177c0-.089.045-.222.045-.355l.664-4.563 1.551-.266.398-2.658h-1.55l.266-1.994zm10.765 2.792c-.664-.71-1.683-1.064-3.101-1.064-.93 0-1.772.177-2.525.488-.753.354-1.418.797-1.95 1.417-.531.62-.93 1.33-1.24 2.171-.31.842-.443 1.817-.443 2.836 0 3.278 1.772 4.917 5.361 4.917.708 0 1.329-.044 1.949-.133.576-.088 1.196-.265 1.905-.487l-.266-2.835a7.416 7.416 0 01-2.082.31c-1.373 0-2.127-.443-2.26-1.374h5.273c.088-.31.132-.576.221-.841.044-.266.089-.488.133-.71.044-.22.044-.442.044-.664v-.709c-.044-1.506-.398-2.614-1.019-3.322zm-2.835 3.322c0 .133-.044.31-.044.488h-1.994c.089-.665.266-1.197.443-1.507a.933.933 0 01.797-.487c.222 0 .443.089.576.31.133.177.222.443.222.798.044.088 0 .265 0 .398z" fill="#222931"/><defs><linearGradient id="epaint0_linear_37_490" x1="14.515" y1="33.705" x2="2.992" y2="28.564" gradientUnits="userSpaceOnUse"><stop stop-color="#3BC2D5"/><stop offset="1" stop-color="#5377AD"/></linearGradient><linearGradient id="epaint1_linear_37_490" x1="24.275" y1="37.083" x2="12.381" y2="41.295" gradientUnits="userSpaceOnUse"><stop stop-color="#3BC2D5"/><stop offset="1" stop-color="#5377AD"/></linearGradient><linearGradient id="epaint2_linear_37_490" x1="8.866" y1="45.34" x2="47.79" y2="26.241" gradientUnits="userSpaceOnUse"><stop offset=".296" stop-color="#5377AD"/><stop offset=".578" stop-color="#3BC2D5"/></linearGradient><linearGradient id="epaint3_linear_37_490" x1="33.814" y1="23.5" x2="46.432" y2="23.5" gradientUnits="userSpaceOnUse"><stop stop-color="#5377AD"/><stop offset="1" stop-color="#3BC2D5"/></linearGradient><linearGradient id="epaint4_linear_37_490" x1="39.585" y1="17.079" x2="30.068" y2="6.636" gradientUnits="userSpaceOnUse"><stop stop-color="#3BC2D5"/><stop offset=".68" stop-color="#5377AD"/></linearGradient><linearGradient id="epaint5_linear_37_490" x1="23.391" y1="13.294" x2="18.265" y2="1.763" gradientUnits="userSpaceOnUse"><stop stop-color="#3BC2D5"/><stop offset="1" stop-color="#5377AD"/></linearGradient><linearGradient id="epaint6_linear_37_490" x1="36.627" y1="11.892" x2="-.691" y2="11.892" gradientUnits="userSpaceOnUse"><stop stop-color="#3BC2D5"/><stop offset="1" stop-color="#5377AD"/></linearGradient><linearGradient id="epaint7_linear_37_490" x1="12.621" y1="15.368" x2=".003" y2="15.368" gradientUnits="userSpaceOnUse"><stop stop-color="#3BC2D5"/><stop offset="1" stop-color="#5377AD"/></linearGradient></defs></svg><svg width="146" height="96" fill="none" viewBox="0 0 146 96" id="logo-footer" x="337" y="257" xmlns="http://www.w3.org/2000/svg"><path d="M8.587 78.1l-.7 5.2h-1.6l.7-5.2h-4.6l-2 13.8h4.6l.8-5.6h1.7l-.8 5.6h4.6l1.9-13.8h-4.6zm10.9 3.6l-1.5 4.5c-.1.2-.1.4-.2.6-.1.2-.1.3-.1.4 0 .1-.1.3-.1.4 0 .1-.1.3-.1.5v-1-.7-.3l-.2-4.8-4.1.3 1 10.2h1.9l-.1.2c-.1.3-.2.4-.5.6-.3.1-.6.2-.9.2-.2 0-.5 0-.7-.1-.2 0-.5-.1-.9-.2l-1.1 2.6c.6.2 1.2.3 1.7.4.5.1 1 .1 1.5.1s1-.1 1.4-.2c.4-.1.8-.3 1.1-.5.3-.2.6-.6.9-1 .3-.4.5-.9.7-1.5l4.3-10.8h-4v.1zm10.5-3.5l-.5 3.8c-.3-.2-.6-.3-.9-.4-.3-.1-.6-.1-.9-.1-.7 0-1.3.2-1.8.5-.6.4-1.1.8-1.5 1.4-.4.6-.7 1.3-1 2.1-.2.8-.4 1.7-.4 2.6 0 1.3.3 2.3.8 3 .5.7 1.3 1.1 2.2 1.1.4 0 .7-.1 1-.2.3-.1.7-.3 1.2-.6l-.1.5h3.8l2-14.1-3.9.4zm-1.5 10.7h-.2c-.4 0-.8-.1-.9-.3-.2-.2-.3-.5-.3-1 0-.2 0-.5.1-.7.1-.2.1-.5.2-.7.1-.2.1-.4.2-.6.1-.2.2-.3.3-.4.1-.1.3-.2.5-.3.2-.1.4-.1.7-.1h.1l-.7 4.1zm12.5-7.4h-.2c-.4 0-.7.1-1.1.2-.3.1-.7.4-1.1.7l.1-.9-3.9.3-1.4 10.2h3.9l1-7.1c.3-.1.5-.1.7-.1h1c.2 0 .3 0 .5.1l.8-3.3c-.1-.1-.2-.1-.3-.1zm5.3 0c-1.9 0-3.4.6-4.2 1.7-.7.9-1.1 2.1-1.3 3.7-.1.4-.1.7-.1 1V88.8c0 1.1.4 2 1.1 2.5.7.5 1.7.8 3.1.8 1 0 1.8-.1 2.5-.4.7-.3 1.3-.7 1.8-1.3.3-.4.6-.9.8-1.5.2-.6.4-1.3.5-2.2 0-.3.1-.6.1-.9v-.9c-.1-2.2-1.5-3.4-4.3-3.4zm.2 4.5v.4c0 .2 0 .3-.1.5 0 .2 0 .4-.1.5-.1.1 0 .3-.1.4-.1.7-.2 1.2-.4 1.5-.2.3-.4.4-.7.4-.4 0-.6-.3-.6-1v-.4c0-.1 0-.3.1-.5v-.4c0-.1 0-.3.1-.5 0-.2.1-.4.1-.5 0-.1.1-.3.1-.3.1-.7.3-1.2.4-1.5.2-.3.4-.4.7-.4.2 0 .3.1.5.3.1.2.2.4.2.7-.1.1-.2.4-.2.8z" fill="#9AA5B0"/><path d="M51.587 85.3l-.4 2.7h5.8l.4-2.7h-5.8zm10.7-7.2l-5.3 13.8h4.6l1-3h2.2l.1 3h4.6l-1.4-13.8h-5.8zm2.5 3.6V83l.1 2.8h-1.4l.9-2.8c.1-.2.1-.3.1-.4 0-.1.1-.3.1-.4.1-.2.1-.5.2-.7 0-.2.1-.5.2-.8-.2.4-.2.8-.2 1zm16 2.6l.4-2.9h-.2c-.3 0-.6.1-.9.2-.3.1-.6.3-.9.6-.3-.3-.7-.5-1.2-.7-.4-.1-1-.2-1.7-.2-2.2 0-3.7.7-4.5 2-.2.4-.4.7-.5 1.1-.1.4-.2.8-.2 1.2 0 .6.1 1.1.4 1.5.3.4.7.6 1.2.8-.1.1-.2.2-.3.2-.1.1-.2.1-.3.2-.1.1-.2.1-.3.2-.1.1-.2.2-.4.3l-.1.1-.7.5c-.3.3-.5.5-.5.6 0 .2.1.3.2.5s.3.3.5.4c.2.1.5.2.7.3.3.1.6.2.9.2h2.8c.2.1.2.2.2.4 0 .5-.5.8-1.4.8-.4 0-.7 0-.9-.1-.2-.1-.3-.3-.3-.5v-.2h-3.1v.6c0 .5.1.9.2 1.3.2.4.4.7.7.9.3.2.8.4 1.3.5.5.1 1.1.2 1.9.2 1.8 0 3.2-.3 4.1-1 .9-.7 1.4-1.7 1.4-3.1 0-.8-.2-1.4-.6-1.7-.4-.3-1.1-.5-2-.5h-.7c-.5 0-.8 0-1-.1-.2 0-.4-.1-.5-.1-.1 0-.1-.1-.1-.1l-.1-.1s0-.1.1-.2c0-.1.1-.1.1-.2h.7c1.5 0 2.7-.3 3.5-1 .8-.7 1.2-1.7 1.2-3V84h.9v.3zm-4.5 1.6c-.2.3-.4.5-.7.5-.4 0-.6-.2-.6-.7v-.1c0-.6.1-1.1.3-1.4.2-.3.4-.5.7-.5.4 0 .6.3.6.8-.1.6-.2 1-.3 1.4zm15.2-4.4h-.2c-.3 0-.6.1-.9.2-.3.1-.6.3-.9.6-.3-.3-.7-.5-1.2-.7-.4-.1-1-.2-1.7-.2-2.2 0-3.7.7-4.5 2-.2.4-.4.7-.5 1.1-.1.4-.2.8-.2 1.2 0 .6.1 1.1.4 1.5.3.4.7.6 1.2.8-.1.1-.2.2-.3.2-.1.1-.2.1-.3.2-.1.1-.2.1-.3.2-.1.1-.2.2-.4.3l-.1.1-.7.5c-.3.3-.5.5-.5.6 0 .2.1.3.2.5s.3.3.5.4c.2.1.5.2.7.3.3.1.6.2.9.2h2.8c.2.1.2.2.2.4 0 .5-.5.8-1.4.8-.4 0-.7 0-.9-.1-.2-.1-.3-.3-.3-.5v-.2h-3.1v.6c0 .5.1.9.2 1.3.2.4.4.7.7.9.3.2.8.4 1.3.5.5.1 1.1.2 1.9.2 1.8 0 3.2-.3 4.1-1 .9-.7 1.4-1.7 1.4-3.1 0-.8-.2-1.4-.6-1.7-.4-.3-1.1-.5-2-.5h-.7c-.5 0-.8 0-1-.1-.2 0-.4-.1-.5-.1-.1 0-.1-.1-.1-.1l-.1-.1s0-.1.1-.2c0-.1.1-.1.1-.2h.7c1.5 0 2.7-.3 3.5-1 .8-.7 1.2-1.7 1.2-3v-.2h.7l.6-2.6zm-4.9 4.4c-.2.3-.4.5-.7.5-.4 0-.6-.2-.6-.7v-.1c0-.6.1-1.1.3-1.4.2-.3.4-.5.7-.5.4 0 .6.3.6.8-.1.6-.2 1-.3 1.4zm12-4.4h-.2c-.4 0-.7.1-1.1.2-.3.1-.7.4-1.1.7l.1-.9-3.9.3-1.4 10.2h3.9l1-7.1c.3-.1.5-.1.7-.1h1c.2 0 .3 0 .5.1l.8-3.3c-.1-.1-.2-.1-.3-.1zm8.9 4c0-1.4-.3-2.4-.9-3.1-.6-.7-1.5-1-2.8-1-.8 0-1.6.2-2.3.5-.7.3-1.3.7-1.8 1.3-.5.5-.9 1.2-1.1 2-.3.8-.4 1.6-.4 2.6 0 2.9 1.6 4.4 4.8 4.4.6 0 1.2 0 1.7-.1s1.1-.2 1.7-.4l-.2-2.5c-.7.2-1.3.3-1.9.3-1.3 0-1.9-.4-2-1.2h4.8c.1-.3.1-.5.2-.8 0-.2.1-.4.1-.6 0-.2 0-.4.1-.6v-.8zm-3.4 0c0 .1 0 .3-.1.4h-1.8c.1-.6.2-1.1.4-1.4.2-.3.4-.4.7-.4.2 0 .4.1.5.3.1.2.2.4.2.7.1.1.1.3.1.4zm14.6-4h-.2c-.3 0-.6.1-.9.2-.3.1-.6.3-.9.6-.3-.3-.7-.5-1.2-.7-.4-.1-1-.2-1.7-.2-2.2 0-3.7.7-4.5 2-.2.4-.4.7-.5 1.1-.1.4-.2.8-.2 1.2 0 .6.1 1.1.4 1.5.3.4.7.6 1.2.8-.1.1-.2.2-.3.2-.1.1-.2.1-.3.2-.1.1-.2.1-.3.2-.1.1-.2.2-.4.3l-.1.1-.7.5c-.3.3-.5.5-.5.6 0 .2.1.3.2.5s.3.3.5.4c.2.1.5.2.7.3.3.1.6.2.9.2h2.8c.2.1.2.2.2.4 0 .5-.5.8-1.4.8-.4 0-.7 0-.9-.1-.2-.1-.3-.3-.3-.5v-.2h-2.8v.6c0 .5.1.9.2 1.3.2.4.4.7.7.9.3.2.8.4 1.3.5.5.1 1.1.2 1.9.2 1.8 0 3.2-.3 4.1-1 .9-.7 1.4-1.7 1.4-3.1 0-.8-.2-1.4-.6-1.7-.4-.3-1.1-.5-2-.5h-.7c-.5 0-.8 0-1-.1-.2 0-.4-.1-.5-.1-.1 0-.1-.1-.1-.1l-.1-.1s0-.1.1-.2c0-.1.1-.1.1-.2h.7c1.5 0 2.7-.3 3.5-1 .8-.7 1.2-1.7 1.2-3v-.2h.7l.3-2.6zm-4.9 4.4c-.2.3-.4.5-.7.5-.4 0-.6-.2-.6-.7v-.1c0-.6.1-1.1.3-1.4.2-.3.4-.5.7-.5.4 0 .6.3.6.8-.1.6-.2 1-.3 1.4zm13.5-3.8c-.7-.4-1.7-.6-2.9-.6-.7 0-1.3 0-1.9.1-.6.1-1.4.2-2.2.5l.4 2.7c.5-.1.9-.2 1.2-.3.4-.1.7-.1 1.1-.1.4 0 .7.1 1 .2.2.1.3.3.3.5V85.4l-.1.4c-.3-.1-.7-.2-1-.2-.3-.1-.7-.1-1-.1-.6 0-1.1.1-1.6.3-.5.2-.9.5-1.3.8-.4.4-.6.8-.8 1.3-.2.5-.3 1-.3 1.6 0 .9.2 1.5.7 2 .5.5 1.1.7 2 .7.5 0 .9-.1 1.3-.2.4-.2.8-.4 1.2-.8l.1.8h3.6l1-6.8c0-.3.1-.5.1-.7V84c.1-.9-.2-1.5-.9-1.9zm-3.6 7.4H123.387c-.4 0-.6-.1-.8-.2-.2-.2-.3-.4-.3-.6 0-.4.1-.7.4-.9.3-.2.6-.3 1-.3H123.987l-.3 2zm10.8-9.5l-3.9.4-.2 1.3h-.9l-.3 2.5.9.1-.7 5.3c0 .2-.1.4-.1.6 0 .7.2 1.2.7 1.5.5.3 1.2.5 2.2.5.3 0 .6 0 .9-.1.3 0 .6-.1.9-.2H134.287l.3-2.5c-.2.1-.4.1-.7.1-.2 0-.4-.1-.5-.2-.1-.1-.2-.3-.2-.4v-.2-.3l.6-4.1 1.4-.2.3-2.4h-1.4l.4-1.7zm9.7 2.5c-.6-.7-1.5-1-2.8-1-.8 0-1.6.2-2.3.5-.7.3-1.3.7-1.8 1.3-.5.5-.9 1.2-1.1 2-.3.8-.4 1.6-.4 2.6 0 2.9 1.6 4.4 4.8 4.4.6 0 1.2 0 1.7-.1s1.1-.2 1.7-.4l-.2-2.5c-.7.2-1.3.3-1.9.3-1.3 0-1.9-.4-2-1.2h4.8c.1-.3.1-.5.2-.8 0-.2.1-.4.1-.6 0-.2 0-.4.1-.6v-.6c0-1.7-.3-2.7-.9-3.3zm-2.6 3c0 .1 0 .3-.1.4h-1.8c.1-.6.2-1.1.4-1.4.2-.3.4-.4.7-.4.2 0 .4.1.5.3.1.2.2.4.2.7.2.1.1.3.1.4z" fill="#848585"/><path d="M38.187 33.9c0 9.3 3.8 17.8 9.9 23.9 6.1 6.1 14.6 9.9 23.9 9.9 3.6 0 7.1-.6 10.4-1.6l-42.6-42.6c-1 3.3-1.6 6.8-1.6 10.4z" fill="url(#fpaint0_linear_37_517)"/><path d="M102.187 49.3h-60.3c5.6 10.9 17 18.4 30.1 18.4 13.1 0 24.5-7.5 30.2-18.4z" fill="url(#fpaint1_linear_37_517)"/><path d="M105.887 33.9c0-3.6-.6-7.1-1.6-10.4l-42.6 42.6c3.3 1.1 6.8 1.6 10.4 1.6 9.3 0 17.8-3.8 23.9-9.9 6.1-6.1 9.9-14.6 9.9-23.9z" fill="url(#fpaint2_linear_37_517)"/><path d="M87.487 3.8V64c10.9-5.6 18.4-17 18.4-30.1 0-13.1-7.5-24.5-18.4-30.1z" fill="url(#fpaint3_linear_37_517)"/><path d="M95.987 9.9c-6.1-6.1-14.6-9.9-23.9-9.9-3.6 0-7.1.6-10.4 1.6l42.6 42.6c1.1-3.3 1.6-6.8 1.6-10.4 0-9.3-3.8-17.7-9.9-23.9z" fill="url(#fpaint4_linear_37_517)"/><path d="M71.987 0c-13.1 0-24.5 7.5-30.1 18.4h60.2C96.487 7.5 85.187 0 71.987 0z" fill="url(#fpaint5_linear_37_517)"/><path d="M82.387 1.7c-3.3-1.1-6.8-1.6-10.4-1.6-15.1 0-27.8 9.9-32.2 23.5l10.4 10.4 32.2-32.3z" fill="url(#fpaint6_linear_37_517)"/><path d="M56.587 3.8c-7.9 4.1-14 11.2-16.8 19.7l16.8 16.8V3.8z" fill="url(#fpaint7_linear_37_517)"/><defs><linearGradient id="fpaint0_linear_37_517" x1="59.342" y1="48.754" x2="42.541" y2="41.259" gradientUnits="userSpaceOnUse"><stop stop-color="#A1B4C2"/><stop offset="1" stop-color="#697D8E"/></linearGradient><linearGradient id="fpaint1_linear_37_517" x1="73.574" y1="53.678" x2="56.232" y2="59.82" gradientUnits="userSpaceOnUse"><stop stop-color="#A1B4C2"/><stop offset="1" stop-color="#697D8E"/></linearGradient><linearGradient id="fpaint2_linear_37_517" x1="51.106" y1="65.72" x2="107.855" y2="37.874" gradientUnits="userSpaceOnUse"><stop offset=".296" stop-color="#697D8E"/><stop offset=".578" stop-color="#A1B4C2"/></linearGradient><linearGradient id="fpaint3_linear_37_517" x1="87.481" y1="33.875" x2="105.878" y2="33.875" gradientUnits="userSpaceOnUse"><stop stop-color="#697D8E"/><stop offset="1" stop-color="#A1B4C2"/></linearGradient><linearGradient id="fpaint4_linear_37_517" x1="95.895" y1="24.515" x2="82.019" y2="9.29" gradientUnits="userSpaceOnUse"><stop stop-color="#A1B4C2"/><stop offset=".68" stop-color="#697D8E"/></linearGradient><linearGradient id="fpaint5_linear_37_517" x1="72.284" y1="18.995" x2="64.81" y2="2.185" gradientUnits="userSpaceOnUse"><stop stop-color="#A1B4C2"/><stop offset="1" stop-color="#697D8E"/></linearGradient><linearGradient id="fpaint6_linear_37_517" x1="91.582" y1="16.952" x2="37.175" y2="16.952" gradientUnits="userSpaceOnUse"><stop stop-color="#A1B4C2"/><stop offset="1" stop-color="#697D8E"/></linearGradient><linearGradient id="fpaint7_linear_37_517" x1="56.583" y1="22.019" x2="38.186" y2="22.019" gradientUnits="userSpaceOnUse"><stop stop-color="#A1B4C2"/><stop offset="1" stop-color="#697D8E"/></linearGradient></defs></svg><svg width="321" height="68" fill="none" viewBox="0 0 321 68" id="logo-inner" y="189" xmlns="http://www.w3.org/2000/svg"><g clip-path="url(#gclip0_40_1218)"><path d="M101.098 22.58l-1.159 8.352h-2.55l1.16-8.352h-7.42L88 44.852h7.418l1.275-8.932h2.666l-1.274 8.932h7.418l3.13-22.272h-7.535zm52.161 5.452h-.348c-.579 0-1.159.116-1.738.348-.58.232-1.159.58-1.739 1.044l.116-1.392-6.259.464-2.319 16.472h6.26l1.622-11.484c.464-.116.812-.116 1.16-.116h1.738c.232 0 .58.116.812.116l1.275-5.336c-.348-.116-.464-.116-.58-.116zm-17.735-5.336l-.811 6.148c-.58-.232-1.043-.464-1.507-.58-.464-.116-.927-.232-1.507-.232-1.043 0-1.97.232-2.898.812a7.387 7.387 0 00-2.318 2.32c-.695.928-1.159 2.088-1.623 3.48a15.83 15.83 0 00-.579 4.176c0 2.088.463 3.596 1.275 4.756.811 1.16 2.086 1.74 3.477 1.74a4.65 4.65 0 001.739-.348c.58-.232 1.159-.58 1.855-1.044l-.116.812h6.143L141.9 22l-6.376.696zm-2.434 17.4h-.348c-.695 0-1.275-.116-1.506-.464-.232-.348-.464-.812-.464-1.624 0-.348 0-.812.116-1.16.116-.348.116-.812.232-1.16.116-.348.231-.696.347-.928.116-.232.232-.464.464-.696.232-.232.464-.348.696-.464.231-.116.579-.116 1.043-.116h.232l-.812 6.612zm-14.373-11.6l-2.434 7.192c-.116.348-.232.696-.348.928-.116.232-.116.464-.232.696-.116.232-.116.464-.116.696 0 .232-.116.464-.116.812v-1.508-1.16-.464l-.347-7.656-6.607.464 1.622 16.472h3.014l-.116.348c-.116.464-.348.696-.811.928a3.207 3.207 0 01-1.507.348c-.348 0-.811 0-1.159-.116a12.067 12.067 0 00-1.391-.348l-1.739 4.176c1.043.232 1.971.464 2.782.58.811.116 1.623.116 2.434.116.928 0 1.623-.116 2.319-.232.695-.116 1.275-.464 1.738-.812.464-.348.928-.928 1.391-1.624.464-.696.812-1.508 1.159-2.436l6.839-17.4h-6.375zm43.12-.464c-3.13 0-5.448.928-6.839 2.668-1.159 1.392-1.855 3.364-2.087 5.916-.116.696-.116 1.16-.116 1.624v1.508c0 1.856.58 3.248 1.739 4.06 1.159.928 2.782 1.276 4.984 1.276 1.623 0 2.898-.232 4.057-.696 1.159-.464 2.087-1.16 2.782-2.088.58-.696.928-1.508 1.275-2.436.348-.928.58-2.088.812-3.596.116-.464.116-.928.116-1.508 0-.464.116-.928.116-1.392-.116-3.48-2.319-5.336-6.839-5.336zm.231 7.308c0 .116 0 .348-.115.58 0 .232-.116.464-.116.812 0 .348-.116.58-.116.812 0 .232-.116.464-.116.58-.116 1.16-.348 1.856-.696 2.32-.231.464-.695.696-1.043.696-.695 0-1.043-.58-1.043-1.624v-.696c0-.232 0-.464.116-.812 0-.232 0-.464.116-.696 0-.232 0-.464.116-.812 0-.348.116-.58.116-.812 0-.232.115-.464.115-.58.232-1.16.464-1.856.696-2.32.232-.464.58-.696 1.043-.696.348 0 .58.116.696.464.231.232.231.696.231 1.16.116.464.116 1.044 0 1.624zm8.23-1.044l-.579 4.408h9.389l.579-4.408h-9.389zm133.764-8.7l-6.375.696-.348 2.088h-1.507l-.579 4.06 1.506.116-1.159 8.584c-.116.348-.116.696-.116.928 0 1.16.348 1.972 1.16 2.436.811.464 1.97.812 3.593.812.579 0 1.043 0 1.507-.116.463-.116.927-.116 1.507-.232l.347-.116h.116l.58-4.06a2.77 2.77 0 01-1.043.232c-.348 0-.58-.116-.812-.232-.232-.232-.348-.464-.348-.696v-.232c0-.116 0-.348.116-.58l.928-6.612 2.202-.348.58-3.828h-2.203l.348-2.9zm-25.501 2.436h-.232a3.21 3.21 0 00-1.507.348c-.463.232-.927.58-1.391 1.044-.579-.464-1.159-.812-1.854-1.044-.696-.232-1.623-.348-2.782-.348-3.477 0-5.912 1.044-7.303 3.248-.347.58-.579 1.16-.811 1.856a5.254 5.254 0 00-.348 1.856c0 1.044.232 1.856.696 2.436.463.58 1.043 1.044 1.97 1.276-.232.116-.347.232-.579.348-.116.116-.348.232-.464.348-.116.116-.348.232-.464.348-.231.116-.347.348-.695.464l-.116.116-1.043.812c-.464.464-.696.696-.696 1.044 0 .232.116.58.348.812.232.232.464.464.811.696.348.232.696.348 1.16.58.463.232.927.232 1.506.348.464 0 .812.116 1.16.116H268.824c.232 0 .348 0 .464.116a.638.638 0 01.348.58c0 .812-.696 1.276-2.203 1.276a4.531 4.531 0 01-1.506-.232c-.348-.116-.464-.464-.464-.812v-.232h-4.984c0 .232-.116.348-.116.58v.464c0 .812.116 1.508.347 2.088.232.58.696 1.044 1.16 1.392.579.348 1.275.696 2.086.812.811.232 1.855.232 3.014.232 2.898 0 5.1-.58 6.607-1.74 1.507-1.16 2.202-2.784 2.202-4.988 0-1.276-.348-2.204-.927-2.668-.696-.58-1.739-.812-3.362-.812h-1.159c-.811 0-1.391 0-1.623-.116-.347 0-.579-.116-.695-.116-.116 0-.116-.116-.232-.116-.116-.116-.116-.116-.116-.232s0-.116.116-.232.116-.232.232-.348c.232 0 .464.116.58.116h.463c2.434 0 4.289-.58 5.564-1.624 1.275-1.044 1.971-2.668 1.971-4.872v-.348h1.159l.811-4.872zm-7.998 7.076c-.232.58-.695.812-1.159.812-.696 0-.927-.348-.927-1.16v-.116c0-1.044.116-1.74.463-2.32.348-.58.696-.812 1.159-.812.58 0 .928.464.928 1.276 0 1.044-.232 1.74-.464 2.32zM187.685 22.58l-8.577 22.272h7.418l1.623-4.872h3.593l.116 4.872h7.419l-2.203-22.272h-9.389zm3.941 5.8V30.584l.116 4.524h-2.202l1.391-4.524c.116-.232.116-.464.232-.696 0-.232.116-.464.116-.58.115-.348.231-.696.231-1.044.116-.348.116-.812.232-1.392-.116.58-.116 1.16-.116 1.508zm127.968 1.276c-.927-1.044-2.434-1.624-4.52-1.624-1.391 0-2.55.232-3.709.696-1.16.464-2.087 1.16-2.782 2.088-.812.928-1.391 1.972-1.855 3.132-.464 1.276-.58 2.668-.58 4.176 0 4.756 2.551 7.192 7.767 7.192 1.043 0 1.97-.116 2.782-.232.811-.116 1.738-.348 2.781-.696l-.347-4.06c-1.044.348-2.087.464-3.014.464-1.971 0-3.13-.696-3.362-1.972h7.651c.116-.464.232-.812.347-1.276.116-.348.116-.696.116-1.044 0-.348.116-.696.116-.928v-1.044c.116-2.204-.463-3.828-1.391-4.872zm-4.057 4.872c0 .232 0 .464-.116.696h-2.897c.116-1.044.347-1.74.695-2.204.348-.464.696-.696 1.159-.696.348 0 .58.116.812.464.231.232.347.696.347 1.16v.58zm-23.182-5.568c-1.043-.696-2.666-.928-4.753-.928-1.043 0-2.086.116-3.129.232-1.044.116-2.203.348-3.478.696l.696 4.292c.811-.232 1.391-.348 1.97-.464.58-.116 1.159-.116 1.739-.116.695 0 1.159.116 1.623.348.348.232.579.464.579.812v.58l-.116.696c-.579-.232-1.043-.348-1.622-.348-.58-.116-1.044-.116-1.623-.116-.927 0-1.855.116-2.666.464a9.092 9.092 0 00-2.087 1.276 6.597 6.597 0 00-1.391 2.088c-.347.812-.463 1.624-.463 2.552 0 1.392.348 2.436 1.159 3.248.811.812 1.855 1.16 3.13 1.16.811 0 1.506-.116 2.202-.348.695-.232 1.275-.696 1.97-1.276l.232 1.276h5.912l1.507-11.02c.116-.464.116-.812.116-1.16v-.812c.116-1.508-.348-2.436-1.507-3.132zm-5.68 12.064h-.58c-.579 0-1.043-.116-1.275-.348-.347-.232-.463-.58-.463-1.044 0-.58.232-1.044.695-1.392.464-.348.928-.58 1.623-.58h.464l-.464 3.364zm-51.929-12.992h-.232a3.21 3.21 0 00-1.507.348c-.463.232-.927.58-1.391 1.044-.579-.464-1.159-.812-1.854-1.044-.696-.232-1.623-.348-2.782-.348-3.478 0-5.912 1.044-7.303 3.248-.347.58-.579 1.16-.811 1.856a5.254 5.254 0 00-.348 1.856c0 1.044.232 1.856.696 2.436.463.58 1.043 1.044 1.97 1.276-.232.116-.348.232-.579.348-.116.116-.348.232-.464.348-.116.116-.348.232-.464.348-.232.116-.347.348-.695.464l-.116.116-1.043.812c-.464.464-.696.696-.696 1.044 0 .232.116.58.348.812.232.232.464.464.811.696.348.232.696.348 1.159.58.464.116.928.232 1.507.348.464 0 .812.116 1.159.116H225.009c.232 0 .348 0 .464.116a.638.638 0 01.348.58c0 .812-.696 1.276-2.203 1.276a4.543 4.543 0 01-1.507-.232c-.347-.116-.463-.464-.463-.812v-.232h-4.984c0 .232-.116.348-.116.58v.464c0 .812.116 1.508.347 2.088.232.58.696 1.044 1.159 1.392.58.348 1.276.696 2.087.812.811.232 1.855.232 3.014.232 2.897 0 5.1-.58 6.607-1.74 1.507-1.16 2.202-2.784 2.202-4.988 0-1.276-.348-2.204-.927-2.668-.696-.58-1.739-.812-3.362-.812h-1.159c-.811 0-1.391 0-1.623-.116-.347 0-.579-.116-.695-.116-.116 0-.116-.116-.232-.116-.116-.116-.116-.116-.116-.232s0-.116.116-.232.116-.232.232-.348c.232 0 .464.116.579.116h.464c2.434 0 4.289-.58 5.564-1.624 1.275-1.044 1.97-2.668 1.97-4.872v-.348H233.935l.811-4.872zm-7.998 7.076c-.232.58-.696.812-1.159.812-.696 0-.927-.348-.927-1.16v-.116c0-1.044.115-1.74.463-2.32.348-.58.696-.812 1.159-.812.58 0 .928.464.928 1.276-.116 1.044-.232 1.74-.464 2.32zm-9.273-2.552l.695-4.64h-.231c-.58 0-1.044.116-1.507.348-.464.232-.928.58-1.391 1.044-.58-.464-1.159-.812-1.855-1.044-.695-.232-1.623-.348-2.782-.348-3.477 0-5.911 1.044-7.302 3.248-.348.58-.58 1.16-.812 1.856a5.252 5.252 0 00-.347 1.856c0 1.044.231 1.856.695 2.436.464.58 1.043 1.044 1.971 1.276-.232.116-.348.232-.58.348-.116.116-.348.232-.464.348-.116.116-.347.232-.463.348-.232.116-.348.348-.696.464l-.116.116-1.043.812c-.464.464-.695.696-.695 1.044 0 .232.116.58.347.812.232.232.464.464.812.696.347.232.695.348 1.159.58.464.116.927.232 1.507.348.463 0 .811.116 1.159.116H208.434c.232 0 .347 0 .463.116a.638.638 0 01.348.58c0 .812-.695 1.276-2.202 1.276a4.538 4.538 0 01-1.507-.232c-.348-.116-.464-.464-.464-.812v-.232h-4.984c0 .232-.116.348-.116.58v.464c0 .812.116 1.508.348 2.088.232.58.695 1.044 1.159 1.392.579.348 1.275.696 2.086.812.812.232 1.855.232 3.014.232 2.898 0 5.1-.58 6.607-1.74 1.507-1.16 2.202-2.784 2.202-4.988 0-1.276-.347-2.204-.927-2.668-.695-.58-1.739-.812-3.361-.812h-1.159c-.812 0-1.391 0-1.623-.116-.348 0-.58-.116-.696-.116-.116 0-.116-.116-.232-.116-.115-.116-.115-.116-.115-.232s0-.116.115-.232c.116-.116.116-.232.232-.348.232 0 .464.116.58.116h.464c2.434 0 4.288-.58 5.563-1.624 1.275-1.044 1.971-2.668 1.971-4.872v-.348H217.475v-.232zm-7.419 2.552c-.231.58-.695.812-1.159.812-.695 0-.927-.348-.927-1.16v-.116c0-1.044.116-1.74.464-2.32.347-.58.695-.812 1.159-.812.579 0 .927.464.927 1.276 0 1.044-.116 1.74-.464 2.32zm36.049-7.076h-.347a4.65 4.65 0 00-1.739.348c-.58.232-1.159.58-1.739 1.044l.116-1.392-6.259.464-2.318 16.472h6.259l1.623-11.484c.463-.116.811-.116 1.159-.116h1.739c.231 0 .579.116.811.116l1.275-5.336c-.232-.116-.464-.116-.58-.116zm14.374 6.612c0-2.204-.464-3.944-1.391-4.988-.928-1.044-2.434-1.624-4.521-1.624-1.391 0-2.55.232-3.709.696-1.159.464-2.087 1.16-2.782 2.088-.811.928-1.391 1.972-1.855 3.132-.463 1.276-.579 2.668-.579 4.176 0 4.756 2.55 7.192 7.766 7.192 1.043 0 1.97-.116 2.782-.232.811-.116 1.739-.348 2.782-.696l-.348-4.06c-1.043.348-2.086.464-3.014.464-1.97 0-3.129-.696-3.361-1.972h7.65c.116-.464.232-.812.348-1.276.116-.348.116-.696.116-1.044 0-.348.116-.696.116-.928v-.928zm-5.448-.116c0 .232 0 .464-.116.696h-2.898c.116-1.044.348-1.74.695-2.204.348-.464.696-.696 1.16-.696.347 0 .579.116.811.464.232.232.348.696.348 1.16v.58z" fill="#fff"/><path d="M0 34c0 9.4 3.8 17.8 9.9 24 6.1 6.1 14.6 9.9 24 9.9 3.6 0 7.1-.6 10.4-1.6L1.7 23.7C.6 26.9 0 30.4 0 34z" fill="url(#gpaint0_linear_40_1218)"/><path d="M64 49.5H3.7c5.6 10.9 17 18.4 30.1 18.4 13.2 0 24.6-7.5 30.2-18.4z" fill="url(#gpaint1_linear_40_1218)"/><path d="M67.8 34c0-3.6-.6-7.1-1.6-10.4L23.6 66.2c3.3 1.1 6.8 1.6 10.4 1.6 9.4 0 17.8-3.8 24-9.9 6-6.1 9.8-14.5 9.8-23.9z" fill="url(#gpaint2_linear_40_1218)"/><path d="M49.4 3.9v60.3c10.9-5.6 18.4-17 18.4-30.1 0-13.1-7.5-24.6-18.4-30.2z" fill="url(#gpaint3_linear_40_1218)"/><path d="M57.9 10C51.8 3.9 43.3.1 33.9.1c-3.6 0-7.1.6-10.4 1.6l42.6 42.6c1.1-3.3 1.6-6.8 1.6-10.4.1-9.3-3.7-17.7-9.8-23.9z" fill="url(#gpaint4_linear_40_1218)"/><path d="M33.9.1C20.8.1 9.4 7.6 3.8 18.5H64C58.4 7.6 47 .1 33.9.1z" fill="url(#gpaint5_linear_40_1218)"/><path d="M44.3 1.8C41 .7 37.5.2 33.9.2 18.8.2 6 10.1 1.7 23.7L12 34 44.3 1.8z" fill="url(#gpaint6_linear_40_1218)"/><path d="M18.5 3.9C10.6 8 4.5 15.1 1.7 23.7l16.8 16.8V3.9z" fill="url(#gpaint7_linear_40_1218)"/></g><defs><linearGradient id="gpaint0_linear_40_1218" x1="21.216" y1="48.889" x2="4.401" y2="41.387" gradientUnits="userSpaceOnUse"><stop stop-color="#fff"/><stop offset="1" stop-color="#C7E4F7"/></linearGradient><linearGradient id="gpaint1_linear_40_1218" x1="35.457" y1="53.819" x2="18.101" y2="59.966" gradientUnits="userSpaceOnUse"><stop stop-color="#fff"/><stop offset="1" stop-color="#C7E4F7"/></linearGradient><linearGradient id="gpaint2_linear_40_1218" x1="12.97" y1="65.868" x2="69.767" y2="37.999" gradientUnits="userSpaceOnUse"><stop offset=".296" stop-color="#C7E4F7"/><stop offset=".578" stop-color="#fff"/></linearGradient><linearGradient id="gpaint3_linear_40_1218" x1="49.375" y1="34" x2="67.787" y2="34" gradientUnits="userSpaceOnUse"><stop stop-color="#C7E4F7"/><stop offset="1" stop-color="#fff"/></linearGradient><linearGradient id="gpaint4_linear_40_1218" x1="57.796" y1="24.632" x2="43.908" y2="9.394" gradientUnits="userSpaceOnUse"><stop stop-color="#fff"/><stop offset=".68" stop-color="#C7E4F7"/></linearGradient><linearGradient id="gpaint5_linear_40_1218" x1="34.167" y1="19.108" x2="26.686" y2="2.284" gradientUnits="userSpaceOnUse"><stop stop-color="#fff"/><stop offset="1" stop-color="#C7E4F7"/></linearGradient><linearGradient id="gpaint6_linear_40_1218" x1="53.48" y1="17.063" x2="-.972" y2="17.063" gradientUnits="userSpaceOnUse"><stop stop-color="#fff"/><stop offset="1" stop-color="#C7E4F7"/></linearGradient><linearGradient id="gpaint7_linear_40_1218" x1="18.452" y1="22.134" x2=".04" y2="22.134" gradientUnits="userSpaceOnUse"><stop stop-color="#fff"/><stop offset="1" stop-color="#C7E4F7"/></linearGradient><clipPath id="gclip0_40_1218"><path fill="#fff" d="M0 0h321v68H0z"/></clipPath></defs></svg><svg width="321" height="68" fill="none" viewBox="0 0 321 68" id="logo-inner-hover" x="321" y="189" xmlns="http://www.w3.org/2000/svg"><g clip-path="url(#hclip0_40_1232)"><path d="M101.098 22.58l-1.159 8.352h-2.55l1.16-8.352h-7.42L88 44.852h7.418l1.275-8.932h2.666l-1.274 8.932h7.418l3.13-22.272h-7.535zm52.161 5.452h-.348c-.579 0-1.159.116-1.738.348-.58.232-1.159.58-1.739 1.044l.116-1.392-6.259.464-2.319 16.472h6.26l1.622-11.484c.464-.116.812-.116 1.16-.116h1.738c.232 0 .58.116.812.116l1.275-5.336c-.348-.116-.464-.116-.58-.116zm-17.735-5.336l-.811 6.148c-.58-.232-1.043-.464-1.507-.58-.464-.116-.927-.232-1.507-.232-1.043 0-1.97.232-2.898.812a7.387 7.387 0 00-2.318 2.32c-.695.928-1.159 2.088-1.623 3.48a15.83 15.83 0 00-.579 4.176c0 2.088.463 3.596 1.275 4.756.811 1.16 2.086 1.74 3.477 1.74a4.65 4.65 0 001.739-.348c.58-.232 1.159-.58 1.855-1.044l-.116.812h6.143L141.9 22l-6.376.696zm-2.434 17.4h-.348c-.695 0-1.275-.116-1.506-.464-.232-.348-.464-.812-.464-1.624 0-.348 0-.812.116-1.16.116-.348.116-.812.232-1.16.116-.348.231-.696.347-.928.116-.232.232-.464.464-.696.232-.232.464-.348.696-.464.231-.116.579-.116 1.043-.116h.232l-.812 6.612zm-14.373-11.6l-2.434 7.192c-.116.348-.232.696-.348.928-.116.232-.116.464-.232.696-.116.232-.116.464-.116.696 0 .232-.116.464-.116.812v-1.508-1.16-.464l-.347-7.656-6.607.464 1.622 16.472h3.014l-.116.348c-.116.464-.348.696-.811.928a3.207 3.207 0 01-1.507.348c-.348 0-.811 0-1.159-.116a12.067 12.067 0 00-1.391-.348l-1.739 4.176c1.043.232 1.971.464 2.782.58.811.116 1.623.116 2.434.116.928 0 1.623-.116 2.319-.232.695-.116 1.275-.464 1.738-.812.464-.348.928-.928 1.391-1.624.464-.696.812-1.508 1.159-2.436l6.839-17.4h-6.375zm43.12-.464c-3.13 0-5.448.928-6.839 2.668-1.159 1.392-1.855 3.364-2.087 5.916-.116.696-.116 1.16-.116 1.624v1.508c0 1.856.58 3.248 1.739 4.06 1.159.928 2.782 1.276 4.984 1.276 1.623 0 2.898-.232 4.057-.696 1.159-.464 2.087-1.16 2.782-2.088.58-.696.928-1.508 1.275-2.436.348-.928.58-2.088.812-3.596.116-.464.116-.928.116-1.508 0-.464.116-.928.116-1.392-.116-3.48-2.319-5.336-6.839-5.336zm.231 7.308c0 .116 0 .348-.115.58 0 .232-.116.464-.116.812 0 .348-.116.58-.116.812 0 .232-.116.464-.116.58-.116 1.16-.348 1.856-.696 2.32-.231.464-.695.696-1.043.696-.695 0-1.043-.58-1.043-1.624v-.696c0-.232 0-.464.116-.812 0-.232 0-.464.116-.696 0-.232 0-.464.116-.812 0-.348.116-.58.116-.812 0-.232.115-.464.115-.58.232-1.16.464-1.856.696-2.32.232-.464.58-.696 1.043-.696.348 0 .58.116.696.464.231.232.231.696.231 1.16.116.464.116 1.044 0 1.624zm8.23-1.044l-.579 4.408h9.389l.579-4.408h-9.389zm133.764-8.7l-6.375.696-.348 2.088h-1.507l-.579 4.06 1.506.116-1.159 8.584c-.116.348-.116.696-.116.928 0 1.16.348 1.972 1.16 2.436.811.464 1.97.812 3.593.812.579 0 1.043 0 1.507-.116.463-.116.927-.116 1.507-.232l.347-.116h.116l.58-4.06a2.77 2.77 0 01-1.043.232c-.348 0-.58-.116-.812-.232-.232-.232-.348-.464-.348-.696v-.232c0-.116 0-.348.116-.58l.928-6.612 2.202-.348.58-3.828h-2.203l.348-2.9zm-25.501 2.436h-.232a3.21 3.21 0 00-1.507.348c-.463.232-.927.58-1.391 1.044-.579-.464-1.159-.812-1.854-1.044-.696-.232-1.623-.348-2.782-.348-3.477 0-5.912 1.044-7.303 3.248-.347.58-.579 1.16-.811 1.856a5.254 5.254 0 00-.348 1.856c0 1.044.232 1.856.696 2.436.463.58 1.043 1.044 1.97 1.276-.232.116-.347.232-.579.348-.116.116-.348.232-.464.348-.116.116-.348.232-.464.348-.231.116-.347.348-.695.464l-.116.116-1.043.812c-.464.464-.696.696-.696 1.044 0 .232.116.58.348.812.232.232.464.464.811.696.348.232.696.348 1.16.58.463.232.927.232 1.506.348.464 0 .812.116 1.16.116H268.824c.232 0 .348 0 .464.116a.638.638 0 01.348.58c0 .812-.696 1.276-2.203 1.276a4.531 4.531 0 01-1.506-.232c-.348-.116-.464-.464-.464-.812v-.232h-4.984c0 .232-.116.348-.116.58v.464c0 .812.116 1.508.347 2.088.232.58.696 1.044 1.16 1.392.579.348 1.275.696 2.086.812.811.232 1.855.232 3.014.232 2.898 0 5.1-.58 6.607-1.74 1.507-1.16 2.202-2.784 2.202-4.988 0-1.276-.348-2.204-.927-2.668-.696-.58-1.739-.812-3.362-.812h-1.159c-.811 0-1.391 0-1.623-.116-.347 0-.579-.116-.695-.116-.116 0-.116-.116-.232-.116-.116-.116-.116-.116-.116-.232s0-.116.116-.232.116-.232.232-.348c.232 0 .464.116.58.116h.463c2.434 0 4.289-.58 5.564-1.624 1.275-1.044 1.971-2.668 1.971-4.872v-.348h1.159l.811-4.872zm-7.998 7.076c-.232.58-.695.812-1.159.812-.696 0-.927-.348-.927-1.16v-.116c0-1.044.116-1.74.463-2.32.348-.58.696-.812 1.159-.812.58 0 .928.464.928 1.276 0 1.044-.232 1.74-.464 2.32zM187.685 22.58l-8.577 22.272h7.418l1.623-4.872h3.593l.116 4.872h7.419l-2.203-22.272h-9.389zm3.941 5.8V30.584l.116 4.524h-2.202l1.391-4.524c.116-.232.116-.464.232-.696 0-.232.116-.464.116-.58.115-.348.231-.696.231-1.044.116-.348.116-.812.232-1.392-.116.58-.116 1.16-.116 1.508zm127.968 1.276c-.927-1.044-2.434-1.624-4.52-1.624-1.391 0-2.55.232-3.709.696-1.16.464-2.087 1.16-2.782 2.088-.812.928-1.391 1.972-1.855 3.132-.464 1.276-.58 2.668-.58 4.176 0 4.756 2.551 7.192 7.767 7.192 1.043 0 1.97-.116 2.782-.232.811-.116 1.738-.348 2.781-.696l-.347-4.06c-1.044.348-2.087.464-3.014.464-1.971 0-3.13-.696-3.362-1.972h7.651c.116-.464.232-.812.347-1.276.116-.348.116-.696.116-1.044 0-.348.116-.696.116-.928v-1.044c.116-2.204-.463-3.828-1.391-4.872zm-4.057 4.872c0 .232 0 .464-.116.696h-2.897c.116-1.044.347-1.74.695-2.204.348-.464.696-.696 1.159-.696.348 0 .58.116.812.464.231.232.347.696.347 1.16v.58zm-23.182-5.568c-1.043-.696-2.666-.928-4.753-.928-1.043 0-2.086.116-3.129.232-1.044.116-2.203.348-3.478.696l.696 4.292c.811-.232 1.391-.348 1.97-.464.58-.116 1.159-.116 1.739-.116.695 0 1.159.116 1.623.348.348.232.579.464.579.812v.58l-.116.696c-.579-.232-1.043-.348-1.622-.348-.58-.116-1.044-.116-1.623-.116-.927 0-1.855.116-2.666.464a9.092 9.092 0 00-2.087 1.276 6.597 6.597 0 00-1.391 2.088c-.347.812-.463 1.624-.463 2.552 0 1.392.348 2.436 1.159 3.248.811.812 1.855 1.16 3.13 1.16.811 0 1.506-.116 2.202-.348.695-.232 1.275-.696 1.97-1.276l.232 1.276h5.912l1.507-11.02c.116-.464.116-.812.116-1.16v-.812c.116-1.508-.348-2.436-1.507-3.132zm-5.68 12.064h-.58c-.579 0-1.043-.116-1.275-.348-.347-.232-.463-.58-.463-1.044 0-.58.232-1.044.695-1.392.464-.348.928-.58 1.623-.58h.464l-.464 3.364zm-51.929-12.992h-.232a3.21 3.21 0 00-1.507.348c-.463.232-.927.58-1.391 1.044-.579-.464-1.159-.812-1.854-1.044-.696-.232-1.623-.348-2.782-.348-3.478 0-5.912 1.044-7.303 3.248-.347.58-.579 1.16-.811 1.856a5.254 5.254 0 00-.348 1.856c0 1.044.232 1.856.696 2.436.463.58 1.043 1.044 1.97 1.276-.232.116-.348.232-.579.348-.116.116-.348.232-.464.348-.116.116-.348.232-.464.348-.232.116-.347.348-.695.464l-.116.116-1.043.812c-.464.464-.696.696-.696 1.044 0 .232.116.58.348.812.232.232.464.464.811.696.348.232.696.348 1.159.58.464.116.928.232 1.507.348.464 0 .812.116 1.159.116H225.009c.232 0 .348 0 .464.116a.638.638 0 01.348.58c0 .812-.696 1.276-2.203 1.276a4.543 4.543 0 01-1.507-.232c-.347-.116-.463-.464-.463-.812v-.232h-4.984c0 .232-.116.348-.116.58v.464c0 .812.116 1.508.347 2.088.232.58.696 1.044 1.159 1.392.58.348 1.276.696 2.087.812.811.232 1.855.232 3.014.232 2.897 0 5.1-.58 6.607-1.74 1.507-1.16 2.202-2.784 2.202-4.988 0-1.276-.348-2.204-.927-2.668-.696-.58-1.739-.812-3.362-.812h-1.159c-.811 0-1.391 0-1.623-.116-.347 0-.579-.116-.695-.116-.116 0-.116-.116-.232-.116-.116-.116-.116-.116-.116-.232s0-.116.116-.232.116-.232.232-.348c.232 0 .464.116.579.116h.464c2.434 0 4.289-.58 5.564-1.624 1.275-1.044 1.97-2.668 1.97-4.872v-.348H233.935l.811-4.872zm-7.998 7.076c-.232.58-.696.812-1.159.812-.696 0-.927-.348-.927-1.16v-.116c0-1.044.115-1.74.463-2.32.348-.58.696-.812 1.159-.812.58 0 .928.464.928 1.276-.116 1.044-.232 1.74-.464 2.32zm-9.273-2.552l.695-4.64h-.231c-.58 0-1.044.116-1.507.348-.464.232-.928.58-1.391 1.044-.58-.464-1.159-.812-1.855-1.044-.695-.232-1.623-.348-2.782-.348-3.477 0-5.911 1.044-7.302 3.248-.348.58-.58 1.16-.812 1.856a5.252 5.252 0 00-.347 1.856c0 1.044.231 1.856.695 2.436.464.58 1.043 1.044 1.971 1.276-.232.116-.348.232-.58.348-.116.116-.348.232-.464.348-.116.116-.347.232-.463.348-.232.116-.348.348-.696.464l-.116.116-1.043.812c-.464.464-.695.696-.695 1.044 0 .232.116.58.347.812.232.232.464.464.812.696.347.232.695.348 1.159.58.464.116.927.232 1.507.348.463 0 .811.116 1.159.116H208.434c.232 0 .347 0 .463.116a.638.638 0 01.348.58c0 .812-.695 1.276-2.202 1.276a4.538 4.538 0 01-1.507-.232c-.348-.116-.464-.464-.464-.812v-.232h-4.984c0 .232-.116.348-.116.58v.464c0 .812.116 1.508.348 2.088.232.58.695 1.044 1.159 1.392.579.348 1.275.696 2.086.812.812.232 1.855.232 3.014.232 2.898 0 5.1-.58 6.607-1.74 1.507-1.16 2.202-2.784 2.202-4.988 0-1.276-.347-2.204-.927-2.668-.695-.58-1.739-.812-3.361-.812h-1.159c-.812 0-1.391 0-1.623-.116-.348 0-.58-.116-.696-.116-.116 0-.116-.116-.232-.116-.115-.116-.115-.116-.115-.232s0-.116.115-.232c.116-.116.116-.232.232-.348.232 0 .464.116.58.116h.464c2.434 0 4.288-.58 5.563-1.624 1.275-1.044 1.971-2.668 1.971-4.872v-.348H217.475v-.232zm-7.419 2.552c-.231.58-.695.812-1.159.812-.695 0-.927-.348-.927-1.16v-.116c0-1.044.116-1.74.464-2.32.347-.58.695-.812 1.159-.812.579 0 .927.464.927 1.276 0 1.044-.116 1.74-.464 2.32zm36.049-7.076h-.347a4.65 4.65 0 00-1.739.348c-.58.232-1.159.58-1.739 1.044l.116-1.392-6.259.464-2.318 16.472h6.259l1.623-11.484c.463-.116.811-.116 1.159-.116h1.739c.231 0 .579.116.811.116l1.275-5.336c-.232-.116-.464-.116-.58-.116zm14.374 6.612c0-2.204-.464-3.944-1.391-4.988-.928-1.044-2.434-1.624-4.521-1.624-1.391 0-2.55.232-3.709.696-1.159.464-2.087 1.16-2.782 2.088-.811.928-1.391 1.972-1.855 3.132-.463 1.276-.579 2.668-.579 4.176 0 4.756 2.55 7.192 7.766 7.192 1.043 0 1.97-.116 2.782-.232.811-.116 1.739-.348 2.782-.696l-.348-4.06c-1.043.348-2.086.464-3.014.464-1.97 0-3.129-.696-3.361-1.972h7.65c.116-.464.232-.812.348-1.276.116-.348.116-.696.116-1.044 0-.348.116-.696.116-.928v-.928zm-5.448-.116c0 .232 0 .464-.116.696h-2.898c.116-1.044.348-1.74.695-2.204.348-.464.696-.696 1.16-.696.347 0 .579.116.811.464.232.232.348.696.348 1.16v.58z" fill="#222931"/><path d="M57.9 10C51.3 3.4 42.6.1 33.9.1S16.6 3.4 9.9 10c-2.6 2.6-4.6 5.4-6.2 8.5H64c-1.5-3-3.6-5.9-6.1-8.5z" fill="url(#hpaint0_linear_40_1232)"/><path d="M1.7 44.4L44.3 1.8C32.6-2 19.3.8 10 10.1.7 19.3-2.1 32.7 1.7 44.4z" fill="url(#hpaint1_linear_40_1232)"/><path d="M10 58c2.6 2.6 5.4 4.6 8.5 6.2V3.9c-3.1 1.6-5.9 3.6-8.5 6.2C3.4 16.7.1 25.4.1 34.1 0 42.7 3.3 51.3 10 58z" fill="url(#hpaint2_linear_40_1232)"/><path d="M44.3 66.2L1.7 23.6c-3.8 11.7-1 25 8.3 34.3 9.2 9.3 22.6 12.1 34.3 8.3z" fill="url(#hpaint3_linear_40_1232)"/><path d="M33.9 67.9c8.7 0 17.3-3.3 24-9.9 2.6-2.6 4.6-5.4 6.2-8.5H3.8c1.6 3.1 3.6 5.9 6.2 8.5 6.6 6.6 15.2 9.9 23.9 9.9z" fill="url(#hpaint4_linear_40_1232)"/><path d="M57.9 58c9.3-9.3 12-22.6 8.3-34.3L23.6 66.3c11.6 3.7 25 .9 34.3-8.3z" fill="url(#hpaint5_linear_40_1232)"/><path d="M49.4 64.1c3.1-1.6 5.9-3.6 8.5-6.2 10.7-10.7 12.7-26.7 6.2-39.4H49.4v45.6z" fill="url(#hpaint6_linear_40_1232)"/><path d="M66.2 44.4c2.7-8.5 2-17.8-2.1-25.8H40.4l25.8 25.8z" fill="url(#hpaint7_linear_40_1232)"/></g><defs><linearGradient id="hpaint0_linear_40_1232" x1="32.368" y1="14.495" x2="49.562" y2="7.91" gradientUnits="userSpaceOnUse"><stop/><stop offset="1" stop-color="#3B5162"/></linearGradient><linearGradient id="hpaint1_linear_40_1232" x1="18.804" y1="21.078" x2="26.73" y2="4.459" gradientUnits="userSpaceOnUse"><stop/><stop offset="1" stop-color="#3B5162"/></linearGradient><linearGradient id="hpaint2_linear_40_1232" x1="26.192" y1="-3.347" x2="5.737" y2="56.522" gradientUnits="userSpaceOnUse"><stop offset=".296" stop-color="#3B5162"/><stop offset=".578"/></linearGradient><linearGradient id="hpaint3_linear_40_1232" x1="22.98" y1="44.937" x2="9.961" y2="57.956" gradientUnits="userSpaceOnUse"><stop stop-color="#3B5162"/><stop offset="1"/></linearGradient><linearGradient id="hpaint4_linear_40_1232" x1="23.648" y1="57.509" x2="44.243" y2="58.463" gradientUnits="userSpaceOnUse"><stop/><stop offset=".68" stop-color="#3B5162"/></linearGradient><linearGradient id="hpaint5_linear_40_1232" x1="44.267" y1="44.71" x2="61.453" y2="51.317" gradientUnits="userSpaceOnUse"><stop/><stop offset="1" stop-color="#3B5162"/></linearGradient><linearGradient id="hpaint6_linear_40_1232" x1="32.057" y1="59.812" x2="70.56" y2="21.309" gradientUnits="userSpaceOnUse"><stop/><stop offset="1" stop-color="#3B5162"/></linearGradient><linearGradient id="hpaint7_linear_40_1232" x1="53.239" y1="31.458" x2="66.259" y2="18.439" gradientUnits="userSpaceOnUse"><stop/><stop offset="1" stop-color="#3B5162"/></linearGradient><clipPath id="hclip0_40_1232"><path fill="#fff" d="M0 0h321v68H0z"/></clipPath></defs></svg><svg width="157" height="28" fill="none" viewBox="0 0 157 28" id="logo-mob" x="859" y="189" xmlns="http://www.w3.org/2000/svg"><path d="M14.151 6.36l-.721 5.184h-1.587l.721-5.184H7.948L6 20.184h4.617l.793-5.544h1.66l-.794 5.544h4.616L18.84 6.36h-4.689zm32.46 3.384h-.215a2.9 2.9 0 00-1.083.216c-.36.144-.72.36-1.082.648l.073-.864-3.896.288-1.442 10.224h3.895l1.01-7.128c.288-.072.505-.072.721-.072H45.674c.144 0 .36.072.505.072l.793-3.312c-.216-.072-.288-.072-.36-.072zM35.576 6.432l-.505 3.816c-.36-.144-.649-.288-.937-.36-.289-.072-.578-.144-.938-.144a3.26 3.26 0 00-1.804.504 4.588 4.588 0 00-1.442 1.44c-.433.576-.722 1.296-1.01 2.16a9.778 9.778 0 00-.36 2.592c0 1.296.288 2.232.793 2.952.505.72 1.298 1.08 2.164 1.08.36 0 .721-.072 1.082-.216.36-.144.721-.36 1.154-.648l-.072.504h3.823L39.543 6l-3.968.432zm-1.515 10.8h-.216c-.433 0-.794-.072-.938-.288-.144-.216-.288-.504-.288-1.008 0-.216 0-.504.072-.72.072-.216.072-.504.144-.72.072-.216.144-.432.216-.576.073-.144.145-.288.29-.432.143-.144.288-.216.432-.288.144-.072.36-.072.65-.072h.143l-.505 4.104zm-8.944-7.2L23.6 14.496a4.955 4.955 0 01-.216.576c-.073.144-.073.288-.145.432-.072.144-.072.288-.072.432 0 .144-.072.288-.072.504V15.504v-.72-.288l-.216-4.752-4.112.288 1.01 10.224h1.875l-.072.216c-.072.288-.216.432-.505.576a2 2 0 01-.938.216c-.216 0-.505 0-.72-.072a7.5 7.5 0 00-.866-.216l-1.083 2.592c.65.144 1.227.288 1.732.36.505.072 1.01.072 1.514.072.578 0 1.01-.072 1.443-.144.433-.072.794-.288 1.082-.504.289-.216.577-.576.866-1.008.288-.432.505-.936.721-1.512l4.256-10.8h-3.967zm26.834-.288c-1.948 0-3.39.576-4.256 1.656-.722.864-1.154 2.088-1.299 3.672-.072.432-.072.72-.072 1.008V17.016c0 1.152.361 2.016 1.082 2.52.722.576 1.732.792 3.102.792 1.01 0 1.803-.144 2.525-.432.721-.288 1.298-.72 1.731-1.296.36-.432.577-.936.794-1.512.216-.576.36-1.296.505-2.232.072-.288.072-.576.072-.936 0-.288.072-.576.072-.864-.072-2.16-1.443-3.312-4.256-3.312zm.144 4.536c0 .072 0 .216-.072.36 0 .144-.072.288-.072.504 0 .216-.072.36-.072.504 0 .144-.072.288-.072.36-.073.72-.217 1.152-.433 1.44-.145.288-.433.432-.65.432-.432 0-.649-.36-.649-1.008v-.432c0-.144 0-.288.073-.504 0-.144 0-.288.072-.432 0-.144 0-.288.072-.504 0-.216.072-.36.072-.504 0-.144.072-.288.072-.36.144-.72.289-1.152.433-1.44.144-.288.36-.432.649-.432.216 0 .36.072.433.288.144.144.144.432.144.72a2.37 2.37 0 010 1.008zm5.122-.648l-.361 2.736h5.843l.36-2.736h-5.842zm83.243-5.4l-3.967.432-.217 1.296h-.937l-.361 2.52.938.072-.722 5.328c-.072.216-.072.432-.072.576 0 .72.217 1.224.722 1.512.504.288 1.226.504 2.236.504.36 0 .649 0 .937-.072.289-.072.578-.072.938-.144l.217-.072h.072l.36-2.52a1.72 1.72 0 01-.649.144c-.216 0-.36-.072-.505-.144-.144-.144-.216-.288-.216-.432v-.144c0-.072 0-.216.072-.36l.577-4.104 1.371-.216.36-2.376h-1.37l.216-1.8zM124.59 9.744h-.145c-.36 0-.649.072-.937.216-.289.144-.578.36-.866.648a3.66 3.66 0 00-1.154-.648c-.433-.144-1.01-.216-1.731-.216-2.165 0-3.679.648-4.545 2.016-.216.36-.361.72-.505 1.152-.144.36-.216.792-.216 1.152 0 .648.144 1.152.432 1.512.289.36.65.648 1.227.792-.144.072-.217.144-.361.216-.072.072-.216.144-.288.216-.073.072-.217.144-.289.216-.144.072-.216.216-.433.288l-.072.072-.649.504c-.289.288-.433.432-.433.648 0 .144.072.36.216.504.145.144.289.288.505.432.217.144.433.216.722.36.288.144.577.144.937.216.289 0 .505.072.722.072h1.803c.144 0 .217 0 .289.072a.396.396 0 01.216.36c0 .504-.433.792-1.37.792a2.83 2.83 0 01-.938-.144c-.217-.072-.289-.288-.289-.504v-.144h-3.101c0 .144-.073.216-.073.36v.288c0 .504.073.936.217 1.296.144.36.433.648.721.864.361.216.794.432 1.299.504.505.144 1.154.144 1.875.144 1.803 0 3.174-.36 4.112-1.08.937-.72 1.37-1.728 1.37-3.096 0-.792-.216-1.368-.577-1.656-.433-.36-1.082-.504-2.092-.504h-.721c-.505 0-.866 0-1.01-.072-.216 0-.361-.072-.433-.072-.072 0-.072-.072-.144-.072-.072-.072-.072-.072-.072-.144s0-.072.072-.144.072-.144.144-.216c.145 0 .289.072.361.072h.288c1.515 0 2.669-.36 3.463-1.008.793-.648 1.226-1.656 1.226-3.024v-.216H124.085l.505-3.024zm-4.978 4.392c-.144.36-.433.504-.721.504-.433 0-.577-.216-.577-.72v-.072c0-.648.072-1.08.288-1.44.217-.36.433-.504.722-.504.36 0 .577.288.577.792 0 .648-.144 1.08-.289 1.44zM68.036 6.36l-5.338 13.824h4.616l1.01-3.024h2.237l.072 3.024h4.616L73.88 6.36h-5.843zm2.453 3.6V11.328l.072 2.808H69.19l.866-2.808c.072-.144.072-.288.144-.432 0-.144.072-.288.072-.36.072-.216.144-.432.144-.648.073-.216.073-.504.145-.864-.073.36-.073.72-.073.936zm79.636.792c-.577-.648-1.515-1.008-2.813-1.008-.866 0-1.587.144-2.308.432-.722.288-1.299.72-1.732 1.296-.504.576-.865 1.224-1.154 1.944-.288.792-.36 1.656-.36 2.592 0 2.952 1.587 4.464 4.833 4.464.649 0 1.226-.072 1.731-.144a10.085 10.085 0 001.731-.432l-.216-2.52a5.96 5.96 0 01-1.876.288c-1.226 0-1.947-.432-2.092-1.224h4.761c.072-.288.144-.504.217-.792.072-.216.072-.432.072-.648 0-.216.072-.432.072-.576v-.648c.072-1.368-.289-2.376-.866-3.024zm-2.524 3.024c0 .144 0 .288-.073.432h-1.803c.072-.648.216-1.08.433-1.368.216-.288.433-.432.721-.432.217 0 .361.072.505.288.144.144.217.432.217.72v.36zm-14.427-3.456c-.65-.432-1.66-.576-2.958-.576-.649 0-1.298.072-1.948.144a14.36 14.36 0 00-2.164.432l.433 2.664c.505-.144.866-.216 1.226-.288.361-.072.722-.072 1.082-.072.433 0 .722.072 1.01.216.217.144.361.288.361.504v.36l-.072.432c-.361-.144-.649-.216-1.01-.216-.361-.072-.649-.072-1.01-.072-.577 0-1.154.072-1.659.288a5.642 5.642 0 00-1.298.792c-.361.36-.65.792-.866 1.296-.216.504-.289 1.008-.289 1.584 0 .864.217 1.512.722 2.016s1.154.72 1.947.72a4.21 4.21 0 001.371-.216c.433-.144.793-.432 1.226-.792l.145.792h3.678l.938-6.84c.072-.288.072-.504.072-.72v-.504c.072-.936-.216-1.512-.937-1.944zm-3.535 7.488h-.361c-.36 0-.649-.072-.793-.216-.217-.144-.289-.36-.289-.648 0-.36.145-.648.433-.864.289-.216.577-.36 1.01-.36h.289l-.289 2.088zM97.323 9.744h-.145a2 2 0 00-.937.216c-.289.144-.578.36-.866.648a3.66 3.66 0 00-1.154-.648c-.433-.144-1.01-.216-1.731-.216-2.164 0-3.68.648-4.545 2.016-.216.36-.36.72-.505 1.152-.144.36-.216.792-.216 1.152 0 .648.144 1.152.432 1.512.29.36.65.648 1.227.792-.144.072-.217.144-.36.216-.073.072-.217.144-.29.216-.072.072-.216.144-.288.216-.144.072-.216.216-.433.288l-.072.072-.65.504c-.288.288-.432.432-.432.648 0 .144.072.36.216.504.145.144.29.288.505.432.217.144.433.216.722.36.288.072.577.144.938.216.288 0 .504.072.72.072h1.804c.145 0 .217 0 .289.072a.396.396 0 01.216.36c0 .504-.433.792-1.37.792-.433 0-.722-.072-.938-.144-.216-.072-.289-.288-.289-.504v-.144H86.07c0 .144-.073.216-.073.36v.288c0 .504.073.936.217 1.296.144.36.433.648.721.864.36.216.794.432 1.299.504.505.144 1.154.144 1.875.144 1.803 0 3.174-.36 4.112-1.08.938-.72 1.37-1.728 1.37-3.096 0-.792-.216-1.368-.577-1.656-.432-.36-1.082-.504-2.092-.504h-.721c-.505 0-.866 0-1.01-.072-.216 0-.36-.072-.433-.072-.072 0-.072-.072-.144-.072-.072-.072-.072-.072-.072-.144s0-.072.072-.144.072-.144.144-.216c.145 0 .289.072.361.072h.288c1.515 0 2.67-.36 3.463-1.008.793-.648 1.226-1.656 1.226-3.024v-.216H96.818l.505-3.024zm-4.978 4.392c-.144.36-.433.504-.721.504-.433 0-.577-.216-.577-.72v-.072c0-.648.072-1.08.288-1.44.217-.36.433-.504.722-.504.36 0 .577.288.577.792-.072.648-.144 1.08-.289 1.44zm-5.77-1.584l.432-2.88h-.144a2 2 0 00-.938.216 3.39 3.39 0 00-.865.648 3.66 3.66 0 00-1.154-.648c-.433-.144-1.01-.216-1.732-.216-2.164 0-3.679.648-4.544 2.016-.217.36-.36.72-.505 1.152-.144.36-.216.792-.216 1.152 0 .648.144 1.152.432 1.512.289.36.65.648 1.227.792-.145.072-.217.144-.361.216-.072.072-.216.144-.289.216-.072.072-.216.144-.288.216-.144.072-.217.216-.433.288l-.072.072-.65.504c-.288.288-.432.432-.432.648 0 .144.072.36.216.504.144.144.289.288.505.432.217.144.433.216.722.36.288.072.577.144.937.216.289 0 .505.072.722.072h1.803c.144 0 .216 0 .289.072a.396.396 0 01.216.36c0 .504-.433.792-1.37.792-.433 0-.722-.072-.938-.144-.217-.072-.289-.288-.289-.504v-.144h-3.102c0 .144-.072.216-.072.36v.288c0 .504.072.936.217 1.296.144.36.432.648.72.864.362.216.794.432 1.3.504.504.144 1.154.144 1.875.144 1.803 0 3.174-.36 4.112-1.08.937-.72 1.37-1.728 1.37-3.096 0-.792-.216-1.368-.577-1.656-.433-.36-1.082-.504-2.092-.504h-.721c-.505 0-.866 0-1.01-.072-.217 0-.36-.072-.433-.072-.072 0-.072-.072-.144-.072-.072-.072-.072-.072-.072-.144s0-.072.072-.144.072-.144.144-.216c.144 0 .289.072.36.072h.29c1.514 0 2.668-.36 3.462-1.008.793-.648 1.226-1.656 1.226-3.024v-.216H86.574v-.144zm-4.617 1.584c-.144.36-.433.504-.721.504-.433 0-.578-.216-.578-.72v-.072c0-.648.073-1.08.289-1.44.216-.36.433-.504.721-.504.361 0 .577.288.577.792 0 .648-.072 1.08-.288 1.44zm22.434-4.392h-.217c-.36 0-.721.072-1.082.216-.36.144-.721.36-1.082.648l.072-.864-3.895.288-1.442 10.224h3.895l1.01-7.128c.288-.072.505-.072.721-.072H103.454c.144 0 .361.072.505.072l.793-3.312c-.144-.072-.288-.072-.36-.072zm8.945 4.104c0-1.368-.289-2.448-.866-3.096-.577-.648-1.515-1.008-2.813-1.008-.866 0-1.587.144-2.309.432-.721.288-1.298.72-1.731 1.296-.505.576-.866 1.224-1.154 1.944-.289.792-.361 1.656-.361 2.592 0 2.952 1.587 4.464 4.833 4.464.65 0 1.227-.072 1.732-.144a10.108 10.108 0 001.731-.432l-.217-2.52a5.95 5.95 0 01-1.875.288c-1.226 0-1.948-.432-2.092-1.224h4.761c.072-.288.144-.504.216-.792.072-.216.072-.432.072-.648 0-.216.073-.432.073-.576v-.576zm-3.391-.072c0 .144 0 .288-.072.432h-1.803c.072-.648.216-1.08.432-1.368.217-.288.433-.432.722-.432.216 0 .361.072.505.288.144.144.216.432.216.72v.36z" fill="#fff"/></svg><svg width="156" height="132" fill="none" viewBox="0 0 156 132" id="logo-motiv" x="181" y="257" xmlns="http://www.w3.org/2000/svg"><rect width="156" height="132" rx="10" fill="#F5F6F6"/><path d="M29.155 88.862l-.59 4.035h-1.24l.558-4.035h-3.57l-1.52 10.707h3.57l.589-4.314h1.303l-.59 4.314h3.57l1.49-10.707h-3.57zm8.473 2.793l-1.18 3.476c-.062.186-.124.341-.155.466a5.082 5.082 0 01-.093.34c-.031.125-.062.218-.093.342a8.06 8.06 0 00-.093.404v-.745-.559-.217l-.155-3.693-3.197.217.745 7.914h1.459l-.063.186a.734.734 0 01-.372.435 1.62 1.62 0 01-.714.155c-.186 0-.372-.031-.527-.062a3.578 3.578 0 01-.652-.186l-.869 2.017a17 17 0 001.303.279 7.27 7.27 0 001.18.093c.434 0 .807-.031 1.117-.124.31-.093.62-.217.869-.403.248-.187.465-.435.683-.745.186-.311.403-.714.59-1.18l3.32-8.379h-3.103v-.03zm8.1-2.762l-.404 2.98c-.248-.125-.496-.249-.714-.311a2.648 2.648 0 00-.713-.093c-.497 0-.962.124-1.428.403-.434.28-.807.652-1.148 1.118a6.202 6.202 0 00-.776 1.644 7.043 7.043 0 00-.28 2.018c0 .993.218 1.738.621 2.296.404.559.993.838 1.707.838.28 0 .559-.062.807-.155s.559-.248.9-.497l-.062.404h2.98l1.551-10.924-3.041.28zm-1.149 8.348h-.155c-.341 0-.59-.062-.714-.217s-.186-.403-.186-.776c0-.186 0-.372.031-.558a3.6 3.6 0 01.124-.559c.062-.186.093-.341.186-.466.063-.124.125-.248.218-.34.124-.125.217-.187.341-.218.124-.031.31-.062.528-.062h.093l-.466 3.196zm9.683-5.772h-.186c-.28 0-.559.062-.807.155s-.528.28-.838.528l.062-.683-3.041.217-1.117 7.914h3.01l.776-5.493c.217-.031.403-.062.558-.062H53.517c.124 0 .248.03.404.062l.59-2.545c-.125-.093-.187-.093-.249-.093zm4.097-.031c-1.521 0-2.607.434-3.29 1.303-.559.683-.9 1.645-1.024 2.856-.031.31-.062.59-.093.806 0 .218-.031.435-.031.59v.186c0 .9.279 1.552.838 1.986.558.435 1.365.652 2.42.652.776 0 1.428-.093 1.956-.31.527-.217.993-.528 1.365-.993.248-.31.465-.714.62-1.148.156-.466.28-1.025.373-1.738.031-.249.062-.466.093-.714.031-.249.031-.466.031-.683.031-1.862-1.055-2.793-3.258-2.793zm.186 3.507c0 .093-.031.186-.031.31s-.031.248-.062.373c-.031.155-.031.279-.062.403s-.031.217-.062.28c-.094.527-.187.9-.31 1.117a.576.576 0 01-.528.31c-.342 0-.497-.248-.497-.745v-.31c0-.124.031-.249.031-.373 0-.093.031-.217.031-.31 0-.124.031-.248.031-.372.031-.156.031-.31.062-.404.031-.124.031-.186.062-.28.093-.527.187-.9.342-1.148.124-.217.31-.34.527-.34.155 0 .28.061.342.185.093.124.124.31.124.559.03.217.03.465 0 .745z" fill="#005686"/><path d="M62.455 94.448l-.31 2.142h4.53l.28-2.142h-4.5zm8.349-5.586L66.675 99.57h3.6l.745-2.359h1.738l.062 2.359h3.538l-1.087-10.707h-4.469zm1.893 2.793c0 .186-.031.404-.031.652v.372l.062 2.173h-1.055l.682-2.173c.031-.124.062-.248.093-.341.031-.093.062-.186.093-.31.063-.187.094-.342.125-.497.03-.155.062-.372.124-.652-.031.31-.062.559-.093.776zm12.475 1.986l.342-2.203h-.124c-.249 0-.497.062-.714.155-.217.093-.434.28-.683.497a2.645 2.645 0 00-.9-.528 5.073 5.073 0 00-1.334-.155c-1.707 0-2.856.528-3.507 1.583-.155.279-.31.558-.404.869-.093.31-.155.62-.155.9 0 .496.093.869.31 1.179.218.28.528.496.931.59-.093.062-.186.124-.248.186a.942.942 0 00-.217.155c-.062.062-.155.124-.217.186-.093.062-.186.155-.31.248l-.063.063-.496.403c-.248.186-.342.372-.342.496 0 .125.063.249.156.373s.217.248.372.341c.155.093.341.186.59.249.248.062.465.124.713.155.187.03.404.03.56.03.185 0 .434 0 .806.032.31 0 .497.03.62.03.125 0 .187.032.249.032.124.062.186.155.186.28 0 .403-.372.589-1.086.589-.341 0-.59-.031-.714-.124-.155-.062-.217-.186-.217-.373v-.062-.062h-2.483c-.03.124-.03.186-.03.248v.218c0 .403.061.745.185 1.024.125.279.31.527.559.683.248.186.59.31.993.403.403.093.9.124 1.459.124 1.396 0 2.451-.279 3.165-.807.714-.527 1.055-1.334 1.055-2.39 0-.62-.155-1.055-.465-1.303-.31-.248-.838-.403-1.583-.403h-.558c-.373 0-.652-.031-.807-.031-.156-.031-.28-.031-.373-.062a40.86 40.86 0 01-.093-.094c-.031-.03-.031-.062-.031-.093 0-.03 0-.062.031-.124s.062-.093.093-.155c.124.031.248.031.31.031h.218c1.18 0 2.08-.28 2.7-.807.62-.527.93-1.303.93-2.327v-.187h.621v-.062zm-3.537 1.21c-.125.28-.31.404-.56.404-.31 0-.465-.186-.465-.59v-.03c0-.466.063-.839.218-1.087s.341-.372.558-.372c.28 0 .435.217.435.62 0 .435-.062.807-.186 1.056zm11.855-3.413h-.124a1.84 1.84 0 00-.714.155c-.217.093-.435.28-.683.497a2.644 2.644 0 00-.9-.528 5.072 5.072 0 00-1.334-.155c-1.707 0-2.856.528-3.507 1.583-.155.279-.31.558-.404.869-.093.31-.155.62-.155.9 0 .496.093.869.31 1.179.218.28.528.496.931.59-.093.062-.186.124-.248.186s-.155.093-.217.155-.155.124-.217.186c-.093.062-.187.155-.31.248l-.063.063-.496.403c-.249.186-.373.372-.373.496 0 .125.062.249.155.373s.218.248.373.341c.155.093.341.186.59.249.248.062.465.124.713.155.187.03.404.03.559.03.186 0 .434 0 .807.032.31 0 .496.03.62.03.125 0 .187.032.249.032.124.062.186.155.186.28 0 .403-.372.589-1.086.589-.342 0-.59-.031-.714-.124-.155-.062-.217-.186-.217-.373v-.062-.062h-2.39c-.03.124-.03.186-.03.248v.218c0 .403.061.745.185 1.024s.31.527.559.683c.248.186.59.31.993.403.403.093.9.124 1.459.124 1.396 0 2.451-.279 3.165-.807.714-.527 1.055-1.334 1.055-2.39 0-.62-.155-1.055-.465-1.303-.31-.248-.838-.403-1.583-.403h-.559c-.372 0-.651-.031-.806-.031-.156-.031-.28-.031-.342-.062l-.093-.094c-.031-.03-.031-.062-.031-.093 0-.03 0-.062.031-.124s.062-.093.093-.155c.124.031.248.031.31.031h.218c1.179 0 2.079-.28 2.7-.807.62-.527.93-1.303.93-2.327v-.187H93.18l.31-2.265zm-3.849 3.414c-.124.279-.31.403-.558.403-.31 0-.466-.186-.466-.59v-.03c0-.466.062-.839.218-1.087.155-.248.34-.372.558-.372.28 0 .435.217.435.62 0 .435-.062.807-.187 1.056zm9.342-3.383h-.186c-.28 0-.559.062-.807.155-.249.093-.528.28-.838.528l.062-.683-3.041.186-1.118 7.914h3.01l.776-5.493c.218-.031.404-.062.56-.062h.837c.124 0 .248.03.403.062l.59-2.545c-.124-.062-.186-.062-.248-.062zm6.921 3.134c0-1.086-.218-1.862-.683-2.39-.466-.496-1.18-.744-2.173-.744-.651 0-1.241.124-1.769.341-.527.249-.993.559-1.365.993a4.865 4.865 0 00-.87 1.521c-.216.59-.31 1.273-.31 1.986 0 2.297 1.242 3.445 3.756 3.445.496 0 .931-.03 1.365-.093.404-.062.838-.186 1.335-.341l-.186-1.986a5.205 5.205 0 01-1.459.217c-.962 0-1.49-.31-1.583-.962h3.693c.062-.218.093-.404.155-.59.031-.186.062-.341.094-.497.031-.155.031-.31.031-.465-.031-.093-.031-.248-.031-.435zm-2.669-.03c0 .093-.031.217-.031.34h-1.397c.062-.465.186-.837.31-1.054a.655.655 0 01.559-.342c.155 0 .31.062.403.218.093.124.156.31.156.558.031.062 0 .186 0 .28zm11.358-3.135h-.124c-.248 0-.497.062-.714.155-.217.093-.434.28-.683.497a2.636 2.636 0 00-.9-.528 5.065 5.065 0 00-1.334-.155c-1.707 0-2.855.528-3.507 1.583-.155.279-.31.558-.403.869-.093.31-.156.62-.156.9 0 .496.094.869.311 1.179.217.28.527.496.931.59-.093.062-.186.124-.248.186s-.156.093-.218.155-.155.124-.217.186c-.093.062-.186.155-.31.248l-.062.063-.497.403c-.248.186-.372.372-.372.496 0 .125.062.249.155.373s.217.248.372.341c.155.093.342.186.59.249.248.062.465.124.714.155.186.03.403.03.558.03.187 0 .435 0 .807.032.311 0 .497.03.621.03s.186.032.248.032c.124.062.186.155.186.28 0 .403-.372.589-1.086.589-.341 0-.589-.031-.714-.124-.155-.062-.217-.186-.217-.373v-.062-.062h-2.389c-.031.124-.031.186-.031.248v.218c0 .403.062.745.186 1.024s.31.527.558.683c.249.186.59.31.993.403.404.093.9.124 1.459.124 1.397 0 2.452-.279 3.166-.807.713-.527 1.055-1.334 1.055-2.39 0-.62-.155-1.055-.466-1.303-.31-.248-.838-.403-1.583-.403h-.558c-.373 0-.652-.031-.807-.031-.155-.031-.279-.031-.341-.062a9.222 9.222 0 00-.094-.094c-.031-.03-.031-.062-.031-.093 0-.03 0-.062.031-.124.032-.062.063-.093.094-.155.124.031.248.031.31.031h.217c1.179 0 2.079-.28 2.7-.807s.931-1.303.931-2.327v-.187H114.283l.31-2.265zm-3.848 3.414c-.124.279-.31.403-.559.403-.31 0-.465-.186-.465-.59v-.03c0-.466.062-.839.217-1.087s.341-.372.559-.372c.279 0 .434.217.434.62 0 .435-.062.807-.186 1.056zm10.49-2.918c-.528-.31-1.304-.465-2.297-.465-.497 0-.993.031-1.49.093-.496.062-1.055.186-1.676.373l.342 2.079c.372-.124.683-.186.962-.248a3.85 3.85 0 01.838-.094c.341 0 .59.063.745.156.186.093.279.217.279.403v.248l-.031.342a3.997 3.997 0 00-.776-.186 6.022 6.022 0 00-.776-.063c-.465 0-.869.063-1.272.218a3.057 3.057 0 00-.993.651c-.28.28-.497.59-.652.993a3.284 3.284 0 00-.248 1.242c0 .683.186 1.21.558 1.583.373.372.869.558 1.521.558.372 0 .714-.062 1.024-.186.311-.124.621-.341.962-.62l.093.62h2.824l.745-5.307c.031-.186.062-.403.062-.558 0-.156.031-.31.031-.404.031-.683-.248-1.117-.775-1.427zm-2.731 5.773h-.28c-.279 0-.496-.062-.652-.186a.559.559 0 01-.217-.466c0-.28.093-.496.311-.683.217-.186.465-.279.775-.279h.218l-.155 1.614zm8.317-7.417l-3.042.341-.155 1.024h-.714l-.279 1.955.714.062-.59 4.128c-.031.155-.031.31-.031.466 0 .527.186.93.559 1.179.372.248.931.372 1.707.372.279 0 .496 0 .714-.03.186-.032.434-.063.713-.125l.155-.031h.063l.279-1.955c-.124.062-.31.093-.528.093-.155 0-.279-.031-.372-.124a.445.445 0 01-.155-.342v-.124c0-.062.031-.155.031-.248l.465-3.197 1.086-.186.28-1.862h-1.086l.186-1.396zm7.541 1.955c-.465-.497-1.179-.745-2.172-.745-.652 0-1.242.124-1.769.341-.528.249-.993.559-1.366.994a4.89 4.89 0 00-.869 1.52c-.217.59-.31 1.273-.31 1.986 0 2.297 1.241 3.445 3.755 3.445.497 0 .931-.03 1.366-.093.403-.062.838-.186 1.334-.341l-.186-1.987a5.196 5.196 0 01-1.459.218c-.962 0-1.489-.31-1.582-.962h3.693c.062-.218.093-.404.155-.59.031-.186.062-.341.093-.497.031-.155.031-.31.031-.465v-.497c-.031-1.055-.279-1.83-.714-2.327zm-1.986 2.327c0 .093-.031.218-.031.342h-1.397c.062-.466.187-.838.311-1.055a.653.653 0 01.558-.342c.155 0 .311.062.404.218.093.124.155.31.155.558.031.062 0 .186 0 .28z" fill="#222931"/><path d="M52.09 54.507c0 7.262 2.948 13.81 7.696 18.59a26.222 26.222 0 0018.59 7.696c2.824 0 5.524-.434 8.038-1.272L53.362 46.469c-.838 2.514-1.272 5.214-1.272 8.038z" fill="url(#jpaint0_linear_28_187)"/><path d="M101.745 66.486H55.007c4.345 8.473 13.19 14.276 23.369 14.276 10.18 0 18.993-5.772 23.369-14.276z" fill="url(#jpaint1_linear_28_187)"/><path d="M104.631 54.507c0-2.824-.434-5.524-1.272-8.038L70.307 79.521c2.545.807 5.245 1.272 8.038 1.272 7.262 0 13.81-2.948 18.59-7.696 4.748-4.78 7.696-11.328 7.696-18.59z" fill="url(#jpaint2_linear_28_187)"/><path d="M90.355 31.138v46.738c8.472-4.345 14.276-13.19 14.276-23.37 0-10.178-5.803-19.023-14.276-23.368z" fill="url(#jpaint3_linear_28_187)"/><path d="M96.934 35.917a26.223 26.223 0 00-18.59-7.696c-2.823 0-5.523.434-8.037 1.272l33.052 33.052c.807-2.545 1.272-5.245 1.272-8.038 0-7.262-2.948-13.81-7.697-18.59z" fill="url(#jpaint4_linear_28_187)"/><path d="M78.376 28.22c-10.18 0-19.024 5.804-23.37 14.277h46.739c-4.376-8.473-13.19-14.276-23.37-14.276z" fill="url(#jpaint5_linear_28_187)"/><path d="M86.414 29.493c-2.545-.807-5.245-1.272-8.038-1.272-11.7 0-21.6 7.665-25.014 18.217l8.038 8.038 25.014-24.983z" fill="url(#jpaint6_linear_28_187)"/><path d="M66.365 31.138a26.312 26.312 0 00-13.003 15.331l13.003 13.003V31.138z" fill="url(#jpaint7_linear_28_187)"/><defs><linearGradient id="jpaint0_linear_28_187" x1="68.516" y1="66.055" x2="55.475" y2="60.237" gradientUnits="userSpaceOnUse"><stop stop-color="#3BC2D5"/><stop offset="1" stop-color="#5377AD"/></linearGradient><linearGradient id="jpaint1_linear_28_187" x1="79.56" y1="69.878" x2="66.1" y2="74.645" gradientUnits="userSpaceOnUse"><stop stop-color="#3BC2D5"/><stop offset="1" stop-color="#5377AD"/></linearGradient><linearGradient id="jpaint2_linear_28_187" x1="62.122" y1="79.222" x2="106.171" y2="57.608" gradientUnits="userSpaceOnUse"><stop offset=".296" stop-color="#5377AD"/><stop offset=".578" stop-color="#3BC2D5"/></linearGradient><linearGradient id="jpaint3_linear_28_187" x1="90.355" y1="54.507" x2="104.634" y2="54.507" gradientUnits="userSpaceOnUse"><stop stop-color="#5377AD"/><stop offset="1" stop-color="#3BC2D5"/></linearGradient><linearGradient id="jpaint4_linear_28_187" x1="96.886" y1="47.24" x2="86.115" y2="35.422" gradientUnits="userSpaceOnUse"><stop stop-color="#3BC2D5"/><stop offset=".68" stop-color="#5377AD"/></linearGradient><linearGradient id="jpaint5_linear_28_187" x1="78.56" y1="42.957" x2="72.758" y2="29.909" gradientUnits="userSpaceOnUse"><stop stop-color="#3BC2D5"/><stop offset="1" stop-color="#5377AD"/></linearGradient><linearGradient id="jpaint6_linear_28_187" x1="93.538" y1="41.371" x2="51.308" y2="41.371" gradientUnits="userSpaceOnUse"><stop stop-color="#3BC2D5"/><stop offset="1" stop-color="#5377AD"/></linearGradient><linearGradient id="jpaint7_linear_28_187" x1="66.372" y1="45.304" x2="52.093" y2="45.304" gradientUnits="userSpaceOnUse"><stop stop-color="#3BC2D5"/><stop offset="1" stop-color="#5377AD"/></linearGradient></defs></svg><svg width="24" height="24" fill="none" viewBox="0 0 24 24" id="menu" x="556" y="257" xmlns="http://www.w3.org/2000/svg"><path stroke="#F5F6F6" stroke-width="2" stroke-linecap="round" d="M4 7h16M4 12h11M4 17h11"/></svg><svg width="24" height="24" fill="none" viewBox="0 0 24 24" id="menu-hover" x="580" y="257" xmlns="http://www.w3.org/2000/svg"><path stroke="#FFDE01" stroke-width="2" stroke-linecap="round" d="M4 7h16M4 12h11M4 17h11"/></svg><svg width="9" height="6" fill="none" viewBox="0 0 9 6" id="shevron" x="1016" y="189" xmlns="http://www.w3.org/2000/svg"><path d="M1.25 1.5l3.25 3 3.25-3" stroke="#fff" stroke-width="1.5" stroke-linecap="round" stroke-linejoin="round"/></svg><svg width="9" height="6" fill="none" viewBox="0 0 9 6" id="shevron-black" x="1016" y="195" xmlns="http://www.w3.org/2000/svg"><path d="M1.25 1.5l3.25 3 3.25-3" stroke="#222931" stroke-width="1.5" stroke-linecap="round" stroke-linejoin="round"/></svg><svg width="9" height="6" fill="none" viewBox="0 0 9 6" id="shevron-blue" x="1016" y="201" xmlns="http://www.w3.org/2000/svg"><path d="M1.25 1.5l3.25 3 3.25-3" stroke="#328BA8" stroke-width="1.5" stroke-linecap="round" stroke-linejoin="round"/></svg><svg width="9" height="6" fill="none" viewBox="0 0 9 6" id="shevron-hover" x="1016" y="207" xmlns="http://www.w3.org/2000/svg"><path d="M1.25 1.5l3.25 3 3.25-3" stroke="#FFDE01" stroke-width="1.5" stroke-linecap="round" stroke-linejoin="round"/></svg><svg width="32" height="33" fill="none" viewBox="0 0 32 33" id="whatsapp" x="483" y="257" xmlns="http://www.w3.org/2000/svg"><g clip-path="url(#qclip0_4_138)"><path d="M16 3.167c7.364 0 13.333 5.97 13.333 13.333 0 7.364-5.97 13.333-13.333 13.333-2.351 0-4.564-.61-6.484-1.68l-.407-.236-4.043 1.189a1.347 1.347 0 01-1.706-1.527l.034-.145 1.19-4.043A13.278 13.278 0 012.666 16.5C2.667 9.136 8.637 3.167 16 3.167zm0 2.666c-5.891 0-10.667 4.776-10.667 10.667 0 2.102.607 4.06 1.655 5.71.264.416.377.927.287 1.435l-.05.217-.59 2.002 2.003-.588a2.021 2.021 0 011.653.236A10.61 10.61 0 0016 27.167c5.891 0 10.667-4.776 10.667-10.667S21.89 5.833 16 5.833zm-3.864 4.246a.927.927 0 01.911.1c.673.49 1.207 1.149 1.665 1.792l.436.632.204.3a.95.95 0 01-.06 1.152l-.102.101-1.231.915a.303.303 0 00-.09.388c.28.507.776 1.262 1.343 1.83.569.568 1.36 1.097 1.901 1.407.117.067.26.045.355-.042l.051-.06.801-1.22a.948.948 0 011.298-.21l.724.505c.719.513 1.411 1.065 1.959 1.766a.928.928 0 01.119.937c-.528 1.232-1.865 2.282-3.255 2.23l-.211-.012-.256-.025a6.69 6.69 0 01-.144-.019l-.317-.052c-1.231-.233-3.207-.931-5.253-2.977-2.045-2.046-2.744-4.022-2.976-5.253l-.053-.317-.033-.277-.019-.234a5.01 5.01 0 01-.004-.1c-.052-1.392 1.004-2.729 2.237-3.257z" fill="url(#qpaint0_linear_4_138)"/></g><defs><linearGradient id="qpaint0_linear_4_138" x1="24" y1="3.5" x2="3" y2="29.5" gradientUnits="userSpaceOnUse"><stop stop-color="#5BF977"/><stop offset="1" stop-color="#2AD248"/></linearGradient><clipPath id="qclip0_4_138"><path fill="#fff" transform="translate(0 .5)" d="M0 0h32v32H0z"/></clipPath></defs></svg></svg>