<svg width="1028" height="189" fill="none" xmlns="http://www.w3.org/2000/svg"><rect width="1028" height="189" rx="10" fill="#F0F0F0"/><mask id="a" style="mask-type:alpha" maskUnits="userSpaceOnUse" x="0" y="-1" width="1028" height="190"><rect width="1028" height="189" rx="10" fill="#F0F0F0"/></mask><g mask="url(#a)"><path opacity=".3" fill-rule="evenodd" clip-rule="evenodd" d="M431.091-97.005c22.362-111.822 83.473-209.346 219.168-212.733 168.452-43.885 177.415-22.648 111.911 3.937 175.406-44.48 163.492-13.194 74.603 16.285 138.172 24.626 49.628 44.31-102.277 24.327-5.588.713-11.133 1.307-16.587 1.891-78.33 8.39-137.872 14.767-36.344 342.067 92.543 298.334 18.947 191.383-29.418 100.616C599.14 57.189 540.124-185.997 678.204-274.46c-4.528-.968-9.018-1.974-13.465-2.983-4.387.91-8.845 1.793-13.368 2.645-11.262 2.122-22.545 3.331-33.462 4.5-63.624 6.815-114.853 12.302-77.437 189.522 35.191-1.547 31.488 5.107 3.007 13.764 8.635 38.293 21.108 84.05 38.086 138.78 92.543 298.335 18.947 191.384-29.418 100.617-21.415-49.366-43.81-118.48-53.794-189.16h-.006c.434 22.208 1.297 46.15 2.615 71.954 17.42 341.269-39.248 202.669-69.76 90.711-8.099-45.481-13.062-103.187-9.953-162.122-30.227-1.783-65.767-5.526-104.33-11.716l-.807-.13c-33.274 17.985-37.065 65.369 30.699 201.773 92.8 186.8 19 119.834-29.5 63-48.117-69.261-101.172-200.603-8.083-265.962-7.679-1.396-15.273-3-22.754-4.662-76.607 8.277-132.947 19.2-32.909 341.698 92.543 298.334 18.947 191.383-29.418 100.616-52.485-120.993-110.862-360.606 22.036-451.188-86.416-16.805-147.545.615-130.221 339.982 17.42 341.269-39.248 202.669-69.76 90.711C17.53 226.882 28.165-87.332 297.077-66.877c2.57-.793 5.185-1.548 7.845-2.265 58.232-15.694 99.315-24.297 126.169-27.863zm77.202-93.027c14.61-41.806 40.765-76.852 82.976-99.017-38.296.961-68.153 22.07-82.976 99.017zm324.018 76.727c-206.8 34.8-140.167 213.834-81 299 48.5 56.834 122.3 123.8 29.5-63-101.81-204.936-42.102-208.93 36.445-214.182 10.948-.733 22.262-1.49 33.555-2.818 161.499-19 239.999-62.5-18.5-19z" fill="#fff"/></g></svg>