<svg width="181" height="181" fill="none" xmlns="http://www.w3.org/2000/svg"><path d="M52.792 67.875l40.983 40.984c1.494 1.493 2.24 2.24 3.101 2.52a3.772 3.772 0 002.33 0c.862-.28 1.609-1.027 3.102-2.52L116.4 94.766c1.494-1.493 2.24-2.24 3.101-2.52a3.772 3.772 0 012.331 0c.861.28 1.608 1.027 3.101 2.52l33.442 33.442M52.792 67.875h30.166m-30.166 0v30.167m69.383-75.417h-63.35c-12.671 0-19.007 0-23.847 2.466a22.624 22.624 0 00-9.887 9.887c-2.466 4.84-2.466 11.176-2.466 23.847v63.35c0 12.671 0 19.007 2.466 23.847a22.624 22.624 0 009.887 9.887c4.84 2.466 11.176 2.466 23.847 2.466h63.35c12.671 0 19.007 0 23.847-2.466a22.623 22.623 0 009.887-9.887c2.466-4.84 2.466-11.176 2.466-23.847v-63.35c0-12.671 0-19.007-2.466-23.847a22.624 22.624 0 00-9.887-9.887c-4.84-2.466-11.176-2.466-23.847-2.466z" stroke="#fff" stroke-width="8" stroke-linecap="round" stroke-linejoin="round"/></svg>