<svg width="156" height="132" fill="none" xmlns="http://www.w3.org/2000/svg"><rect width="156" height="132" rx="10" fill="#F5F6F6"/><path d="M29.155 88.862l-.59 4.035h-1.24l.558-4.035h-3.57l-1.52 10.707h3.57l.589-4.314h1.303l-.59 4.314h3.57l1.49-10.707h-3.57zm8.473 2.793l-1.18 3.476c-.062.186-.124.341-.155.466a5.082 5.082 0 01-.093.34c-.031.125-.062.218-.093.342a8.06 8.06 0 00-.093.404v-1.521l-.155-3.693-3.197.217.745 7.914h1.459l-.063.186a.734.734 0 01-.372.435 1.62 1.62 0 01-.714.155 2.73 2.73 0 01-.527-.062 3.578 3.578 0 01-.652-.186l-.869 2.017a17 17 0 001.303.279 7.27 7.27 0 001.18.093c.434 0 .807-.031 1.117-.124.31-.093.62-.217.869-.403.248-.187.465-.435.683-.745.186-.311.403-.714.59-1.18l3.32-8.379h-3.103v-.03zm8.1-2.762l-.404 2.98c-.248-.125-.496-.249-.714-.311a2.648 2.648 0 00-.713-.093 2.7 2.7 0 00-1.428.403c-.434.28-.807.652-1.148 1.118a6.202 6.202 0 00-.776 1.644 7.043 7.043 0 00-.28 2.018c0 .993.218 1.738.621 2.296.404.559.993.838 1.707.838.28 0 .559-.062.807-.155s.559-.248.9-.497l-.062.404h2.98l1.551-10.924-3.041.28zm-1.149 8.348h-.155c-.341 0-.59-.062-.714-.217s-.186-.403-.186-.776c0-.186 0-.372.031-.558a3.6 3.6 0 01.124-.559c.062-.186.093-.341.186-.466.063-.124.125-.248.218-.34.124-.125.217-.187.341-.218.124-.031.31-.062.528-.062h.093l-.466 3.196zm9.683-5.772h-.186c-.28 0-.559.062-.807.155s-.528.28-.838.528l.062-.683-3.041.217-1.117 7.914h3.01l.776-5.493c.217-.031.403-.062.558-.062h.838c.124 0 .248.03.404.062l.59-2.545c-.125-.093-.187-.093-.249-.093zm4.097-.031c-1.521 0-2.607.434-3.29 1.303-.559.683-.9 1.645-1.024 2.856-.031.31-.062.59-.093.806 0 .218-.031.435-.031.59v.186c0 .9.279 1.552.838 1.986.558.435 1.365.652 2.42.652.776 0 1.428-.093 1.956-.31.527-.217.993-.528 1.365-.993.248-.31.465-.714.62-1.148.156-.466.28-1.025.373-1.738.031-.249.062-.466.093-.714.031-.249.031-.466.031-.683.031-1.862-1.055-2.793-3.258-2.793zm.186 3.507c0 .093-.031.186-.031.31s-.031.248-.062.373c-.031.155-.031.279-.062.403s-.031.217-.062.28c-.094.527-.187.9-.31 1.117a.576.576 0 01-.528.31c-.342 0-.497-.248-.497-.745v-.31c0-.124.031-.249.031-.373 0-.093.031-.217.031-.31 0-.124.031-.248.031-.372.031-.156.031-.31.062-.404.031-.124.031-.186.062-.28.093-.527.187-.9.342-1.148.124-.217.31-.34.527-.34.155 0 .28.061.342.185.093.124.124.31.124.559.03.217.03.465 0 .745z" fill="#005686"/><path d="M62.455 94.448l-.31 2.142h4.53l.28-2.142h-4.5zm8.349-5.586L66.675 99.57h3.6l.745-2.359h1.738l.062 2.359h3.538l-1.087-10.707h-4.469zm1.893 2.793c0 .186-.031.404-.031.652v.372l.062 2.173h-1.055l.682-2.173c.031-.124.062-.248.093-.341.031-.093.062-.186.093-.31.063-.187.094-.342.125-.497.03-.155.062-.372.124-.652-.031.31-.062.559-.093.776zm12.475 1.986l.342-2.203h-.124a1.84 1.84 0 00-.714.155c-.217.093-.434.28-.683.497a2.645 2.645 0 00-.9-.528 5.073 5.073 0 00-1.334-.155c-1.707 0-2.856.528-3.507 1.583-.155.279-.31.558-.404.869-.093.31-.155.62-.155.9 0 .496.093.869.31 1.179.218.28.528.496.931.59a1.72 1.72 0 00-.248.186.942.942 0 00-.217.155c-.062.062-.155.124-.217.186-.093.062-.186.155-.31.248l-.063.063-.496.403c-.248.186-.342.372-.342.496 0 .125.063.249.156.373s.217.248.372.341c.155.093.341.186.59.249.248.062.465.124.713.155.187.03.404.03.56.03.185 0 .434 0 .806.032.31 0 .497.03.62.03.125 0 .187.032.249.032.124.062.186.155.186.28 0 .403-.372.589-1.086.589-.341 0-.59-.031-.714-.124-.155-.062-.217-.186-.217-.373v-.124h-2.483c-.03.124-.03.186-.03.248v.218c0 .403.061.745.185 1.024.125.279.31.527.559.683.248.186.59.31.993.403.403.093.9.124 1.459.124 1.396 0 2.451-.279 3.165-.807.714-.527 1.055-1.334 1.055-2.39 0-.62-.155-1.055-.465-1.303-.31-.248-.838-.403-1.583-.403h-.558c-.373 0-.652-.031-.807-.031-.156-.031-.28-.031-.373-.062a40.86 40.86 0 01-.093-.094c-.031-.03-.031-.062-.031-.093 0-.03 0-.062.031-.124s.062-.093.093-.155c.124.031.248.031.31.031h.218c1.18 0 2.08-.28 2.7-.807.62-.527.93-1.303.93-2.327v-.187h.621v-.062zm-3.537 1.21c-.125.28-.31.404-.56.404-.31 0-.465-.186-.465-.59v-.03c0-.466.063-.839.218-1.087s.341-.372.558-.372c.28 0 .435.217.435.62 0 .435-.062.807-.186 1.056zm11.855-3.413h-.124a1.84 1.84 0 00-.714.155c-.217.093-.435.28-.683.497a2.644 2.644 0 00-.9-.528 5.072 5.072 0 00-1.334-.155c-1.707 0-2.856.528-3.507 1.583-.155.279-.31.558-.404.869-.093.31-.155.62-.155.9 0 .496.093.869.31 1.179.218.28.528.496.931.59-.093.062-.186.124-.248.186s-.155.093-.217.155-.155.124-.217.186c-.093.062-.187.155-.31.248l-.063.063-.496.403c-.249.186-.373.372-.373.496 0 .125.062.249.155.373s.218.248.373.341c.155.093.341.186.59.249.248.062.465.124.713.155.187.03.404.03.559.03.186 0 .434 0 .807.032.31 0 .496.03.62.03.125 0 .187.032.249.032.124.062.186.155.186.28 0 .403-.372.589-1.086.589-.342 0-.59-.031-.714-.124-.155-.062-.217-.186-.217-.373v-.124h-2.39c-.03.124-.03.186-.03.248v.218c0 .403.061.745.185 1.024s.31.527.559.683c.248.186.59.31.993.403.403.093.9.124 1.459.124 1.396 0 2.451-.279 3.165-.807.714-.527 1.055-1.334 1.055-2.39 0-.62-.155-1.055-.465-1.303-.31-.248-.838-.403-1.583-.403h-.559c-.372 0-.651-.031-.806-.031-.156-.031-.28-.031-.342-.062l-.093-.094c-.031-.03-.031-.062-.031-.093 0-.03 0-.062.031-.124s.062-.093.093-.155c.124.031.248.031.31.031h.218c1.179 0 2.079-.28 2.7-.807.62-.527.93-1.303.93-2.327v-.187h.56l.31-2.265zm-3.849 3.414c-.124.279-.31.403-.558.403-.31 0-.466-.186-.466-.59v-.03c0-.466.062-.839.218-1.087.155-.248.34-.372.558-.372.28 0 .435.217.435.62 0 .435-.062.807-.187 1.056zm9.342-3.383h-.186c-.28 0-.559.062-.807.155-.249.093-.528.28-.838.528l.062-.683-3.041.186-1.118 7.914h3.01l.776-5.493c.218-.031.404-.062.56-.062h.837c.124 0 .248.03.403.062l.59-2.545c-.124-.062-.186-.062-.248-.062zm6.921 3.134c0-1.086-.218-1.862-.683-2.39-.466-.496-1.18-.744-2.173-.744-.651 0-1.241.124-1.769.341-.527.249-.993.559-1.365.993a4.865 4.865 0 00-.87 1.521c-.216.59-.31 1.273-.31 1.986 0 2.297 1.242 3.445 3.756 3.445.496 0 .931-.03 1.365-.093.404-.062.838-.186 1.335-.341l-.186-1.986a5.205 5.205 0 01-1.459.217c-.962 0-1.49-.31-1.583-.962h3.693c.062-.218.093-.404.155-.59.031-.186.062-.341.094-.497.031-.155.031-.31.031-.465-.031-.093-.031-.248-.031-.435zm-2.669-.03c0 .093-.031.217-.031.34h-1.397c.062-.465.186-.837.31-1.054a.655.655 0 01.559-.342.45.45 0 01.403.218c.093.124.156.31.156.558.031.062 0 .186 0 .28zm11.358-3.135h-.124c-.248 0-.497.062-.714.155-.217.093-.434.28-.683.497a2.636 2.636 0 00-.9-.528 5.065 5.065 0 00-1.334-.155c-1.707 0-2.855.528-3.507 1.583-.155.279-.31.558-.403.869-.093.31-.156.62-.156.9 0 .496.094.869.311 1.179.217.28.527.496.931.59-.093.062-.186.124-.248.186s-.156.093-.218.155-.155.124-.217.186c-.093.062-.186.155-.31.248l-.062.063-.497.403c-.248.186-.372.372-.372.496 0 .125.062.249.155.373s.217.248.372.341c.155.093.342.186.59.249.248.062.465.124.714.155.186.03.403.03.558.03.187 0 .435 0 .807.032.311 0 .497.03.621.03s.186.032.248.032c.124.062.186.155.186.28 0 .403-.372.589-1.086.589-.341 0-.589-.031-.714-.124-.155-.062-.217-.186-.217-.373v-.124h-2.389c-.031.124-.031.186-.031.248v.218c0 .403.062.745.186 1.024s.31.527.558.683c.249.186.59.31.993.403.404.093.9.124 1.459.124 1.397 0 2.452-.279 3.166-.807.713-.527 1.055-1.334 1.055-2.39 0-.62-.155-1.055-.466-1.303-.31-.248-.838-.403-1.583-.403h-.558c-.373 0-.652-.031-.807-.031-.155-.031-.279-.031-.341-.062a9.222 9.222 0 00-.094-.094c-.031-.03-.031-.062-.031-.093 0-.03 0-.062.031-.124.032-.062.063-.093.094-.155.124.031.248.031.31.031h.217c1.179 0 2.079-.28 2.7-.807s.931-1.303.931-2.327v-.187h.559l.31-2.265zm-3.848 3.414c-.124.279-.31.403-.559.403-.31 0-.465-.186-.465-.59v-.03c0-.466.062-.839.217-1.087s.341-.372.559-.372c.279 0 .434.217.434.62 0 .435-.062.807-.186 1.056zm10.49-2.918c-.528-.31-1.304-.465-2.297-.465-.497 0-.993.031-1.49.093-.496.062-1.055.186-1.676.373l.342 2.079c.372-.124.683-.186.962-.248a3.85 3.85 0 01.838-.094c.341 0 .59.063.745.156.186.093.279.217.279.403v.248l-.031.342a3.997 3.997 0 00-.776-.186 6.022 6.022 0 00-.776-.063 3.43 3.43 0 00-1.272.218 3.057 3.057 0 00-.993.651c-.28.28-.497.59-.652.993a3.284 3.284 0 00-.248 1.242c0 .683.186 1.21.558 1.583.373.372.869.558 1.521.558.372 0 .714-.062 1.024-.186.311-.124.621-.341.962-.62l.093.62h2.824l.745-5.307c.031-.186.062-.403.062-.558 0-.156.031-.31.031-.404.031-.683-.248-1.117-.775-1.427zm-2.731 5.773h-.28c-.279 0-.496-.062-.652-.186a.559.559 0 01-.217-.466c0-.28.093-.496.311-.683.217-.186.465-.279.775-.279h.218l-.155 1.614zm8.317-7.417l-3.042.341-.155 1.024h-.714l-.279 1.955.714.062-.59 4.128c-.031.155-.031.31-.031.466 0 .527.186.93.559 1.179.372.248.931.372 1.707.372.279 0 .496 0 .714-.03.186-.032.434-.063.713-.125l.155-.031h.063l.279-1.955c-.124.062-.31.093-.528.093-.155 0-.279-.031-.372-.124a.445.445 0 01-.155-.342v-.124c0-.062.031-.155.031-.248l.465-3.197 1.086-.186.28-1.862h-1.086l.186-1.396zm7.541 1.955c-.465-.497-1.179-.745-2.172-.745a4.61 4.61 0 00-1.769.341c-.528.249-.993.559-1.366.994a4.89 4.89 0 00-.869 1.52c-.217.59-.31 1.273-.31 1.986 0 2.297 1.241 3.445 3.755 3.445.497 0 .931-.03 1.366-.093.403-.062.838-.186 1.334-.341l-.186-1.987a5.196 5.196 0 01-1.459.218c-.962 0-1.489-.31-1.582-.962h3.693c.062-.218.093-.404.155-.59.031-.186.062-.341.093-.497.031-.155.031-.31.031-.465v-.497c-.031-1.055-.279-1.83-.714-2.327zm-1.986 2.327c0 .093-.031.218-.031.342h-1.397c.062-.466.187-.838.311-1.055a.653.653 0 01.558-.342c.155 0 .311.062.404.218.093.124.155.31.155.558.031.062 0 .186 0 .28z" fill="#222931"/><path d="M52.09 54.507c0 7.262 2.948 13.81 7.696 18.59a26.222 26.222 0 0018.59 7.696c2.824 0 5.524-.434 8.038-1.272L53.362 46.469c-.838 2.514-1.272 5.214-1.272 8.038z" fill="url(#paint0_linear_28_187)"/><path d="M101.745 66.486H55.007c4.345 8.473 13.19 14.276 23.369 14.276 10.18 0 18.993-5.772 23.369-14.276z" fill="url(#paint1_linear_28_187)"/><path d="M104.631 54.507c0-2.824-.434-5.524-1.272-8.038L70.307 79.521c2.545.807 5.245 1.272 8.038 1.272 7.262 0 13.81-2.948 18.59-7.696 4.748-4.78 7.696-11.328 7.696-18.59z" fill="url(#paint2_linear_28_187)"/><path d="M90.355 31.138v46.738c8.472-4.345 14.276-13.19 14.276-23.37 0-10.178-5.803-19.023-14.276-23.368z" fill="url(#paint3_linear_28_187)"/><path d="M96.934 35.917a26.223 26.223 0 00-18.59-7.696c-2.823 0-5.523.434-8.037 1.272l33.052 33.052c.807-2.545 1.272-5.245 1.272-8.038 0-7.262-2.948-13.81-7.697-18.59z" fill="url(#paint4_linear_28_187)"/><path d="M78.376 28.22c-10.18 0-19.024 5.804-23.37 14.277h46.739c-4.376-8.473-13.19-14.276-23.37-14.276z" fill="url(#paint5_linear_28_187)"/><path d="M86.414 29.493c-2.545-.807-5.245-1.272-8.038-1.272-11.7 0-21.6 7.665-25.014 18.217l8.038 8.038 25.014-24.983z" fill="url(#paint6_linear_28_187)"/><path d="M66.365 31.138a26.312 26.312 0 00-13.003 15.331l13.003 13.003V31.138z" fill="url(#paint7_linear_28_187)"/><defs><linearGradient id="paint0_linear_28_187" x1="68.516" y1="66.055" x2="55.475" y2="60.237" gradientUnits="userSpaceOnUse"><stop stop-color="#3BC2D5"/><stop offset="1" stop-color="#5377AD"/></linearGradient><linearGradient id="paint1_linear_28_187" x1="79.56" y1="69.878" x2="66.1" y2="74.645" gradientUnits="userSpaceOnUse"><stop stop-color="#3BC2D5"/><stop offset="1" stop-color="#5377AD"/></linearGradient><linearGradient id="paint2_linear_28_187" x1="62.122" y1="79.222" x2="106.171" y2="57.608" gradientUnits="userSpaceOnUse"><stop offset=".296" stop-color="#5377AD"/><stop offset=".578" stop-color="#3BC2D5"/></linearGradient><linearGradient id="paint3_linear_28_187" x1="90.355" y1="54.507" x2="104.634" y2="54.507" gradientUnits="userSpaceOnUse"><stop stop-color="#5377AD"/><stop offset="1" stop-color="#3BC2D5"/></linearGradient><linearGradient id="paint4_linear_28_187" x1="96.886" y1="47.24" x2="86.115" y2="35.422" gradientUnits="userSpaceOnUse"><stop stop-color="#3BC2D5"/><stop offset=".68" stop-color="#5377AD"/></linearGradient><linearGradient id="paint5_linear_28_187" x1="78.56" y1="42.957" x2="72.758" y2="29.909" gradientUnits="userSpaceOnUse"><stop stop-color="#3BC2D5"/><stop offset="1" stop-color="#5377AD"/></linearGradient><linearGradient id="paint6_linear_28_187" x1="93.538" y1="41.371" x2="51.308" y2="41.371" gradientUnits="userSpaceOnUse"><stop stop-color="#3BC2D5"/><stop offset="1" stop-color="#5377AD"/></linearGradient><linearGradient id="paint7_linear_28_187" x1="66.372" y1="45.304" x2="52.093" y2="45.304" gradientUnits="userSpaceOnUse"><stop stop-color="#3BC2D5"/><stop offset="1" stop-color="#5377AD"/></linearGradient></defs></svg>