<svg width="157" height="28" fill="none" xmlns="http://www.w3.org/2000/svg"><path d="M14.151 6.36l-.721 5.184h-1.587l.721-5.184H7.948L6 20.184h4.617l.793-5.544h1.66l-.794 5.544h4.616L18.84 6.36h-4.689zm32.46 3.384h-.215a2.9 2.9 0 00-1.083.216c-.36.144-.72.36-1.082.648l.073-.864-3.896.288-1.442 10.224h3.895l1.01-7.128c.288-.072.505-.072.721-.072h1.082c.144 0 .36.072.505.072l.793-3.312c-.216-.072-.288-.072-.36-.072zM35.576 6.432l-.505 3.816c-.36-.144-.649-.288-.937-.36-.289-.072-.578-.144-.938-.144a3.26 3.26 0 00-1.804.504 4.588 4.588 0 00-1.442 1.44c-.433.576-.722 1.296-1.01 2.16a9.778 9.778 0 00-.36 2.592c0 1.296.288 2.232.793 2.952.505.72 1.298 1.08 2.164 1.08.36 0 .721-.072 1.082-.216.36-.144.721-.36 1.154-.648l-.072.504h3.823L39.543 6l-3.968.432zm-1.515 10.8h-.216c-.433 0-.794-.072-.938-.288-.144-.216-.288-.504-.288-1.008 0-.216 0-.504.072-.72.072-.216.072-.504.144-.72.072-.216.144-.432.216-.576.073-.144.145-.288.29-.432.143-.144.288-.216.432-.288.144-.072.36-.072.65-.072h.143l-.505 4.104zm-8.944-7.2L23.6 14.496a4.955 4.955 0 01-.216.576c-.073.144-.073.288-.145.432-.072.144-.072.288-.072.432 0 .144-.072.288-.072.504v-1.944l-.216-4.752-4.112.288 1.01 10.224h1.875l-.072.216c-.072.288-.216.432-.505.576a2 2 0 01-.938.216c-.216 0-.505 0-.72-.072a7.5 7.5 0 00-.866-.216l-1.083 2.592c.65.144 1.227.288 1.732.36.505.072 1.01.072 1.514.072.578 0 1.01-.072 1.443-.144.433-.072.794-.288 1.082-.504.289-.216.577-.576.866-1.008.288-.432.505-.936.721-1.512l4.256-10.8h-3.967zm26.834-.288c-1.948 0-3.39.576-4.256 1.656-.722.864-1.154 2.088-1.299 3.672-.072.432-.072.72-.072 1.008v.936c0 1.152.361 2.016 1.082 2.52.722.576 1.732.792 3.102.792 1.01 0 1.803-.144 2.525-.432.721-.288 1.298-.72 1.731-1.296.36-.432.577-.936.794-1.512.216-.576.36-1.296.505-2.232.072-.288.072-.576.072-.936 0-.288.072-.576.072-.864-.072-2.16-1.443-3.312-4.256-3.312zm.144 4.536c0 .072 0 .216-.072.36 0 .144-.072.288-.072.504 0 .216-.072.36-.072.504 0 .144-.072.288-.072.36-.073.72-.217 1.152-.433 1.44-.145.288-.433.432-.65.432-.432 0-.649-.36-.649-1.008v-.432c0-.144 0-.288.073-.504 0-.144 0-.288.072-.432 0-.144 0-.288.072-.504 0-.216.072-.36.072-.504 0-.144.072-.288.072-.36.144-.72.289-1.152.433-1.44.144-.288.36-.432.649-.432.216 0 .36.072.433.288.144.144.144.432.144.72a2.37 2.37 0 010 1.008zm5.122-.648l-.361 2.736h5.843l.36-2.736h-5.842zm83.243-5.4l-3.967.432-.217 1.296h-.937l-.361 2.52.938.072-.722 5.328c-.072.216-.072.432-.072.576 0 .72.217 1.224.722 1.512.504.288 1.226.504 2.236.504.36 0 .649 0 .937-.072.289-.072.578-.072.938-.144l.217-.072h.072l.36-2.52a1.72 1.72 0 01-.649.144c-.216 0-.36-.072-.505-.144-.144-.144-.216-.288-.216-.432v-.144c0-.072 0-.216.072-.36l.577-4.104 1.371-.216.36-2.376h-1.37l.216-1.8zm-15.87 1.512h-.145c-.36 0-.649.072-.937.216-.289.144-.578.36-.866.648a3.66 3.66 0 00-1.154-.648c-.433-.144-1.01-.216-1.731-.216-2.165 0-3.679.648-4.545 2.016-.216.36-.361.72-.505 1.152-.144.36-.216.792-.216 1.152 0 .648.144 1.152.432 1.512.289.36.65.648 1.227.792-.144.072-.217.144-.361.216-.072.072-.216.144-.288.216-.073.072-.217.144-.289.216-.144.072-.216.216-.433.288l-.072.072-.649.504c-.289.288-.433.432-.433.648 0 .144.072.36.216.504.145.144.289.288.505.432.217.144.433.216.722.36.288.144.577.144.937.216.289 0 .505.072.722.072h1.803c.144 0 .217 0 .289.072a.396.396 0 01.216.36c0 .504-.433.792-1.37.792a2.83 2.83 0 01-.938-.144c-.217-.072-.289-.288-.289-.504v-.144h-3.101c0 .144-.073.216-.073.36v.288c0 .504.073.936.217 1.296.144.36.433.648.721.864.361.216.794.432 1.299.504.505.144 1.154.144 1.875.144 1.803 0 3.174-.36 4.112-1.08.937-.72 1.37-1.728 1.37-3.096 0-.792-.216-1.368-.577-1.656-.433-.36-1.082-.504-2.092-.504h-.721c-.505 0-.866 0-1.01-.072-.216 0-.361-.072-.433-.072-.072 0-.072-.072-.144-.072-.072-.072-.072-.072-.072-.144s0-.072.072-.144.072-.144.144-.216c.145 0 .289.072.361.072h.288c1.515 0 2.669-.36 3.463-1.008.793-.648 1.226-1.656 1.226-3.024v-.216h.722l.505-3.024zm-4.978 4.392c-.144.36-.433.504-.721.504-.433 0-.577-.216-.577-.72v-.072c0-.648.072-1.08.288-1.44.217-.36.433-.504.722-.504.36 0 .577.288.577.792 0 .648-.144 1.08-.289 1.44zM68.036 6.36l-5.338 13.824h4.616l1.01-3.024h2.237l.072 3.024h4.616L73.88 6.36h-5.843zm2.453 3.6v1.368l.072 2.808H69.19l.866-2.808c.072-.144.072-.288.144-.432 0-.144.072-.288.072-.36.072-.216.144-.432.144-.648.073-.216.073-.504.145-.864-.073.36-.073.72-.073.936zm79.636.792c-.577-.648-1.515-1.008-2.813-1.008-.866 0-1.587.144-2.308.432-.722.288-1.299.72-1.732 1.296-.504.576-.865 1.224-1.154 1.944-.288.792-.36 1.656-.36 2.592 0 2.952 1.587 4.464 4.833 4.464.649 0 1.226-.072 1.731-.144a10.085 10.085 0 001.731-.432l-.216-2.52a5.96 5.96 0 01-1.876.288c-1.226 0-1.947-.432-2.092-1.224h4.761c.072-.288.144-.504.217-.792.072-.216.072-.432.072-.648 0-.216.072-.432.072-.576v-.648c.072-1.368-.289-2.376-.866-3.024zm-2.524 3.024c0 .144 0 .288-.073.432h-1.803c.072-.648.216-1.08.433-1.368.216-.288.433-.432.721-.432.217 0 .361.072.505.288.144.144.217.432.217.72v.36zm-14.427-3.456c-.65-.432-1.66-.576-2.958-.576-.649 0-1.298.072-1.948.144a14.36 14.36 0 00-2.164.432l.433 2.664c.505-.144.866-.216 1.226-.288.361-.072.722-.072 1.082-.072.433 0 .722.072 1.01.216.217.144.361.288.361.504v.36l-.072.432c-.361-.144-.649-.216-1.01-.216-.361-.072-.649-.072-1.01-.072-.577 0-1.154.072-1.659.288a5.642 5.642 0 00-1.298.792c-.361.36-.65.792-.866 1.296-.216.504-.289 1.008-.289 1.584 0 .864.217 1.512.722 2.016s1.154.72 1.947.72a4.21 4.21 0 001.371-.216c.433-.144.793-.432 1.226-.792l.145.792h3.678l.938-6.84c.072-.288.072-.504.072-.72v-.504c.072-.936-.216-1.512-.937-1.944zm-3.535 7.488h-.361c-.36 0-.649-.072-.793-.216-.217-.144-.289-.36-.289-.648 0-.36.145-.648.433-.864.289-.216.577-.36 1.01-.36h.289l-.289 2.088zM97.323 9.744h-.145a2 2 0 00-.937.216c-.289.144-.578.36-.866.648a3.66 3.66 0 00-1.154-.648c-.433-.144-1.01-.216-1.731-.216-2.164 0-3.68.648-4.545 2.016-.216.36-.36.72-.505 1.152-.144.36-.216.792-.216 1.152 0 .648.144 1.152.432 1.512.29.36.65.648 1.227.792-.144.072-.217.144-.36.216-.073.072-.217.144-.29.216-.072.072-.216.144-.288.216-.144.072-.216.216-.433.288l-.072.072-.65.504c-.288.288-.432.432-.432.648 0 .144.072.36.216.504.145.144.29.288.505.432.217.144.433.216.722.36.288.072.577.144.938.216.288 0 .504.072.72.072h1.804c.145 0 .217 0 .289.072a.396.396 0 01.216.36c0 .504-.433.792-1.37.792a2.83 2.83 0 01-.938-.144c-.216-.072-.289-.288-.289-.504v-.144H86.07c0 .144-.073.216-.073.36v.288c0 .504.073.936.217 1.296.144.36.433.648.721.864.36.216.794.432 1.299.504.505.144 1.154.144 1.875.144 1.803 0 3.174-.36 4.112-1.08.938-.72 1.37-1.728 1.37-3.096 0-.792-.216-1.368-.577-1.656-.432-.36-1.082-.504-2.092-.504h-.721c-.505 0-.866 0-1.01-.072-.216 0-.36-.072-.433-.072-.072 0-.072-.072-.144-.072-.072-.072-.072-.072-.072-.144s0-.072.072-.144.072-.144.144-.216c.145 0 .289.072.361.072h.288c1.515 0 2.67-.36 3.463-1.008.793-.648 1.226-1.656 1.226-3.024v-.216h.722l.505-3.024zm-4.978 4.392c-.144.36-.433.504-.721.504-.433 0-.577-.216-.577-.72v-.072c0-.648.072-1.08.288-1.44.217-.36.433-.504.722-.504.36 0 .577.288.577.792-.072.648-.144 1.08-.289 1.44zm-5.77-1.584l.432-2.88h-.144a2 2 0 00-.938.216 3.39 3.39 0 00-.865.648 3.66 3.66 0 00-1.154-.648c-.433-.144-1.01-.216-1.732-.216-2.164 0-3.679.648-4.544 2.016-.217.36-.36.72-.505 1.152-.144.36-.216.792-.216 1.152 0 .648.144 1.152.432 1.512.289.36.65.648 1.227.792-.145.072-.217.144-.361.216-.072.072-.216.144-.289.216-.072.072-.216.144-.288.216-.144.072-.217.216-.433.288l-.072.072-.65.504c-.288.288-.432.432-.432.648 0 .144.072.36.216.504.144.144.289.288.505.432.217.144.433.216.722.36.288.072.577.144.937.216.289 0 .505.072.722.072h1.803c.144 0 .216 0 .289.072a.396.396 0 01.216.36c0 .504-.433.792-1.37.792a2.83 2.83 0 01-.938-.144c-.217-.072-.289-.288-.289-.504v-.144h-3.102c0 .144-.072.216-.072.36v.288c0 .504.072.936.217 1.296.144.36.432.648.72.864.362.216.794.432 1.3.504.504.144 1.154.144 1.875.144 1.803 0 3.174-.36 4.112-1.08.937-.72 1.37-1.728 1.37-3.096 0-.792-.216-1.368-.577-1.656-.433-.36-1.082-.504-2.092-.504h-.721c-.505 0-.866 0-1.01-.072-.217 0-.36-.072-.433-.072-.072 0-.072-.072-.144-.072-.072-.072-.072-.072-.072-.144s0-.072.072-.144.072-.144.144-.216c.144 0 .289.072.36.072h.29c1.514 0 2.668-.36 3.462-1.008.793-.648 1.226-1.656 1.226-3.024v-.216h.793v-.144zm-4.617 1.584c-.144.36-.433.504-.721.504-.433 0-.578-.216-.578-.72v-.072c0-.648.073-1.08.289-1.44.216-.36.433-.504.721-.504.361 0 .577.288.577.792 0 .648-.072 1.08-.288 1.44zm22.434-4.392h-.217c-.36 0-.721.072-1.082.216-.36.144-.721.36-1.082.648l.072-.864-3.895.288-1.442 10.224h3.895l1.01-7.128c.288-.072.505-.072.721-.072h1.082c.144 0 .361.072.505.072l.793-3.312c-.144-.072-.288-.072-.36-.072zm8.945 4.104c0-1.368-.289-2.448-.866-3.096-.577-.648-1.515-1.008-2.813-1.008-.866 0-1.587.144-2.309.432-.721.288-1.298.72-1.731 1.296-.505.576-.866 1.224-1.154 1.944-.289.792-.361 1.656-.361 2.592 0 2.952 1.587 4.464 4.833 4.464.65 0 1.227-.072 1.732-.144a10.108 10.108 0 001.731-.432l-.217-2.52a5.95 5.95 0 01-1.875.288c-1.226 0-1.948-.432-2.092-1.224h4.761c.072-.288.144-.504.216-.792.072-.216.072-.432.072-.648 0-.216.073-.432.073-.576v-.576zm-3.391-.072c0 .144 0 .288-.072.432h-1.803c.072-.648.216-1.08.432-1.368.217-.288.433-.432.722-.432.216 0 .361.072.505.288.144.144.216.432.216.72v.36z" fill="#fff"/></svg>