<svg width="321" height="68" fill="none" xmlns="http://www.w3.org/2000/svg"><g clip-path="url(#clip0_40_1218)"><path d="M101.098 22.58l-1.159 8.352h-2.55l1.16-8.352h-7.42L88 44.852h7.418l1.275-8.932h2.666l-1.274 8.932h7.418l3.13-22.272h-7.535zm52.161 5.452h-.348c-.579 0-1.159.116-1.738.348-.58.232-1.159.58-1.739 1.044l.116-1.392-6.259.464-2.319 16.472h6.26l1.622-11.484c.464-.116.812-.116 1.16-.116h1.738c.232 0 .58.116.812.116l1.275-5.336c-.348-.116-.464-.116-.58-.116zm-17.735-5.336l-.811 6.148c-.58-.232-1.043-.464-1.507-.58-.464-.116-.927-.232-1.507-.232-1.043 0-1.97.232-2.898.812a7.387 7.387 0 00-2.318 2.32c-.695.928-1.159 2.088-1.623 3.48a15.83 15.83 0 00-.579 4.176c0 2.088.463 3.596 1.275 4.756.811 1.16 2.086 1.74 3.477 1.74a4.65 4.65 0 001.739-.348c.58-.232 1.159-.58 1.855-1.044l-.116.812h6.143L141.9 22l-6.376.696zm-2.434 17.4h-.348c-.695 0-1.275-.116-1.506-.464-.232-.348-.464-.812-.464-1.624 0-.348 0-.812.116-1.16.116-.348.116-.812.232-1.16.116-.348.231-.696.347-.928.116-.232.232-.464.464-.696.232-.232.464-.348.696-.464.231-.116.579-.116 1.043-.116h.232l-.812 6.612zm-14.373-11.6l-2.434 7.192c-.116.348-.232.696-.348.928-.116.232-.116.464-.232.696-.116.232-.116.464-.116.696 0 .232-.116.464-.116.812v-3.132l-.347-7.656-6.607.464 1.622 16.472h3.014l-.116.348c-.116.464-.348.696-.811.928a3.207 3.207 0 01-1.507.348c-.348 0-.811 0-1.159-.116a12.067 12.067 0 00-1.391-.348l-1.739 4.176c1.043.232 1.971.464 2.782.58.811.116 1.623.116 2.434.116.928 0 1.623-.116 2.319-.232.695-.116 1.275-.464 1.738-.812.464-.348.928-.928 1.391-1.624.464-.696.812-1.508 1.159-2.436l6.839-17.4h-6.375zm43.12-.464c-3.13 0-5.448.928-6.839 2.668-1.159 1.392-1.855 3.364-2.087 5.916-.116.696-.116 1.16-.116 1.624v1.508c0 1.856.58 3.248 1.739 4.06 1.159.928 2.782 1.276 4.984 1.276 1.623 0 2.898-.232 4.057-.696 1.159-.464 2.087-1.16 2.782-2.088.58-.696.928-1.508 1.275-2.436.348-.928.58-2.088.812-3.596.116-.464.116-.928.116-1.508 0-.464.116-.928.116-1.392-.116-3.48-2.319-5.336-6.839-5.336zm.231 7.308c0 .116 0 .348-.115.58 0 .232-.116.464-.116.812 0 .348-.116.58-.116.812 0 .232-.116.464-.116.58-.116 1.16-.348 1.856-.696 2.32-.231.464-.695.696-1.043.696-.695 0-1.043-.58-1.043-1.624v-.696c0-.232 0-.464.116-.812 0-.232 0-.464.116-.696 0-.232 0-.464.116-.812 0-.348.116-.58.116-.812 0-.232.115-.464.115-.58.232-1.16.464-1.856.696-2.32.232-.464.58-.696 1.043-.696.348 0 .58.116.696.464.231.232.231.696.231 1.16.116.464.116 1.044 0 1.624zm8.23-1.044l-.579 4.408h9.389l.579-4.408h-9.389zm133.764-8.7l-6.375.696-.348 2.088h-1.507l-.579 4.06 1.506.116-1.159 8.584c-.116.348-.116.696-.116.928 0 1.16.348 1.972 1.16 2.436.811.464 1.97.812 3.593.812.579 0 1.043 0 1.507-.116.463-.116.927-.116 1.507-.232l.347-.116h.116l.58-4.06a2.77 2.77 0 01-1.043.232c-.348 0-.58-.116-.812-.232-.232-.232-.348-.464-.348-.696v-.232c0-.116 0-.348.116-.58l.928-6.612 2.202-.348.58-3.828h-2.203l.348-2.9zm-25.501 2.436h-.232a3.21 3.21 0 00-1.507.348c-.463.232-.927.58-1.391 1.044-.579-.464-1.159-.812-1.854-1.044-.696-.232-1.623-.348-2.782-.348-3.477 0-5.912 1.044-7.303 3.248-.347.58-.579 1.16-.811 1.856a5.254 5.254 0 00-.348 1.856c0 1.044.232 1.856.696 2.436.463.58 1.043 1.044 1.97 1.276-.232.116-.347.232-.579.348-.116.116-.348.232-.464.348-.116.116-.348.232-.464.348-.231.116-.347.348-.695.464l-.116.116-1.043.812c-.464.464-.696.696-.696 1.044 0 .232.116.58.348.812.232.232.464.464.811.696.348.232.696.348 1.16.58.463.232.927.232 1.506.348.464 0 .812.116 1.16.116h2.897c.232 0 .348 0 .464.116a.638.638 0 01.348.58c0 .812-.696 1.276-2.203 1.276a4.531 4.531 0 01-1.506-.232c-.348-.116-.464-.464-.464-.812v-.232h-4.984c0 .232-.116.348-.116.58v.464c0 .812.116 1.508.347 2.088.232.58.696 1.044 1.16 1.392.579.348 1.275.696 2.086.812.811.232 1.855.232 3.014.232 2.898 0 5.1-.58 6.607-1.74 1.507-1.16 2.202-2.784 2.202-4.988 0-1.276-.348-2.204-.927-2.668-.696-.58-1.739-.812-3.362-.812h-1.159c-.811 0-1.391 0-1.623-.116-.347 0-.579-.116-.695-.116-.116 0-.116-.116-.232-.116-.116-.116-.116-.116-.116-.232s0-.116.116-.232.116-.232.232-.348c.232 0 .464.116.58.116h.463c2.434 0 4.289-.58 5.564-1.624 1.275-1.044 1.971-2.668 1.971-4.872v-.348h1.159l.811-4.872zm-7.998 7.076c-.232.58-.695.812-1.159.812-.696 0-.927-.348-.927-1.16v-.116c0-1.044.116-1.74.463-2.32.348-.58.696-.812 1.159-.812.58 0 .928.464.928 1.276 0 1.044-.232 1.74-.464 2.32zM187.685 22.58l-8.577 22.272h7.418l1.623-4.872h3.593l.116 4.872h7.419l-2.203-22.272h-9.389zm3.941 5.8v2.204l.116 4.524h-2.202l1.391-4.524c.116-.232.116-.464.232-.696 0-.232.116-.464.116-.58.115-.348.231-.696.231-1.044.116-.348.116-.812.232-1.392-.116.58-.116 1.16-.116 1.508zm127.968 1.276c-.927-1.044-2.434-1.624-4.52-1.624-1.391 0-2.55.232-3.709.696-1.16.464-2.087 1.16-2.782 2.088-.812.928-1.391 1.972-1.855 3.132-.464 1.276-.58 2.668-.58 4.176 0 4.756 2.551 7.192 7.767 7.192 1.043 0 1.97-.116 2.782-.232.811-.116 1.738-.348 2.781-.696l-.347-4.06c-1.044.348-2.087.464-3.014.464-1.971 0-3.13-.696-3.362-1.972h7.651c.116-.464.232-.812.347-1.276.116-.348.116-.696.116-1.044 0-.348.116-.696.116-.928v-1.044c.116-2.204-.463-3.828-1.391-4.872zm-4.057 4.872c0 .232 0 .464-.116.696h-2.897c.116-1.044.347-1.74.695-2.204.348-.464.696-.696 1.159-.696.348 0 .58.116.812.464.231.232.347.696.347 1.16v.58zm-23.182-5.568c-1.043-.696-2.666-.928-4.753-.928-1.043 0-2.086.116-3.129.232-1.044.116-2.203.348-3.478.696l.696 4.292c.811-.232 1.391-.348 1.97-.464.58-.116 1.159-.116 1.739-.116.695 0 1.159.116 1.623.348.348.232.579.464.579.812v.58l-.116.696c-.579-.232-1.043-.348-1.622-.348-.58-.116-1.044-.116-1.623-.116-.927 0-1.855.116-2.666.464a9.092 9.092 0 00-2.087 1.276 6.597 6.597 0 00-1.391 2.088c-.347.812-.463 1.624-.463 2.552 0 1.392.348 2.436 1.159 3.248.811.812 1.855 1.16 3.13 1.16.811 0 1.506-.116 2.202-.348.695-.232 1.275-.696 1.97-1.276l.232 1.276h5.912l1.507-11.02c.116-.464.116-.812.116-1.16v-.812c.116-1.508-.348-2.436-1.507-3.132zm-5.68 12.064h-.58c-.579 0-1.043-.116-1.275-.348-.347-.232-.463-.58-.463-1.044 0-.58.232-1.044.695-1.392.464-.348.928-.58 1.623-.58h.464l-.464 3.364zm-51.929-12.992h-.232a3.21 3.21 0 00-1.507.348c-.463.232-.927.58-1.391 1.044-.579-.464-1.159-.812-1.854-1.044-.696-.232-1.623-.348-2.782-.348-3.478 0-5.912 1.044-7.303 3.248-.347.58-.579 1.16-.811 1.856a5.254 5.254 0 00-.348 1.856c0 1.044.232 1.856.696 2.436.463.58 1.043 1.044 1.97 1.276-.232.116-.348.232-.579.348-.116.116-.348.232-.464.348-.116.116-.348.232-.464.348-.232.116-.347.348-.695.464l-.116.116-1.043.812c-.464.464-.696.696-.696 1.044 0 .232.116.58.348.812.232.232.464.464.811.696.348.232.696.348 1.159.58.464.116.928.232 1.507.348.464 0 .812.116 1.159.116h2.898c.232 0 .348 0 .464.116a.638.638 0 01.348.58c0 .812-.696 1.276-2.203 1.276a4.543 4.543 0 01-1.507-.232c-.347-.116-.463-.464-.463-.812v-.232h-4.984c0 .232-.116.348-.116.58v.464c0 .812.116 1.508.347 2.088.232.58.696 1.044 1.159 1.392.58.348 1.276.696 2.087.812.811.232 1.855.232 3.014.232 2.897 0 5.1-.58 6.607-1.74 1.507-1.16 2.202-2.784 2.202-4.988 0-1.276-.348-2.204-.927-2.668-.696-.58-1.739-.812-3.362-.812h-1.159c-.811 0-1.391 0-1.623-.116-.347 0-.579-.116-.695-.116-.116 0-.116-.116-.232-.116-.116-.116-.116-.116-.116-.232s0-.116.116-.232.116-.232.232-.348c.232 0 .464.116.579.116h.464c2.434 0 4.289-.58 5.564-1.624 1.275-1.044 1.97-2.668 1.97-4.872v-.348h1.16l.811-4.872zm-7.998 7.076c-.232.58-.696.812-1.159.812-.696 0-.927-.348-.927-1.16v-.116c0-1.044.115-1.74.463-2.32.348-.58.696-.812 1.159-.812.58 0 .928.464.928 1.276-.116 1.044-.232 1.74-.464 2.32zm-9.273-2.552l.695-4.64h-.231c-.58 0-1.044.116-1.507.348-.464.232-.928.58-1.391 1.044-.58-.464-1.159-.812-1.855-1.044-.695-.232-1.623-.348-2.782-.348-3.477 0-5.911 1.044-7.302 3.248-.348.58-.58 1.16-.812 1.856a5.252 5.252 0 00-.347 1.856c0 1.044.231 1.856.695 2.436.464.58 1.043 1.044 1.971 1.276-.232.116-.348.232-.58.348-.116.116-.348.232-.464.348-.116.116-.347.232-.463.348-.232.116-.348.348-.696.464l-.116.116-1.043.812c-.464.464-.695.696-.695 1.044 0 .232.116.58.347.812.232.232.464.464.812.696.347.232.695.348 1.159.58.464.116.927.232 1.507.348.463 0 .811.116 1.159.116h2.898c.232 0 .347 0 .463.116a.638.638 0 01.348.58c0 .812-.695 1.276-2.202 1.276a4.538 4.538 0 01-1.507-.232c-.348-.116-.464-.464-.464-.812v-.232h-4.984c0 .232-.116.348-.116.58v.464c0 .812.116 1.508.348 2.088.232.58.695 1.044 1.159 1.392.579.348 1.275.696 2.086.812.812.232 1.855.232 3.014.232 2.898 0 5.1-.58 6.607-1.74 1.507-1.16 2.202-2.784 2.202-4.988 0-1.276-.347-2.204-.927-2.668-.695-.58-1.739-.812-3.361-.812h-1.159c-.812 0-1.391 0-1.623-.116-.348 0-.58-.116-.696-.116-.116 0-.116-.116-.232-.116-.115-.116-.115-.116-.115-.232s0-.116.115-.232c.116-.116.116-.232.232-.348.232 0 .464.116.58.116h.464c2.434 0 4.288-.58 5.563-1.624 1.275-1.044 1.971-2.668 1.971-4.872v-.348h1.275v-.232zm-7.419 2.552c-.231.58-.695.812-1.159.812-.695 0-.927-.348-.927-1.16v-.116c0-1.044.116-1.74.464-2.32.347-.58.695-.812 1.159-.812.579 0 .927.464.927 1.276 0 1.044-.116 1.74-.464 2.32zm36.049-7.076h-.347a4.65 4.65 0 00-1.739.348c-.58.232-1.159.58-1.739 1.044l.116-1.392-6.259.464-2.318 16.472h6.259l1.623-11.484c.463-.116.811-.116 1.159-.116h1.739c.231 0 .579.116.811.116l1.275-5.336c-.232-.116-.464-.116-.58-.116zm14.374 6.612c0-2.204-.464-3.944-1.391-4.988-.928-1.044-2.434-1.624-4.521-1.624-1.391 0-2.55.232-3.709.696-1.159.464-2.087 1.16-2.782 2.088-.811.928-1.391 1.972-1.855 3.132-.463 1.276-.579 2.668-.579 4.176 0 4.756 2.55 7.192 7.766 7.192 1.043 0 1.97-.116 2.782-.232.811-.116 1.739-.348 2.782-.696l-.348-4.06c-1.043.348-2.086.464-3.014.464-1.97 0-3.129-.696-3.361-1.972h7.65c.116-.464.232-.812.348-1.276.116-.348.116-.696.116-1.044 0-.348.116-.696.116-.928v-.928zm-5.448-.116c0 .232 0 .464-.116.696h-2.898c.116-1.044.348-1.74.695-2.204.348-.464.696-.696 1.16-.696.347 0 .579.116.811.464.232.232.348.696.348 1.16v.58z" fill="#fff"/><path d="M0 34c0 9.4 3.8 17.8 9.9 24 6.1 6.1 14.6 9.9 24 9.9 3.6 0 7.1-.6 10.4-1.6L1.7 23.7C.6 26.9 0 30.4 0 34z" fill="url(#paint0_linear_40_1218)"/><path d="M64 49.5H3.7c5.6 10.9 17 18.4 30.1 18.4 13.2 0 24.6-7.5 30.2-18.4z" fill="url(#paint1_linear_40_1218)"/><path d="M67.8 34c0-3.6-.6-7.1-1.6-10.4L23.6 66.2c3.3 1.1 6.8 1.6 10.4 1.6 9.4 0 17.8-3.8 24-9.9 6-6.1 9.8-14.5 9.8-23.9z" fill="url(#paint2_linear_40_1218)"/><path d="M49.4 3.9v60.3c10.9-5.6 18.4-17 18.4-30.1 0-13.1-7.5-24.6-18.4-30.2z" fill="url(#paint3_linear_40_1218)"/><path d="M57.9 10C51.8 3.9 43.3.1 33.9.1c-3.6 0-7.1.6-10.4 1.6l42.6 42.6c1.1-3.3 1.6-6.8 1.6-10.4.1-9.3-3.7-17.7-9.8-23.9z" fill="url(#paint4_linear_40_1218)"/><path d="M33.9.1C20.8.1 9.4 7.6 3.8 18.5H64C58.4 7.6 47 .1 33.9.1z" fill="url(#paint5_linear_40_1218)"/><path d="M44.3 1.8C41 .7 37.5.2 33.9.2 18.8.2 6 10.1 1.7 23.7L12 34 44.3 1.8z" fill="url(#paint6_linear_40_1218)"/><path d="M18.5 3.9C10.6 8 4.5 15.1 1.7 23.7l16.8 16.8V3.9z" fill="url(#paint7_linear_40_1218)"/></g><defs><linearGradient id="paint0_linear_40_1218" x1="21.216" y1="48.889" x2="4.401" y2="41.387" gradientUnits="userSpaceOnUse"><stop stop-color="#fff"/><stop offset="1" stop-color="#C7E4F7"/></linearGradient><linearGradient id="paint1_linear_40_1218" x1="35.457" y1="53.819" x2="18.101" y2="59.966" gradientUnits="userSpaceOnUse"><stop stop-color="#fff"/><stop offset="1" stop-color="#C7E4F7"/></linearGradient><linearGradient id="paint2_linear_40_1218" x1="12.97" y1="65.868" x2="69.767" y2="37.999" gradientUnits="userSpaceOnUse"><stop offset=".296" stop-color="#C7E4F7"/><stop offset=".578" stop-color="#fff"/></linearGradient><linearGradient id="paint3_linear_40_1218" x1="49.375" y1="34" x2="67.787" y2="34" gradientUnits="userSpaceOnUse"><stop stop-color="#C7E4F7"/><stop offset="1" stop-color="#fff"/></linearGradient><linearGradient id="paint4_linear_40_1218" x1="57.796" y1="24.632" x2="43.908" y2="9.394" gradientUnits="userSpaceOnUse"><stop stop-color="#fff"/><stop offset=".68" stop-color="#C7E4F7"/></linearGradient><linearGradient id="paint5_linear_40_1218" x1="34.167" y1="19.108" x2="26.686" y2="2.284" gradientUnits="userSpaceOnUse"><stop stop-color="#fff"/><stop offset="1" stop-color="#C7E4F7"/></linearGradient><linearGradient id="paint6_linear_40_1218" x1="53.48" y1="17.063" x2="-.972" y2="17.063" gradientUnits="userSpaceOnUse"><stop stop-color="#fff"/><stop offset="1" stop-color="#C7E4F7"/></linearGradient><linearGradient id="paint7_linear_40_1218" x1="18.452" y1="22.134" x2=".04" y2="22.134" gradientUnits="userSpaceOnUse"><stop stop-color="#fff"/><stop offset="1" stop-color="#C7E4F7"/></linearGradient><clipPath id="clip0_40_1218"><path fill="#fff" d="M0 0h321v68H0z"/></clipPath></defs></svg>