<svg width="146" height="96" fill="none" xmlns="http://www.w3.org/2000/svg"><path d="M8.587 78.1l-.7 5.2h-1.6l.7-5.2h-4.6l-2 13.8h4.6l.8-5.6h1.7l-.8 5.6h4.6l1.9-13.8h-4.6zm10.9 3.6l-1.5 4.5c-.1.2-.1.4-.2.6-.1.2-.1.3-.1.4 0 .1-.1.3-.1.4 0 .1-.1.3-.1.5v-2l-.2-4.8-4.1.3 1 10.2h1.9l-.1.2c-.1.3-.2.4-.5.6-.3.1-.6.2-.9.2-.2 0-.5 0-.7-.1-.2 0-.5-.1-.9-.2l-1.1 2.6c.6.2 1.2.3 1.7.4.5.1 1 .1 1.5.1s1-.1 1.4-.2c.4-.1.8-.3 1.1-.5.3-.2.6-.6.9-1 .3-.4.5-.9.7-1.5l4.3-10.8h-4v.1zm10.5-3.5l-.5 3.8c-.3-.2-.6-.3-.9-.4-.3-.1-.6-.1-.9-.1-.7 0-1.3.2-1.8.5-.6.4-1.1.8-1.5 1.4-.4.6-.7 1.3-1 2.1-.2.8-.4 1.7-.4 2.6 0 1.3.3 2.3.8 3 .5.7 1.3 1.1 2.2 1.1.4 0 .7-.1 1-.2.3-.1.7-.3 1.2-.6l-.1.5h3.8l2-14.1-3.9.4zm-1.5 10.7h-.2c-.4 0-.8-.1-.9-.3-.2-.2-.3-.5-.3-1 0-.2 0-.5.1-.7.1-.2.1-.5.2-.7.1-.2.1-.4.2-.6.1-.2.2-.3.3-.4.1-.1.3-.2.5-.3.2-.1.4-.1.7-.1h.1l-.7 4.1zm12.5-7.4h-.2c-.4 0-.7.1-1.1.2-.3.1-.7.4-1.1.7l.1-.9-3.9.3-1.4 10.2h3.9l1-7.1c.3-.1.5-.1.7-.1h1c.2 0 .3 0 .5.1l.8-3.3c-.1-.1-.2-.1-.3-.1zm5.3 0c-1.9 0-3.4.6-4.2 1.7-.7.9-1.1 2.1-1.3 3.7-.1.4-.1.7-.1 1v.9c0 1.1.4 2 1.1 2.5.7.5 1.7.8 3.1.8 1 0 1.8-.1 2.5-.4.7-.3 1.3-.7 1.8-1.3.3-.4.6-.9.8-1.5.2-.6.4-1.3.5-2.2 0-.3.1-.6.1-.9v-.9c-.1-2.2-1.5-3.4-4.3-3.4zm.2 4.5v.4c0 .2 0 .3-.1.5 0 .2 0 .4-.1.5-.1.1 0 .3-.1.4-.1.7-.2 1.2-.4 1.5-.2.3-.4.4-.7.4-.4 0-.6-.3-.6-1v-.4c0-.1 0-.3.1-.5v-.4c0-.1 0-.3.1-.5 0-.2.1-.4.1-.5 0-.1.1-.3.1-.3.1-.7.3-1.2.4-1.5.2-.3.4-.4.7-.4.2 0 .3.1.5.3.1.2.2.4.2.7-.1.1-.2.4-.2.8z" fill="#9AA5B0"/><path d="M51.587 85.3l-.4 2.7h5.8l.4-2.7h-5.8zm10.7-7.2l-5.3 13.8h4.6l1-3h2.2l.1 3h4.6l-1.4-13.8h-5.8zm2.5 3.6V83l.1 2.8h-1.4l.9-2.8c.1-.2.1-.3.1-.4 0-.1.1-.3.1-.4.1-.2.1-.5.2-.7 0-.2.1-.5.2-.8-.2.4-.2.8-.2 1zm16 2.6l.4-2.9h-.2c-.3 0-.6.1-.9.2-.3.1-.6.3-.9.6-.3-.3-.7-.5-1.2-.7-.4-.1-1-.2-1.7-.2-2.2 0-3.7.7-4.5 2-.2.4-.4.7-.5 1.1-.1.4-.2.8-.2 1.2 0 .6.1 1.1.4 1.5.3.4.7.6 1.2.8-.1.1-.2.2-.3.2-.1.1-.2.1-.3.2-.1.1-.2.1-.3.2-.1.1-.2.2-.4.3l-.1.1-.7.5c-.3.3-.5.5-.5.6 0 .2.1.3.2.5s.3.3.5.4c.2.1.5.2.7.3.3.1.6.2.9.2h2.8c.2.1.2.2.2.4 0 .5-.5.8-1.4.8-.4 0-.7 0-.9-.1-.2-.1-.3-.3-.3-.5v-.2h-3.1v.6c0 .5.1.9.2 1.3.2.4.4.7.7.9.3.2.8.4 1.3.5.5.1 1.1.2 1.9.2 1.8 0 3.2-.3 4.1-1 .9-.7 1.4-1.7 1.4-3.1 0-.8-.2-1.4-.6-1.7-.4-.3-1.1-.5-2-.5h-.7c-.5 0-.8 0-1-.1-.2 0-.4-.1-.5-.1-.1 0-.1-.1-.1-.1l-.1-.1s0-.1.1-.2c0-.1.1-.1.1-.2h.7c1.5 0 2.7-.3 3.5-1 .8-.7 1.2-1.7 1.2-3V84h.9v.3zm-4.5 1.6c-.2.3-.4.5-.7.5-.4 0-.6-.2-.6-.7v-.1c0-.6.1-1.1.3-1.4.2-.3.4-.5.7-.5.4 0 .6.3.6.8-.1.6-.2 1-.3 1.4zm15.2-4.4h-.2c-.3 0-.6.1-.9.2-.3.1-.6.3-.9.6-.3-.3-.7-.5-1.2-.7-.4-.1-1-.2-1.7-.2-2.2 0-3.7.7-4.5 2-.2.4-.4.7-.5 1.1-.1.4-.2.8-.2 1.2 0 .6.1 1.1.4 1.5.3.4.7.6 1.2.8-.1.1-.2.2-.3.2-.1.1-.2.1-.3.2-.1.1-.2.1-.3.2-.1.1-.2.2-.4.3l-.1.1-.7.5c-.3.3-.5.5-.5.6 0 .2.1.3.2.5s.3.3.5.4c.2.1.5.2.7.3.3.1.6.2.9.2h2.8c.2.1.2.2.2.4 0 .5-.5.8-1.4.8-.4 0-.7 0-.9-.1-.2-.1-.3-.3-.3-.5v-.2h-3.1v.6c0 .5.1.9.2 1.3.2.4.4.7.7.9.3.2.8.4 1.3.5.5.1 1.1.2 1.9.2 1.8 0 3.2-.3 4.1-1 .9-.7 1.4-1.7 1.4-3.1 0-.8-.2-1.4-.6-1.7-.4-.3-1.1-.5-2-.5h-.7c-.5 0-.8 0-1-.1-.2 0-.4-.1-.5-.1-.1 0-.1-.1-.1-.1l-.1-.1s0-.1.1-.2c0-.1.1-.1.1-.2h.7c1.5 0 2.7-.3 3.5-1 .8-.7 1.2-1.7 1.2-3v-.2h.7l.6-2.6zm-4.9 4.4c-.2.3-.4.5-.7.5-.4 0-.6-.2-.6-.7v-.1c0-.6.1-1.1.3-1.4.2-.3.4-.5.7-.5.4 0 .6.3.6.8-.1.6-.2 1-.3 1.4zm12-4.4h-.2c-.4 0-.7.1-1.1.2-.3.1-.7.4-1.1.7l.1-.9-3.9.3-1.4 10.2h3.9l1-7.1c.3-.1.5-.1.7-.1h1c.2 0 .3 0 .5.1l.8-3.3c-.1-.1-.2-.1-.3-.1zm8.9 4c0-1.4-.3-2.4-.9-3.1-.6-.7-1.5-1-2.8-1-.8 0-1.6.2-2.3.5-.7.3-1.3.7-1.8 1.3-.5.5-.9 1.2-1.1 2-.3.8-.4 1.6-.4 2.6 0 2.9 1.6 4.4 4.8 4.4.6 0 1.2 0 1.7-.1s1.1-.2 1.7-.4l-.2-2.5c-.7.2-1.3.3-1.9.3-1.3 0-1.9-.4-2-1.2h4.8c.1-.3.1-.5.2-.8 0-.2.1-.4.1-.6 0-.2 0-.4.1-.6v-.8zm-3.4 0c0 .1 0 .3-.1.4h-1.8c.1-.6.2-1.1.4-1.4.2-.3.4-.4.7-.4.2 0 .4.1.5.3.1.2.2.4.2.7.1.1.1.3.1.4zm14.6-4h-.2c-.3 0-.6.1-.9.2-.3.1-.6.3-.9.6-.3-.3-.7-.5-1.2-.7-.4-.1-1-.2-1.7-.2-2.2 0-3.7.7-4.5 2-.2.4-.4.7-.5 1.1-.1.4-.2.8-.2 1.2 0 .6.1 1.1.4 1.5.3.4.7.6 1.2.8-.1.1-.2.2-.3.2-.1.1-.2.1-.3.2-.1.1-.2.1-.3.2-.1.1-.2.2-.4.3l-.1.1-.7.5c-.3.3-.5.5-.5.6 0 .2.1.3.2.5s.3.3.5.4c.2.1.5.2.7.3.3.1.6.2.9.2h2.8c.2.1.2.2.2.4 0 .5-.5.8-1.4.8-.4 0-.7 0-.9-.1-.2-.1-.3-.3-.3-.5v-.2h-2.8v.6c0 .5.1.9.2 1.3.2.4.4.7.7.9.3.2.8.4 1.3.5.5.1 1.1.2 1.9.2 1.8 0 3.2-.3 4.1-1 .9-.7 1.4-1.7 1.4-3.1 0-.8-.2-1.4-.6-1.7-.4-.3-1.1-.5-2-.5h-.7c-.5 0-.8 0-1-.1-.2 0-.4-.1-.5-.1-.1 0-.1-.1-.1-.1l-.1-.1s0-.1.1-.2c0-.1.1-.1.1-.2h.7c1.5 0 2.7-.3 3.5-1 .8-.7 1.2-1.7 1.2-3v-.2h.7l.3-2.6zm-4.9 4.4c-.2.3-.4.5-.7.5-.4 0-.6-.2-.6-.7v-.1c0-.6.1-1.1.3-1.4.2-.3.4-.5.7-.5.4 0 .6.3.6.8-.1.6-.2 1-.3 1.4zm13.5-3.8c-.7-.4-1.7-.6-2.9-.6-.7 0-1.3 0-1.9.1-.6.1-1.4.2-2.2.5l.4 2.7c.5-.1.9-.2 1.2-.3.4-.1.7-.1 1.1-.1.4 0 .7.1 1 .2.2.1.3.3.3.5v.3l-.1.4c-.3-.1-.7-.2-1-.2-.3-.1-.7-.1-1-.1-.6 0-1.1.1-1.6.3-.5.2-.9.5-1.3.8-.4.4-.6.8-.8 1.3-.2.5-.3 1-.3 1.6 0 .9.2 1.5.7 2 .5.5 1.1.7 2 .7.5 0 .9-.1 1.3-.2.4-.2.8-.4 1.2-.8l.1.8h3.6l1-6.8c0-.3.1-.5.1-.7V84c.1-.9-.2-1.5-.9-1.9zm-3.6 7.4h-.3c-.4 0-.6-.1-.8-.2-.2-.2-.3-.4-.3-.6 0-.4.1-.7.4-.9.3-.2.6-.3 1-.3h.3l-.3 2zm10.8-9.5l-3.9.4-.2 1.3h-.9l-.3 2.5.9.1-.7 5.3c0 .2-.1.4-.1.6 0 .7.2 1.2.7 1.5.5.3 1.2.5 2.2.5.3 0 .6 0 .9-.1.3 0 .6-.1.9-.2h.3l.3-2.5c-.2.1-.4.1-.7.1-.2 0-.4-.1-.5-.2-.1-.1-.2-.3-.2-.4v-.5l.6-4.1 1.4-.2.3-2.4h-1.4l.4-1.7zm9.7 2.5c-.6-.7-1.5-1-2.8-1-.8 0-1.6.2-2.3.5-.7.3-1.3.7-1.8 1.3-.5.5-.9 1.2-1.1 2-.3.8-.4 1.6-.4 2.6 0 2.9 1.6 4.4 4.8 4.4.6 0 1.2 0 1.7-.1s1.1-.2 1.7-.4l-.2-2.5c-.7.2-1.3.3-1.9.3-1.3 0-1.9-.4-2-1.2h4.8c.1-.3.1-.5.2-.8 0-.2.1-.4.1-.6 0-.2 0-.4.1-.6v-.6c0-1.7-.3-2.7-.9-3.3zm-2.6 3c0 .1 0 .3-.1.4h-1.8c.1-.6.2-1.1.4-1.4.2-.3.4-.4.7-.4.2 0 .4.1.5.3.1.2.2.4.2.7.2.1.1.3.1.4z" fill="#848585"/><path d="M38.187 33.9c0 9.3 3.8 17.8 9.9 23.9 6.1 6.1 14.6 9.9 23.9 9.9 3.6 0 7.1-.6 10.4-1.6l-42.6-42.6c-1 3.3-1.6 6.8-1.6 10.4z" fill="url(#paint0_linear_37_517)"/><path d="M102.187 49.3h-60.3c5.6 10.9 17 18.4 30.1 18.4 13.1 0 24.5-7.5 30.2-18.4z" fill="url(#paint1_linear_37_517)"/><path d="M105.887 33.9c0-3.6-.6-7.1-1.6-10.4l-42.6 42.6c3.3 1.1 6.8 1.6 10.4 1.6 9.3 0 17.8-3.8 23.9-9.9 6.1-6.1 9.9-14.6 9.9-23.9z" fill="url(#paint2_linear_37_517)"/><path d="M87.487 3.8V64c10.9-5.6 18.4-17 18.4-30.1 0-13.1-7.5-24.5-18.4-30.1z" fill="url(#paint3_linear_37_517)"/><path d="M95.987 9.9c-6.1-6.1-14.6-9.9-23.9-9.9-3.6 0-7.1.6-10.4 1.6l42.6 42.6c1.1-3.3 1.6-6.8 1.6-10.4 0-9.3-3.8-17.7-9.9-23.9z" fill="url(#paint4_linear_37_517)"/><path d="M71.987 0c-13.1 0-24.5 7.5-30.1 18.4h60.2C96.487 7.5 85.187 0 71.987 0z" fill="url(#paint5_linear_37_517)"/><path d="M82.387 1.7c-3.3-1.1-6.8-1.6-10.4-1.6-15.1 0-27.8 9.9-32.2 23.5l10.4 10.4 32.2-32.3z" fill="url(#paint6_linear_37_517)"/><path d="M56.587 3.8c-7.9 4.1-14 11.2-16.8 19.7l16.8 16.8V3.8z" fill="url(#paint7_linear_37_517)"/><defs><linearGradient id="paint0_linear_37_517" x1="59.342" y1="48.754" x2="42.541" y2="41.259" gradientUnits="userSpaceOnUse"><stop stop-color="#A1B4C2"/><stop offset="1" stop-color="#697D8E"/></linearGradient><linearGradient id="paint1_linear_37_517" x1="73.574" y1="53.678" x2="56.232" y2="59.82" gradientUnits="userSpaceOnUse"><stop stop-color="#A1B4C2"/><stop offset="1" stop-color="#697D8E"/></linearGradient><linearGradient id="paint2_linear_37_517" x1="51.106" y1="65.72" x2="107.855" y2="37.874" gradientUnits="userSpaceOnUse"><stop offset=".296" stop-color="#697D8E"/><stop offset=".578" stop-color="#A1B4C2"/></linearGradient><linearGradient id="paint3_linear_37_517" x1="87.481" y1="33.875" x2="105.878" y2="33.875" gradientUnits="userSpaceOnUse"><stop stop-color="#697D8E"/><stop offset="1" stop-color="#A1B4C2"/></linearGradient><linearGradient id="paint4_linear_37_517" x1="95.895" y1="24.515" x2="82.019" y2="9.29" gradientUnits="userSpaceOnUse"><stop stop-color="#A1B4C2"/><stop offset=".68" stop-color="#697D8E"/></linearGradient><linearGradient id="paint5_linear_37_517" x1="72.284" y1="18.995" x2="64.81" y2="2.185" gradientUnits="userSpaceOnUse"><stop stop-color="#A1B4C2"/><stop offset="1" stop-color="#697D8E"/></linearGradient><linearGradient id="paint6_linear_37_517" x1="91.582" y1="16.952" x2="37.175" y2="16.952" gradientUnits="userSpaceOnUse"><stop stop-color="#A1B4C2"/><stop offset="1" stop-color="#697D8E"/></linearGradient><linearGradient id="paint7_linear_37_517" x1="56.583" y1="22.019" x2="38.186" y2="22.019" gradientUnits="userSpaceOnUse"><stop stop-color="#A1B4C2"/><stop offset="1" stop-color="#697D8E"/></linearGradient></defs></svg>