<svg width="217" height="47" fill="none" xmlns="http://www.w3.org/2000/svg"><path d="M0 23.5c0 6.417 2.605 12.204 6.801 16.427A23.172 23.172 0 0023.23 46.73c2.495 0 4.881-.384 7.103-1.125L1.124 16.397C.384 18.618 0 21.004 0 23.5z" fill="url(#paint0_linear_37_490)"/><path d="M43.88 34.086H2.577C6.418 41.573 14.233 46.7 23.228 46.7c8.996 0 16.784-5.1 20.651-12.615z" fill="url(#paint1_linear_37_490)"/><path d="M46.43 23.5c0-2.496-.384-4.882-1.125-7.103L16.098 45.604a23.478 23.478 0 007.103 1.125c6.418 0 12.204-2.606 16.428-6.802 4.195-4.223 6.8-10.01 6.8-16.427z" fill="url(#paint2_linear_37_490)"/><path d="M33.815 2.85v41.3C41.3 40.312 46.43 32.496 46.43 23.5S41.3 6.689 33.815 2.85z" fill="url(#paint3_linear_37_490)"/><path d="M39.629 7.073A23.172 23.172 0 0023.2.27c-2.495 0-4.881.384-7.103 1.125l29.207 29.207A23.478 23.478 0 0046.43 23.5c0-6.417-2.606-12.204-6.801-16.427z" fill="url(#paint4_linear_37_490)"/><path d="M23.229.271C14.233.271 6.417 5.4 2.578 12.887h41.301C40.012 5.4 32.224.27 23.23.27z" fill="url(#paint5_linear_37_490)"/><path d="M30.331 1.396A23.476 23.476 0 0023.23.27C12.889.271 4.14 7.045 1.124 16.37l7.103 7.103L30.331 1.396z" fill="url(#paint6_linear_37_490)"/><path d="M12.615 2.85a23.251 23.251 0 00-11.49 13.547l11.49 11.49V2.85z" fill="url(#paint7_linear_37_490)"/><path d="M64.816 13.93l-.842 5.76h-1.772l.797-5.76h-5.095l-2.17 15.285h5.094l.842-6.158h1.86l-.841 6.158h5.095l2.126-15.284h-5.094zm12.094 3.988l-1.683 4.962c-.089.266-.177.487-.222.664-.044.177-.088.355-.133.488-.044.177-.088.31-.132.487-.045.177-.09.354-.133.576v-2.171l-.222-5.272-4.563.31 1.063 11.297h2.082l-.088.266a1.048 1.048 0 01-.532.62 2.31 2.31 0 01-1.019.222c-.266 0-.532-.044-.753-.089a5.103 5.103 0 01-.93-.265l-1.24 2.88c.708.176 1.328.31 1.86.398.531.089 1.107.133 1.683.133.62 0 1.152-.044 1.595-.177.443-.133.886-.31 1.24-.576.355-.266.665-.62.975-1.063.266-.444.576-1.02.842-1.684l4.74-11.962h-4.43v-.044zm11.564-3.943l-.577 4.253c-.354-.177-.708-.355-1.019-.443a3.776 3.776 0 00-1.018-.133 3.85 3.85 0 00-2.038.576c-.62.399-1.152.93-1.64 1.595a8.856 8.856 0 00-1.107 2.348c-.266.886-.399 1.86-.399 2.88 0 1.417.31 2.48.886 3.278.576.797 1.418 1.196 2.437 1.196.399 0 .797-.088 1.152-.221a5.482 5.482 0 001.285-.71l-.09.577H90.6l2.215-15.595-4.341.399zm-1.64 11.917h-.221c-.488 0-.842-.088-1.02-.31-.177-.221-.265-.576-.265-1.107 0-.266 0-.532.044-.798a5.15 5.15 0 01.177-.797c.09-.266.133-.488.266-.665.089-.177.178-.354.31-.487.178-.177.31-.266.488-.31.177-.044.443-.089.753-.089h.133l-.665 4.563zm13.823-8.24h-.266a3.35 3.35 0 00-1.152.221c-.354.133-.753.4-1.196.754l.088-.975-4.341.31-1.595 11.297h4.297l1.108-7.841c.31-.044.576-.089.797-.089h1.197c.177 0 .354.044.575.089l.842-3.633c-.177-.133-.266-.133-.354-.133zm5.848-.044c-2.171 0-3.722.62-4.696 1.86-.798.975-1.285 2.349-1.462 4.076-.045.443-.089.842-.133 1.152 0 .31-.045.62-.045.842v.266c0 1.285.399 2.215 1.197 2.835.797.62 1.949.93 3.455.93 1.108 0 2.038-.132 2.791-.442.754-.31 1.418-.754 1.95-1.418.354-.443.664-1.02.886-1.64.221-.664.399-1.461.531-2.48.045-.355.089-.665.133-1.02.045-.354.045-.664.045-.974.044-2.658-1.507-3.987-4.652-3.987zm.266 5.006c0 .133-.045.266-.045.443s-.044.354-.088.532c-.045.221-.045.398-.089.576-.044.177-.044.31-.088.398-.133.753-.266 1.285-.443 1.595a.824.824 0 01-.754.443c-.487 0-.709-.354-.709-1.063v-.443c0-.177.045-.354.045-.532 0-.133.044-.31.044-.443 0-.177.044-.354.044-.531.045-.222.045-.443.089-.576.044-.178.044-.266.089-.4.133-.752.265-1.284.487-1.638.177-.31.443-.488.753-.488.222 0 .399.089.487.266.133.177.178.443.178.798.044.31.044.664 0 1.063z" fill="#005686"/><path d="M112.353 21.905l-.443 3.057h6.468l.399-3.057h-6.424zm11.917-7.975l-5.892 15.285h5.139l1.064-3.367h2.481l.088 3.367h5.051l-1.551-15.284h-6.38zm2.703 3.988c0 .266-.044.576-.044.93v.532l.088 3.101h-1.506l.975-3.101c.044-.177.088-.355.132-.488.045-.132.089-.265.133-.443.089-.265.133-.487.178-.708.044-.222.088-.532.177-.93-.044.442-.089.797-.133 1.107zm17.81 2.835l.487-3.145h-.177c-.355 0-.709.088-1.019.221-.31.133-.62.399-.975.71a3.763 3.763 0 00-1.285-.754c-.487-.133-1.107-.222-1.905-.222-2.436 0-4.075.754-5.006 2.26-.221.399-.443.797-.576 1.24-.133.443-.221.886-.221 1.285 0 .709.133 1.24.443 1.684.31.398.753.709 1.329.841a2.56 2.56 0 00-.355.266 1.367 1.367 0 00-.31.222c-.088.088-.221.177-.31.266-.133.088-.266.221-.443.354l-.088.089-.709.575c-.355.266-.488.532-.488.71 0 .177.089.354.222.531.133.177.31.354.532.487.221.133.487.266.841.355.355.088.665.177 1.019.221.266.045.576.045.798.045.266 0 .62 0 1.152.044.443 0 .708.044.886.044.177 0 .265.044.354.044.177.09.266.222.266.4 0 .575-.532.841-1.551.841-.487 0-.841-.044-1.019-.177-.221-.089-.31-.266-.31-.532v-.178h-3.544c-.044.178-.044.267-.044.355v.31c0 .576.088 1.064.265 1.463.178.398.443.753.798.974.354.266.842.443 1.418.576.576.133 1.284.177 2.082.177 1.994 0 3.5-.398 4.519-1.152 1.019-.753 1.506-1.905 1.506-3.41 0-.887-.221-1.507-.664-1.862-.443-.354-1.197-.576-2.26-.576h-.797c-.532 0-.931-.044-1.152-.044-.222-.044-.399-.044-.532-.088l-.133-.133c-.044-.045-.044-.089-.044-.133 0-.045 0-.089.044-.178.044-.088.089-.132.133-.221.177.044.355.044.443.044h.31c1.684 0 2.969-.399 3.855-1.152.886-.753 1.329-1.86 1.329-3.322v-.266h.886v-.089zm-5.051 1.728c-.177.399-.443.576-.797.576-.443 0-.665-.266-.665-.842v-.044c0-.665.089-1.196.31-1.55.222-.355.488-.532.798-.532.399 0 .62.31.62.886 0 .62-.089 1.152-.266 1.506zm16.924-4.873h-.177c-.355 0-.709.088-1.019.221-.31.133-.62.399-.975.71a3.773 3.773 0 00-1.285-.754c-.487-.133-1.107-.222-1.905-.222-2.436 0-4.076.754-5.006 2.26-.221.399-.443.797-.576 1.24-.133.443-.221.886-.221 1.285 0 .709.133 1.24.443 1.684.31.398.753.709 1.329.841a2.56 2.56 0 00-.355.266c-.088.089-.221.133-.31.222-.088.088-.221.177-.31.266-.133.088-.266.221-.443.354l-.089.089-.708.575c-.355.266-.532.532-.532.71 0 .177.089.354.221.531.133.177.311.354.532.487.222.133.487.266.842.355.354.088.664.177 1.019.221.266.045.576.045.797.045.266 0 .621 0 1.152.044.443 0 .709.044.886.044.177 0 .266.044.355.044.177.09.266.222.266.4 0 .575-.532.841-1.551.841-.487 0-.842-.044-1.019-.177-.222-.089-.31-.266-.31-.532v-.178h-3.412c-.044.178-.044.267-.044.355v.31c0 .576.089 1.064.266 1.463.177.398.443.753.797.974.355.266.842.443 1.418.576.576.133 1.285.177 2.082.177 1.994 0 3.5-.398 4.519-1.152 1.019-.753 1.507-1.905 1.507-3.41 0-.887-.222-1.507-.665-1.862-.443-.354-1.196-.576-2.259-.576h-.798c-.532 0-.93-.044-1.152-.044-.221-.044-.398-.044-.487-.088l-.133-.133c-.044-.045-.044-.089-.044-.133 0-.045 0-.089.044-.178.044-.088.089-.132.133-.221.177.044.354.044.443.044h.31c1.684 0 2.968-.399 3.854-1.152.887-.753 1.33-1.86 1.33-3.322v-.266h.797l.443-3.234zm-5.494 4.873c-.177.399-.443.576-.797.576-.443 0-.665-.266-.665-.842v-.044c0-.665.089-1.196.311-1.55.221-.355.487-.532.797-.532.399 0 .62.31.62.886 0 .62-.088 1.152-.266 1.506zm13.336-4.829h-.266c-.399 0-.798.089-1.152.221-.354.133-.753.4-1.196.754l.088-.975-4.341.266-1.595 11.297h4.297l1.108-7.842c.31-.044.576-.088.797-.088h1.196c.178 0 .355.044.576.088l.842-3.632c-.177-.089-.266-.089-.354-.089zm9.879 4.475c0-1.551-.31-2.659-.974-3.412-.665-.709-1.684-1.063-3.102-1.063a6.58 6.58 0 00-2.525.487c-.753.355-1.418.798-1.949 1.418-.532.62-.931 1.33-1.241 2.17-.31.843-.443 1.817-.443 2.836 0 3.279 1.772 4.918 5.361 4.918.709 0 1.329-.044 1.949-.133.576-.089 1.196-.266 1.905-.487l-.266-2.836a7.41 7.41 0 01-2.082.31c-1.373 0-2.126-.443-2.259-1.373h5.272c.088-.31.133-.576.221-.842.045-.266.089-.487.133-.709.045-.221.045-.443.045-.664-.045-.133-.045-.355-.045-.62zm-3.81-.045c0 .133-.044.31-.044.488h-1.994c.089-.665.266-1.197.443-1.507a.935.935 0 01.798-.487c.221 0 .443.089.576.31.133.177.221.443.221.798.045.088 0 .265 0 .398zm16.215-4.474h-.177a2.63 2.63 0 00-1.019.221c-.31.133-.62.399-.975.71a3.768 3.768 0 00-1.284-.754c-.488-.133-1.108-.222-1.906-.222-2.436 0-4.075.754-5.006 2.26-.221.399-.443.797-.576 1.24-.133.443-.221.886-.221 1.285 0 .709.133 1.24.443 1.684.31.398.753.709 1.329.841a2.56 2.56 0 00-.355.266c-.088.089-.221.133-.31.222-.088.088-.221.177-.31.266-.133.088-.266.221-.443.354l-.088.089-.709.575c-.355.266-.532.532-.532.71 0 .177.089.354.222.531.133.177.31.354.531.487.222.133.488.266.842.355.354.088.665.177 1.019.221.266.045.576.045.797.045.266 0 .621 0 1.152.044.443 0 .709.044.886.044.178 0 .266.044.355.044.177.09.266.222.266.4 0 .575-.532.841-1.551.841-.487 0-.842-.044-1.019-.177-.221-.089-.31-.266-.31-.532v-.178h-3.411c-.045.178-.045.267-.045.355v.31c0 .576.089 1.064.266 1.463.177.398.443.753.798.974.354.266.841.443 1.417.576.576.133 1.285.177 2.083.177 1.993 0 3.499-.398 4.518-1.152 1.019-.753 1.507-1.905 1.507-3.41 0-.887-.222-1.507-.665-1.862-.443-.354-1.196-.576-2.259-.576h-.798c-.531 0-.93-.044-1.152-.044-.221-.044-.398-.044-.487-.088l-.133-.133c-.044-.045-.044-.089-.044-.133 0-.045 0-.089.044-.178.044-.088.089-.132.133-.221.177.044.354.044.443.044h.31c1.684 0 2.969-.399 3.855-1.152.886-.753 1.329-1.86 1.329-3.322v-.266h.797l.443-3.234zm-5.493 4.873c-.178.399-.443.576-.798.576-.443 0-.664-.266-.664-.842v-.044c0-.665.088-1.196.31-1.55.221-.355.487-.532.797-.532.399 0 .62.31.62.886 0 .62-.088 1.152-.265 1.506zm14.974-4.165c-.753-.442-1.861-.664-3.278-.664-.709 0-1.418.044-2.127.133-.709.088-1.506.266-2.392.532l.487 2.968c.532-.177.975-.266 1.373-.355a5.507 5.507 0 011.197-.133c.487 0 .841.09 1.063.222.266.133.399.31.399.576v.354l-.045.488a5.698 5.698 0 00-1.107-.266c-.355-.044-.709-.089-1.108-.089-.664 0-1.24.089-1.816.31a4.377 4.377 0 00-1.418.93 3.94 3.94 0 00-.93 1.419 4.674 4.674 0 00-.355 1.772c0 .974.266 1.727.798 2.26.531.53 1.24.797 2.171.797.531 0 1.019-.09 1.462-.266.443-.177.886-.488 1.373-.886l.133.886h4.031l1.064-7.576c.044-.266.088-.576.088-.798 0-.221.045-.443.045-.575.044-.975-.355-1.595-1.108-2.038zm-3.899 8.24h-.398c-.399 0-.709-.088-.931-.265a.798.798 0 01-.31-.664c0-.4.133-.71.443-.975a1.62 1.62 0 011.108-.399h.31l-.222 2.304zm11.874-10.588l-4.342.488-.222 1.462h-1.019l-.398 2.79 1.019.09-.842 5.892c-.044.221-.044.443-.044.664 0 .754.265 1.33.797 1.684.532.354 1.329.532 2.437.532.398 0 .709 0 1.019-.045.266-.044.62-.088 1.019-.177l.221-.044h.089l.399-2.791c-.178.088-.444.132-.754.132-.221 0-.398-.044-.531-.177s-.222-.265-.222-.487v-.177c0-.089.045-.222.045-.355l.664-4.563 1.551-.266.398-2.658h-1.55l.266-1.994zm10.765 2.792c-.664-.71-1.683-1.064-3.101-1.064a6.56 6.56 0 00-2.525.488c-.753.354-1.418.797-1.95 1.417-.531.62-.93 1.33-1.24 2.171-.31.842-.443 1.817-.443 2.836 0 3.278 1.772 4.917 5.361 4.917.708 0 1.329-.044 1.949-.133.576-.088 1.196-.265 1.905-.487l-.266-2.835a7.416 7.416 0 01-2.082.31c-1.373 0-2.127-.443-2.26-1.374h5.273c.088-.31.132-.576.221-.841.044-.266.089-.488.133-.71.044-.22.044-.442.044-.664v-.709c-.044-1.506-.398-2.614-1.019-3.322zm-2.835 3.322c0 .133-.044.31-.044.488h-1.994c.089-.665.266-1.197.443-1.507a.933.933 0 01.797-.487c.222 0 .443.089.576.31.133.177.222.443.222.798.044.088 0 .265 0 .398z" fill="#222931"/><defs><linearGradient id="paint0_linear_37_490" x1="14.515" y1="33.705" x2="2.992" y2="28.564" gradientUnits="userSpaceOnUse"><stop stop-color="#3BC2D5"/><stop offset="1" stop-color="#5377AD"/></linearGradient><linearGradient id="paint1_linear_37_490" x1="24.275" y1="37.083" x2="12.381" y2="41.295" gradientUnits="userSpaceOnUse"><stop stop-color="#3BC2D5"/><stop offset="1" stop-color="#5377AD"/></linearGradient><linearGradient id="paint2_linear_37_490" x1="8.866" y1="45.34" x2="47.79" y2="26.241" gradientUnits="userSpaceOnUse"><stop offset=".296" stop-color="#5377AD"/><stop offset=".578" stop-color="#3BC2D5"/></linearGradient><linearGradient id="paint3_linear_37_490" x1="33.814" y1="23.5" x2="46.432" y2="23.5" gradientUnits="userSpaceOnUse"><stop stop-color="#5377AD"/><stop offset="1" stop-color="#3BC2D5"/></linearGradient><linearGradient id="paint4_linear_37_490" x1="39.585" y1="17.079" x2="30.068" y2="6.636" gradientUnits="userSpaceOnUse"><stop stop-color="#3BC2D5"/><stop offset=".68" stop-color="#5377AD"/></linearGradient><linearGradient id="paint5_linear_37_490" x1="23.391" y1="13.294" x2="18.265" y2="1.763" gradientUnits="userSpaceOnUse"><stop stop-color="#3BC2D5"/><stop offset="1" stop-color="#5377AD"/></linearGradient><linearGradient id="paint6_linear_37_490" x1="36.627" y1="11.892" x2="-.691" y2="11.892" gradientUnits="userSpaceOnUse"><stop stop-color="#3BC2D5"/><stop offset="1" stop-color="#5377AD"/></linearGradient><linearGradient id="paint7_linear_37_490" x1="12.621" y1="15.368" x2=".003" y2="15.368" gradientUnits="userSpaceOnUse"><stop stop-color="#3BC2D5"/><stop offset="1" stop-color="#5377AD"/></linearGradient></defs></svg>