<svg width="32" height="33" fill="none" xmlns="http://www.w3.org/2000/svg"><g clip-path="url(#clip0_4_138)"><path d="M16 3.167c7.364 0 13.333 5.97 13.333 13.333 0 7.364-5.97 13.333-13.333 13.333-2.351 0-4.564-.61-6.484-1.68l-.407-.236-4.043 1.189a1.347 1.347 0 01-1.706-1.527l.034-.145 1.19-4.043A13.278 13.278 0 012.666 16.5C2.667 9.136 8.637 3.167 16 3.167zm0 2.666c-5.891 0-10.667 4.776-10.667 10.667 0 2.102.607 4.06 1.655 5.71.264.416.377.927.287 1.435l-.05.217-.59 2.002 2.003-.588a2.021 2.021 0 011.653.236A10.61 10.61 0 0016 27.167c5.891 0 10.667-4.776 10.667-10.667S21.89 5.833 16 5.833zm-3.864 4.246a.927.927 0 01.911.1c.673.49 1.207 1.149 1.665 1.792l.436.632.204.3a.95.95 0 01-.06 1.152l-.102.101-1.231.915a.303.303 0 00-.09.388c.28.507.776 1.262 1.343 1.83.569.568 1.36 1.097 1.901 1.407.117.067.26.045.355-.042l.051-.06.801-1.22a.948.948 0 011.298-.21l.724.505c.719.513 1.411 1.065 1.959 1.766a.928.928 0 01.119.937c-.528 1.232-1.865 2.282-3.255 2.23l-.211-.012-.256-.025a6.69 6.69 0 01-.144-.019l-.317-.052c-1.231-.233-3.207-.931-5.253-2.977-2.045-2.046-2.744-4.022-2.976-5.253l-.053-.317-.033-.277-.019-.234a5.01 5.01 0 01-.004-.1c-.052-1.392 1.004-2.729 2.237-3.257z" fill="url(#paint0_linear_4_138)"/></g><defs><linearGradient id="paint0_linear_4_138" x1="24" y1="3.5" x2="3" y2="29.5" gradientUnits="userSpaceOnUse"><stop stop-color="#5BF977"/><stop offset="1" stop-color="#2AD248"/></linearGradient><clipPath id="clip0_4_138"><path fill="#fff" transform="translate(0 .5)" d="M0 0h32v32H0z"/></clipPath></defs></svg>